<mxfile modified="2020-01-17T07:03:54.505Z" host="www.draw.io" agent="Mozilla/5.0 (Windows NT 6.1; Win64; x64; rv:70.0) Gecko/20100101 Firefox/70.0" etag="tetvGZqxGzZMAy4GQR70" version="12.5.1" type="github">
  <diagram id="KO9zACE-NeB-TcVE9RpL" name="Page-1">
    <mxGraphModel dx="1730" dy="2094" grid="1" gridSize="10" guides="1" tooltips="1" connect="1" arrows="1" fold="1" page="1" pageScale="1" pageWidth="827" pageHeight="1169" math="0" shadow="0">
      <root>
        <mxCell id="0"/>
        <mxCell id="1" parent="0"/>
        <mxCell id="r2lIPMXVaygreJaPk6Gy-4" style="edgeStyle=orthogonalEdgeStyle;rounded=0;orthogonalLoop=1;jettySize=auto;html=1;" parent="1" source="r2lIPMXVaygreJaPk6Gy-2" target="r2lIPMXVaygreJaPk6Gy-3" edge="1">
          <mxGeometry relative="1" as="geometry"/>
        </mxCell>
        <mxCell id="r2lIPMXVaygreJaPk6Gy-2" value="&lt;div&gt;MCSt61090701&lt;/div&gt;&lt;div&gt;000109&lt;/div&gt;&lt;div&gt;&lt;br&gt;&lt;/div&gt;" style="rounded=1;whiteSpace=wrap;html=1;fillColor=#d5e8d4;strokeColor=#82b366;" parent="1" vertex="1">
          <mxGeometry x="240" y="168" width="120" height="40" as="geometry"/>
        </mxCell>
        <mxCell id="r2lIPMXVaygreJaPk6Gy-3" value="" style="shape=image;verticalLabelPosition=bottom;labelBackgroundColor=#ffffff;verticalAlign=top;aspect=fixed;imageAspect=0;image=data:image/png,iVBORw0KGgoAAAANSUhEUgAAAKoAAABMCAIAAAByCbtKAAAABmJLR0QAAAAAAAD5Q7t/AAAACXBIWXMAABJ0AAASdAHeZh94AAAD30lEQVR4nO2dbW6jMBCGue4q16j2UCulf1bqBVbqdbJEVMTxx3hmPB4Mfh9ZFaUDBj9jwCbZXW6/bkS5/7kvJGvAK/gzH7yu30q0Jhuzr69uAgxw0P8TyVAL/d7Q+ukMCN2n+gl/0uX0V2AD9E9NVX8pAyL32Yt/eEcnkiMbRm8CbGDqjzJgW1PVD0aHoz9Mgqx46D8rfP31/ID+0wH9UwP9UwP9U4NHv2l5+uKLf9uSN/Ajxv3gWFYdq7KO0z7MWT/gz+aepb/3pC9wZnfvqj9aX5r0zYYhV6wI3df1N77wLclrfP0DdETuu+vfa7V9+wcUpO6d9O/Vq5VDfyNZ90M8+kF/b0ruoX8KmvSXMqDTxz042wIp+ov/7aCPe8C6IU36wyRwm/OHfkMM9NfzA/oHRjPwO1A/sAX6pwb6Z0c86Qv9VwL6pwb6Z0f2wleq/6Hi6DaZiO76P35/hCU9gigA+j05pf6vv19r0Z2wesOrchd92Gsc/dIkUGwyA+fWzzEqCp4NV/0mJdVf8soMm5nr6A/tVgPAzp3/Of/x9VfL0a09HNfRv58S9PO5gv7siZ1C/0NbDLnzv+PXoj+tuBqQItUJ/VVG0S8a+InOUK1fN3UtmuWGfpl+9Xnq9Kur4+x8BP0L//v9h+t3ZjukPt3+Tf+S/Azb4pT6dY0yFLunTrut6o8WTqPf+giPQaSf/3gh6v0OF/8n0J9S1a+bZWLqJ5LAHuhPofWr5xlT/dk7/ZIsQL8rJf2Nk80l/cyuD/1OeOo/cOD3BPpTsvrb3zZB/zlI9evcRxnQaTzZRPi9XZStTar60/WlyKz+s/Z+4t+JMIl3qIKIn1E/v/m2yH7xDlXQ8av+73/fa+HrX5J3Cnz9IVnTpRFBWJEujV5H1butD9Sp0B95qhrl6N8DUv2c7k7rlyZBfArM5gtjesQ7VFGNl+rfFsKfLfqjiwGz9/OTIJ/BnOZL/2ob71AFJ156749u+XSuZPXvskuXfZH+UhJQ45Fq8/Vef2DV0Xp//aUnuxb9YRIQAd76x9FM6Bc9+u3L6UqF/mWx6f1R2c6oVBa6mS55kS/9ld/7RYWv36r305f9fO/PNMdFH/FK8YR+dQa8STUd99Pixff+qDlmHBCS+hUZEG3eVX9121H0++mcQ79oD/Gx5We/P4Wz5dJ4hyoUh1TTz0+C7Ia2r3yk4qMkMDmGUdC9XCjtrfeHvdrOFSQ46w+hlat3CwQcqJ8P9Peik35zFujvQQ/9nbB68gcvzPX3Bfptgf6pwcV/au7v/+8Ts5T29pjjG75XJuzo0m0fnQd+Vf3RQj/9/wEEuZiYVSnbSwAAAABJRU5ErkJggg==;" parent="1" vertex="1">
          <mxGeometry x="410" y="150" width="170" height="76" as="geometry"/>
        </mxCell>
        <mxCell id="r2lIPMXVaygreJaPk6Gy-5" value="" style="shape=image;verticalLabelPosition=bottom;labelBackgroundColor=#ffffff;verticalAlign=top;aspect=fixed;imageAspect=0;image=data:image/png,iVBORw0KGgoAAAANSUhEUgAAAHwAAAAvCAIAAACuZjmwAAAABmJLR0QAAAAAAAD5Q7t/AAAACXBIWXMAABJ0AAASdAHeZh94AAACGElEQVR4nO3aUW7DIAwGYF936jV6qknpy6ReYFKvw7JkyqgJxhgMJPEvq0vbBHVfEUmgcPu4zTU9JrSRrHVP9f0/J1jinNse/Ty/nlmFDt+anf/Iivgw0UNaI14DPXHI/F/912N6e5os7f2XotH59LsH0s3mJskdfk+Vw+/Ufu+OtZbUEYhzmj1YGqP7oaHFzR4gHdH5MXQWevWAocdaU3WpdfXSP9XRdWPoYQydFRteOuT3Vii/Yq055ROpj4gefdnR0cP4nTr3WKd8yZhERxuGjiO4OeL09AMML2FU0QunAWh0gn706KGXT3jtOqJvwoaXv2hM7QK7mxt6//n0EVMdPVc8dDd0KiG6TBy5K12JciO7l2lQMZ2YI/EKgd6npwvu2huUofdBf32/5uKjr2+hp0x0P7u+sauas6EjnaQjB33bIUTndG1Df0NcN/zHEnQ/1tN3KH10tC0YXoiBxdDro8fOk1roY1bWiXTbDl8UoIN2T4fxOru/pqF9c9RnTB/NHa0inXwaYAT3cN3u5BNeht4Bvbv77vK09iJGPbyC9HKP/SBAe7muGKxS2rtzfoLB+eQ0tLjZRmnpToiDms6I6NDKnRYH/4xXOzAgOui7J8VB2WVEdNB054iDTh9H/X24dEe/aDTcTTyduu4mzk0t92uK3527y84f5e7XFF8jRIcy9yuLQwk6SN0vLg6F6JDvbuKwoP8ADOyV0TG/yvgAAAAASUVORK5CYII=;" parent="1" vertex="1">
          <mxGeometry x="405" y="275.5" width="124" height="47" as="geometry"/>
        </mxCell>
        <mxCell id="r2lIPMXVaygreJaPk6Gy-7" style="edgeStyle=orthogonalEdgeStyle;rounded=0;orthogonalLoop=1;jettySize=auto;html=1;" parent="1" source="r2lIPMXVaygreJaPk6Gy-6" target="r2lIPMXVaygreJaPk6Gy-5" edge="1">
          <mxGeometry relative="1" as="geometry"/>
        </mxCell>
        <mxCell id="r2lIPMXVaygreJaPk6Gy-6" value="&lt;div&gt;MCSt61090703&lt;/div&gt;&lt;div&gt;000081&lt;/div&gt;&lt;div&gt;&lt;br&gt;&lt;/div&gt;" style="rounded=1;whiteSpace=wrap;html=1;fillColor=#d5e8d4;strokeColor=#82b366;" parent="1" vertex="1">
          <mxGeometry x="240" y="279" width="120" height="40" as="geometry"/>
        </mxCell>
        <mxCell id="r2lIPMXVaygreJaPk6Gy-8" value="" style="shape=image;verticalLabelPosition=bottom;labelBackgroundColor=#ffffff;verticalAlign=top;aspect=fixed;imageAspect=0;image=data:image/png,iVBORw0KGgoAAAANSUhEUgAAAF4AAAA6CAIAAAC21Xl1AAAABmJLR0QAAAAAAAD5Q7t/AAAACXBIWXMAABJ0AAASdAHeZh94AAACkklEQVR4nO2YUW7DIAyGfd1pZ+xeJvUCk3qdrFo0l9rGGIMTSPILRZRQir8aAwYAWP6LQ58fn1hcAwynNxpLA53joXnT0kDnyGgWqdh1PDTZBXV5zRVrspLRvF4HaxebjRLQvL2OnP1kaOjrv9kH+cs0aEgMvn/fIUHT+VcnRfOEsha40CAahMLRpBtQY4Hp0BAuOa/x7c3kWxeal4poIiI9ifo90Tx+HluicQxrVH80sK3XwFanBPG2qJQmNDzQutEYWRvVB42+Q4lGEhZphTDqiwanV5SChre84UifxnPNaqToHWIL9tdnXETDnZr8i6J0NGV/IWgQUA5NLtwo7Y1odC4KHTsa0oE8TUNvjMYCRQFkWVDaUrKj4WGFIFAa07eDoOFQsAO40Ygg9BYHmlounE7VgvJ7TZGF/jFtsaDxcSF0Noo1xUWk+xQMhsZenGhAiibFnjjs8y6yliIa3q5A3BSNfj9IDy+Wng6vmRUNSCfgFjR6cOUfc/1b7h8VaEJTWUY0ayV9DoFGH6iv10BmQRnRKMOmNg8da2rDMAkxQ6BRbG7ZoRQbcmjQZUZHc51rZDShp2E3ndz8ORpgzyXTTdC+dyiIvF4qaHhF0IFv3rrX1C0otPAYqawcGg5I1iBoICABqkQWz4KC/XLDqXQc+g8BQ6O7TDUarKeM0gph1xeNXRtt3qtysZbckngHfVhs6a6d0RRlRBMk3+ADoQmVY86joJlPF5qs0IboVNZ8CrLhUGgi4mJ3NA7/FXX7uqVFQxOkCDT2njqaMsEIfyG+01FGNMVErQnNXLKYUczSwjnRFFO0q06HppifRZ0LjSWFgjoRGku2wLHHzyRLPqTYDifxmqolhjo+mqqonIqg+QXMWZi2XkX/5QAAAABJRU5ErkJggg==;" parent="1" vertex="1">
          <mxGeometry x="408" y="410" width="94" height="58" as="geometry"/>
        </mxCell>
        <mxCell id="r2lIPMXVaygreJaPk6Gy-10" style="edgeStyle=orthogonalEdgeStyle;rounded=0;orthogonalLoop=1;jettySize=auto;html=1;" parent="1" source="r2lIPMXVaygreJaPk6Gy-9" target="r2lIPMXVaygreJaPk6Gy-8" edge="1">
          <mxGeometry relative="1" as="geometry"/>
        </mxCell>
        <mxCell id="r2lIPMXVaygreJaPk6Gy-9" value="&lt;div&gt;MCSt61090721&lt;/div&gt;&lt;div&gt;010066&lt;/div&gt;&lt;div&gt;&lt;br&gt;&lt;/div&gt;" style="rounded=1;whiteSpace=wrap;html=1;fillColor=#d5e8d4;strokeColor=#82b366;" parent="1" vertex="1">
          <mxGeometry x="238" y="419" width="120" height="40" as="geometry"/>
        </mxCell>
        <mxCell id="r2lIPMXVaygreJaPk6Gy-11" value="" style="shape=image;verticalLabelPosition=bottom;labelBackgroundColor=#ffffff;verticalAlign=top;aspect=fixed;imageAspect=0;image=data:image/png,iVBORw0KGgoAAAANSUhEUgAAAFgAAAAmCAIAAADP38vSAAAABmJLR0QAAAAAAAD5Q7t/AAAACXBIWXMAABJ0AAASdAHeZh94AAABCUlEQVR4nO2YSwrDMAxEfd2Sa4QequBuCrlW6xIvQvyVseTfDFqZkZR5IYREbY+tbum3VvVkptUdGFTnIOQEEFYAYQUQVgBhVR3Et0itMfCA2J/7tdylNwNAEEAcn8NUWcasxrFAUHEQWkYEkZONZBYCUaVcEKGEmbbZQFxzJg3zg0jWEiDiD8USILyJ+gXhLk0akvGq+7sAQXp9piOVdQ0EgoSA3DsKCHZxgMDX57/wPwIgAAIgAAIgAGIZEPqlUabUeQ+p95zV3+SS1HmUP4jbL7DC6xcC0RVrPwj3inNSMfkFVoT8KmSKj+DwC6yI+O+vz9Ag7vOGq89zaRDNA+eC8DbM9AiE/D+dpJXm0P7FwAAAAABJRU5ErkJggg==;" parent="1" vertex="1">
          <mxGeometry x="410" y="80" width="88" height="38" as="geometry"/>
        </mxCell>
        <mxCell id="r2lIPMXVaygreJaPk6Gy-13" style="edgeStyle=orthogonalEdgeStyle;rounded=0;orthogonalLoop=1;jettySize=auto;html=1;" parent="1" source="r2lIPMXVaygreJaPk6Gy-12" target="r2lIPMXVaygreJaPk6Gy-11" edge="1">
          <mxGeometry relative="1" as="geometry"/>
        </mxCell>
        <mxCell id="r2lIPMXVaygreJaPk6Gy-12" value="&lt;div&gt;VCOp61090710&lt;/div&gt;&lt;div&gt;010024&lt;/div&gt;&lt;div&gt;&lt;br&gt;&lt;/div&gt;" style="rounded=1;whiteSpace=wrap;html=1;fillColor=#d5e8d4;strokeColor=#82b366;" parent="1" vertex="1">
          <mxGeometry x="240" y="78" width="120" height="40" as="geometry"/>
        </mxCell>
        <mxCell id="r2lIPMXVaygreJaPk6Gy-14" value="" style="shape=image;verticalLabelPosition=bottom;labelBackgroundColor=#ffffff;verticalAlign=top;aspect=fixed;imageAspect=0;image=data:image/png,iVBORw0KGgoAAAANSUhEUgAAAFcAAAA1CAIAAAC7luBqAAAABmJLR0QAAAAAAAD5Q7t/AAAACXBIWXMAABJ0AAASdAHeZh94AAACEUlEQVR4nO2ZUW7DIAyGfd2pZ+xeJvUCk3qdjCxSZIExtgFDEb94yFzC7C/EdikAq/fvm59Qo+f38/H1qB9hnX5OntoUTm0KpzaFU5vCqU2hu4L3rcboUOpUvx0+HsGlGhCLILhkA7EUgksGEPNSOASWnFQgXBFoK+WRhJ1aGE1aFGwUDtYiF374pgUayUzhyFvkmoWCVkcSdmqRaxEK5JBrEQqkRa4VKOQscn08Bc7SWd4xp5L0C10d7bK4oVKWLf+OdtoFThReP68wJLUgHeFGTKGtqwMoaFnct/RzdxgFCYtoMna38nwlqiCDKeRYkNNId22FMLprCgqYBTOBdLcTBVVabUmhOMKCnhQMyxJSUeDfhSF7AWQ7og0FSV7UUkjzn5lCIUiDVAWCrxFkPFHY+CLCMQUFbb9UpEA+c9Jyz8d2AwXslZqCKv6IRY5CLjUw9koK0Q711nAKZLbyVuRcmgKweCP+dBEKkMkCjMVAIVe5OPX45R47Vwyb/xNbJBSYLoaTPwXIP21+8moUgHrzizPvZYPP1yhSaBKOUbdzfOOMmwLJTMNeqImiVkIKQPWLuWkgoDBFaUid633KIqQwuFI67wXIvBFTUzDnBW12HN819agR5D+6ZKSw+4VTi/WOMGcHDe7fI8BQMj0pzPud0oECzH/KsjAFkJ+4uVGAEeeOUnlSuK8xDnwRYWpI4Q/5ivctKw2BxAAAAABJRU5ErkJggg==;" parent="1" vertex="1">
          <mxGeometry x="408" y="340" width="87" height="53" as="geometry"/>
        </mxCell>
        <mxCell id="r2lIPMXVaygreJaPk6Gy-16" style="edgeStyle=orthogonalEdgeStyle;rounded=0;orthogonalLoop=1;jettySize=auto;html=1;" parent="1" source="r2lIPMXVaygreJaPk6Gy-15" target="r2lIPMXVaygreJaPk6Gy-14" edge="1">
          <mxGeometry relative="1" as="geometry"/>
        </mxCell>
        <mxCell id="r2lIPMXVaygreJaPk6Gy-15" value="&lt;div&gt;VCOp61090722&lt;/div&gt;&lt;div&gt;010070&lt;/div&gt;&lt;div&gt;&lt;br&gt;&lt;/div&gt;" style="rounded=1;whiteSpace=wrap;html=1;fillColor=#d5e8d4;strokeColor=#82b366;" parent="1" vertex="1">
          <mxGeometry x="238" y="353" width="120" height="40" as="geometry"/>
        </mxCell>
        <mxCell id="r2lIPMXVaygreJaPk6Gy-29" value="&lt;div&gt;C61&lt;br&gt;&lt;/div&gt;&lt;div&gt;Powder mixer &lt;br&gt;&lt;/div&gt;&lt;div&gt;Ready&lt;/div&gt;" style="rounded=1;whiteSpace=wrap;html=1;" parent="1" vertex="1">
          <mxGeometry x="495" y="702" width="120" height="43" as="geometry"/>
        </mxCell>
        <mxCell id="r2lIPMXVaygreJaPk6Gy-31" value="Оператор закидывает мешки и нажимает кнопку старт" style="rounded=0;whiteSpace=wrap;html=1;" parent="1" vertex="1">
          <mxGeometry x="640" y="660" width="120" height="60" as="geometry"/>
        </mxCell>
        <mxCell id="r2lIPMXVaygreJaPk6Gy-33" value="&lt;div&gt;Старт мотора&lt;/div&gt;&lt;div&gt;M0701&lt;br&gt;&lt;/div&gt;" style="rounded=1;whiteSpace=wrap;html=1;" parent="1" vertex="1">
          <mxGeometry x="495" y="650" width="113" height="40" as="geometry"/>
        </mxCell>
        <mxCell id="r2lIPMXVaygreJaPk6Gy-63" value="" style="endArrow=none;dashed=1;html=1;" parent="1" edge="1">
          <mxGeometry width="50" height="50" relative="1" as="geometry">
            <mxPoint x="240" y="1760" as="sourcePoint"/>
            <mxPoint x="240" y="856" as="targetPoint"/>
          </mxGeometry>
        </mxCell>
        <mxCell id="r2lIPMXVaygreJaPk6Gy-64" value="" style="endArrow=none;dashed=1;html=1;" parent="1" edge="1">
          <mxGeometry width="50" height="50" relative="1" as="geometry">
            <mxPoint x="280" y="1760" as="sourcePoint"/>
            <mxPoint x="280" y="856" as="targetPoint"/>
          </mxGeometry>
        </mxCell>
        <mxCell id="r2lIPMXVaygreJaPk6Gy-65" value="" style="endArrow=none;dashed=1;html=1;" parent="1" edge="1">
          <mxGeometry width="50" height="50" relative="1" as="geometry">
            <mxPoint x="320" y="1760" as="sourcePoint"/>
            <mxPoint x="320" y="856" as="targetPoint"/>
          </mxGeometry>
        </mxCell>
        <mxCell id="r2lIPMXVaygreJaPk6Gy-66" value="" style="endArrow=none;dashed=1;html=1;" parent="1" edge="1">
          <mxGeometry width="50" height="50" relative="1" as="geometry">
            <mxPoint x="360" y="1760" as="sourcePoint"/>
            <mxPoint x="360" y="856" as="targetPoint"/>
          </mxGeometry>
        </mxCell>
        <mxCell id="r2lIPMXVaygreJaPk6Gy-67" value="" style="endArrow=none;dashed=1;html=1;" parent="1" edge="1">
          <mxGeometry width="50" height="50" relative="1" as="geometry">
            <mxPoint x="400" y="1760" as="sourcePoint"/>
            <mxPoint x="400" y="856" as="targetPoint"/>
          </mxGeometry>
        </mxCell>
        <mxCell id="r2lIPMXVaygreJaPk6Gy-68" value="" style="endArrow=none;dashed=1;html=1;" parent="1" edge="1">
          <mxGeometry width="50" height="50" relative="1" as="geometry">
            <mxPoint x="440" y="1760" as="sourcePoint"/>
            <mxPoint x="440" y="856" as="targetPoint"/>
          </mxGeometry>
        </mxCell>
        <mxCell id="r2lIPMXVaygreJaPk6Gy-69" value="" style="endArrow=none;dashed=1;html=1;" parent="1" edge="1">
          <mxGeometry width="50" height="50" relative="1" as="geometry">
            <mxPoint x="480" y="1760" as="sourcePoint"/>
            <mxPoint x="480" y="856" as="targetPoint"/>
          </mxGeometry>
        </mxCell>
        <mxCell id="r2lIPMXVaygreJaPk6Gy-70" value="" style="endArrow=none;dashed=1;html=1;" parent="1" edge="1">
          <mxGeometry width="50" height="50" relative="1" as="geometry">
            <mxPoint x="520" y="1760" as="sourcePoint"/>
            <mxPoint x="520" y="856" as="targetPoint"/>
          </mxGeometry>
        </mxCell>
        <mxCell id="r2lIPMXVaygreJaPk6Gy-71" value="" style="endArrow=none;dashed=1;html=1;" parent="1" edge="1">
          <mxGeometry width="50" height="50" relative="1" as="geometry">
            <mxPoint x="560" y="1760" as="sourcePoint"/>
            <mxPoint x="560" y="856" as="targetPoint"/>
          </mxGeometry>
        </mxCell>
        <mxCell id="r2lIPMXVaygreJaPk6Gy-72" value="" style="endArrow=none;dashed=1;html=1;" parent="1" edge="1">
          <mxGeometry width="50" height="50" relative="1" as="geometry">
            <mxPoint x="600" y="1760" as="sourcePoint"/>
            <mxPoint x="600" y="856" as="targetPoint"/>
          </mxGeometry>
        </mxCell>
        <mxCell id="r2lIPMXVaygreJaPk6Gy-73" value="" style="endArrow=none;html=1;" parent="1" edge="1">
          <mxGeometry width="50" height="50" relative="1" as="geometry">
            <mxPoint x="238" y="920" as="sourcePoint"/>
            <mxPoint x="600" y="920" as="targetPoint"/>
          </mxGeometry>
        </mxCell>
        <mxCell id="r2lIPMXVaygreJaPk6Gy-75" value="SP_Start_filling_mixer" style="text;html=1;resizable=0;points=[];autosize=1;align=left;verticalAlign=top;spacingTop=-4;" parent="1" vertex="1">
          <mxGeometry x="115" y="910" width="130" height="20" as="geometry"/>
        </mxCell>
        <mxCell id="r2lIPMXVaygreJaPk6Gy-76" value="SP_Stop_filling_mixer" style="text;html=1;" parent="1" vertex="1">
          <mxGeometry x="110" y="856" width="140" height="30" as="geometry"/>
        </mxCell>
        <mxCell id="r2lIPMXVaygreJaPk6Gy-77" value="" style="endArrow=none;html=1;" parent="1" edge="1">
          <mxGeometry width="50" height="50" relative="1" as="geometry">
            <mxPoint x="238" y="869.5" as="sourcePoint"/>
            <mxPoint x="600" y="869.5" as="targetPoint"/>
          </mxGeometry>
        </mxCell>
        <mxCell id="r2lIPMXVaygreJaPk6Gy-80" value="W0713.PV" style="text;html=1;" parent="1" vertex="1">
          <mxGeometry x="130" y="930" width="60" height="30" as="geometry"/>
        </mxCell>
        <mxCell id="r2lIPMXVaygreJaPk6Gy-81" value="" style="endArrow=none;html=1;" parent="1" edge="1">
          <mxGeometry width="50" height="50" relative="1" as="geometry">
            <mxPoint x="240" y="940" as="sourcePoint"/>
            <mxPoint x="320" y="940" as="targetPoint"/>
          </mxGeometry>
        </mxCell>
        <mxCell id="r2lIPMXVaygreJaPk6Gy-82" value="Request_Powder_Mixer" style="text;html=1;" parent="1" vertex="1">
          <mxGeometry x="95" y="950" width="150" height="30" as="geometry"/>
        </mxCell>
        <mxCell id="r2lIPMXVaygreJaPk6Gy-83" value="" style="endArrow=none;html=1;exitX=1;exitY=0.25;exitDx=0;exitDy=0;strokeWidth=3;" parent="1" edge="1">
          <mxGeometry width="50" height="50" relative="1" as="geometry">
            <mxPoint x="240" y="959.5" as="sourcePoint"/>
            <mxPoint x="430" y="960" as="targetPoint"/>
          </mxGeometry>
        </mxCell>
        <mxCell id="r2lIPMXVaygreJaPk6Gy-86" value="Text" style="text;html=1;resizable=0;points=[];autosize=1;align=left;verticalAlign=top;spacingTop=-4;" parent="1" vertex="1">
          <mxGeometry x="283" y="746" width="40" height="20" as="geometry"/>
        </mxCell>
        <mxCell id="r2lIPMXVaygreJaPk6Gy-90" value="Btn_start" style="text;html=1;" parent="1" vertex="1">
          <mxGeometry x="170" y="1032" width="60" height="20" as="geometry"/>
        </mxCell>
        <mxCell id="r2lIPMXVaygreJaPk6Gy-91" value="" style="endArrow=none;html=1;exitX=1;exitY=0.25;exitDx=0;exitDy=0;strokeWidth=3;" parent="1" edge="1">
          <mxGeometry width="50" height="50" relative="1" as="geometry">
            <mxPoint x="238.0000000000001" y="1040.5" as="sourcePoint"/>
            <mxPoint x="318" y="1041" as="targetPoint"/>
          </mxGeometry>
        </mxCell>
        <mxCell id="r2lIPMXVaygreJaPk6Gy-92" value="" style="endArrow=none;html=1;exitX=1;exitY=0.25;exitDx=0;exitDy=0;strokeWidth=3;" parent="1" edge="1">
          <mxGeometry width="50" height="50" relative="1" as="geometry">
            <mxPoint x="320.0000000000001" y="1040.5" as="sourcePoint"/>
            <mxPoint x="320" y="1000" as="targetPoint"/>
          </mxGeometry>
        </mxCell>
        <mxCell id="r2lIPMXVaygreJaPk6Gy-93" value="" style="endArrow=none;html=1;strokeWidth=3;" parent="1" edge="1">
          <mxGeometry width="50" height="50" relative="1" as="geometry">
            <mxPoint x="320" y="1001" as="sourcePoint"/>
            <mxPoint x="340" y="1001" as="targetPoint"/>
          </mxGeometry>
        </mxCell>
        <mxCell id="r2lIPMXVaygreJaPk6Gy-94" value="" style="endArrow=none;html=1;exitX=1;exitY=0.25;exitDx=0;exitDy=0;strokeWidth=3;" parent="1" edge="1">
          <mxGeometry width="50" height="50" relative="1" as="geometry">
            <mxPoint x="340.0000000000001" y="1042" as="sourcePoint"/>
            <mxPoint x="340" y="1000.5" as="targetPoint"/>
          </mxGeometry>
        </mxCell>
        <mxCell id="r2lIPMXVaygreJaPk6Gy-95" value="" style="endArrow=none;html=1;exitX=1;exitY=0.25;exitDx=0;exitDy=0;strokeWidth=3;" parent="1" edge="1">
          <mxGeometry width="50" height="50" relative="1" as="geometry">
            <mxPoint x="340.0000000000001" y="1041" as="sourcePoint"/>
            <mxPoint x="580" y="1042" as="targetPoint"/>
          </mxGeometry>
        </mxCell>
        <mxCell id="r2lIPMXVaygreJaPk6Gy-96" value="" style="endArrow=none;html=1;exitX=1;exitY=0.25;exitDx=0;exitDy=0;strokeWidth=3;" parent="1" edge="1">
          <mxGeometry width="50" height="50" relative="1" as="geometry">
            <mxPoint x="239.0000000000001" y="1198.5" as="sourcePoint"/>
            <mxPoint x="320" y="1199" as="targetPoint"/>
          </mxGeometry>
        </mxCell>
        <mxCell id="r2lIPMXVaygreJaPk6Gy-97" value="Start_filling_mixer" style="text;html=1;" parent="1" vertex="1">
          <mxGeometry x="115" y="1184" width="120" height="30" as="geometry"/>
        </mxCell>
        <mxCell id="r2lIPMXVaygreJaPk6Gy-98" value="" style="endArrow=none;html=1;exitX=1;exitY=0.25;exitDx=0;exitDy=0;strokeWidth=3;" parent="1" edge="1">
          <mxGeometry width="50" height="50" relative="1" as="geometry">
            <mxPoint x="322.5" y="1200" as="sourcePoint"/>
            <mxPoint x="322.5" y="1158.5" as="targetPoint"/>
          </mxGeometry>
        </mxCell>
        <mxCell id="r2lIPMXVaygreJaPk6Gy-99" value="" style="endArrow=none;html=1;exitX=1;exitY=0.25;exitDx=0;exitDy=0;strokeWidth=3;" parent="1" edge="1">
          <mxGeometry width="50" height="50" relative="1" as="geometry">
            <mxPoint x="323" y="1159" as="sourcePoint"/>
            <mxPoint x="403" y="1159.4999999999998" as="targetPoint"/>
          </mxGeometry>
        </mxCell>
        <mxCell id="r2lIPMXVaygreJaPk6Gy-100" value="" style="endArrow=none;html=1;" parent="1" edge="1">
          <mxGeometry width="50" height="50" relative="1" as="geometry">
            <mxPoint x="318" y="940" as="sourcePoint"/>
            <mxPoint x="450" y="860" as="targetPoint"/>
          </mxGeometry>
        </mxCell>
        <mxCell id="r2lIPMXVaygreJaPk6Gy-103" value="" style="endArrow=none;html=1;" parent="1" edge="1">
          <mxGeometry width="50" height="50" relative="1" as="geometry">
            <mxPoint x="450" y="860" as="sourcePoint"/>
            <mxPoint x="490" y="860" as="targetPoint"/>
          </mxGeometry>
        </mxCell>
        <mxCell id="r2lIPMXVaygreJaPk6Gy-105" value="" style="endArrow=none;html=1;exitX=1;exitY=0.25;exitDx=0;exitDy=0;strokeWidth=3;" parent="1" edge="1">
          <mxGeometry width="50" height="50" relative="1" as="geometry">
            <mxPoint x="431.0000000000001" y="1001" as="sourcePoint"/>
            <mxPoint x="431" y="959.5" as="targetPoint"/>
          </mxGeometry>
        </mxCell>
        <mxCell id="r2lIPMXVaygreJaPk6Gy-106" value="" style="endArrow=none;html=1;strokeWidth=3;" parent="1" edge="1">
          <mxGeometry width="50" height="50" relative="1" as="geometry">
            <mxPoint x="430" y="1000" as="sourcePoint"/>
            <mxPoint x="550" y="1000" as="targetPoint"/>
          </mxGeometry>
        </mxCell>
        <mxCell id="r2lIPMXVaygreJaPk6Gy-107" value="" style="endArrow=none;html=1;exitX=1;exitY=0.25;exitDx=0;exitDy=0;strokeWidth=3;" parent="1" edge="1">
          <mxGeometry width="50" height="50" relative="1" as="geometry">
            <mxPoint x="323" y="1159" as="sourcePoint"/>
            <mxPoint x="430" y="1159" as="targetPoint"/>
          </mxGeometry>
        </mxCell>
        <mxCell id="r2lIPMXVaygreJaPk6Gy-108" value="" style="endArrow=none;html=1;exitX=1;exitY=0.25;exitDx=0;exitDy=0;strokeWidth=3;" parent="1" edge="1">
          <mxGeometry width="50" height="50" relative="1" as="geometry">
            <mxPoint x="238.0000000000001" y="1079.5" as="sourcePoint"/>
            <mxPoint x="600" y="1080" as="targetPoint"/>
          </mxGeometry>
        </mxCell>
        <mxCell id="r2lIPMXVaygreJaPk6Gy-109" value="AUTO-START" style="text;html=1;" parent="1" vertex="1">
          <mxGeometry x="160" y="1065" width="120" height="30" as="geometry"/>
        </mxCell>
        <mxCell id="r2lIPMXVaygreJaPk6Gy-113" value="" style="endArrow=none;html=1;exitX=1;exitY=0.25;exitDx=0;exitDy=0;strokeWidth=3;" parent="1" edge="1">
          <mxGeometry width="50" height="50" relative="1" as="geometry">
            <mxPoint x="430" y="1200" as="sourcePoint"/>
            <mxPoint x="430" y="1158.5" as="targetPoint"/>
          </mxGeometry>
        </mxCell>
        <mxCell id="r2lIPMXVaygreJaPk6Gy-114" value="" style="endArrow=none;html=1;strokeWidth=3;" parent="1" edge="1">
          <mxGeometry width="50" height="50" relative="1" as="geometry">
            <mxPoint x="429" y="1199" as="sourcePoint"/>
            <mxPoint x="550" y="1199" as="targetPoint"/>
          </mxGeometry>
        </mxCell>
        <mxCell id="r2lIPMXVaygreJaPk6Gy-115" value="Mixer_Powder_fill_Ready" style="text;html=1;resizable=0;points=[];autosize=1;align=left;verticalAlign=top;spacingTop=-4;" parent="1" vertex="1">
          <mxGeometry x="80" y="1247.857142857143" width="150" height="20" as="geometry"/>
        </mxCell>
        <mxCell id="r2lIPMXVaygreJaPk6Gy-118" value="" style="endArrow=none;html=1;exitX=1;exitY=0.25;exitDx=0;exitDy=0;strokeWidth=3;" parent="1" edge="1">
          <mxGeometry width="50" height="50" relative="1" as="geometry">
            <mxPoint x="240" y="1279.7142857142858" as="sourcePoint"/>
            <mxPoint x="430" y="1280.2142857142858" as="targetPoint"/>
          </mxGeometry>
        </mxCell>
        <mxCell id="r2lIPMXVaygreJaPk6Gy-119" value="" style="endArrow=none;html=1;exitX=1;exitY=0.25;exitDx=0;exitDy=0;strokeWidth=3;" parent="1" edge="1">
          <mxGeometry width="50" height="50" relative="1" as="geometry">
            <mxPoint x="430" y="1278.7142857142858" as="sourcePoint"/>
            <mxPoint x="430" y="1237.2142857142858" as="targetPoint"/>
          </mxGeometry>
        </mxCell>
        <mxCell id="r2lIPMXVaygreJaPk6Gy-120" value="" style="endArrow=none;html=1;exitX=1;exitY=0.25;exitDx=0;exitDy=0;strokeWidth=3;" parent="1" edge="1">
          <mxGeometry width="50" height="50" relative="1" as="geometry">
            <mxPoint x="430" y="1240.2142857142858" as="sourcePoint"/>
            <mxPoint x="550" y="1241" as="targetPoint"/>
          </mxGeometry>
        </mxCell>
        <mxCell id="r2lIPMXVaygreJaPk6Gy-121" value="Mixing Time" style="text;html=1;resizable=0;points=[];autosize=1;align=left;verticalAlign=top;spacingTop=-4;" parent="1" vertex="1">
          <mxGeometry x="150" y="1346.357142857143" width="80" height="20" as="geometry"/>
        </mxCell>
        <mxCell id="r2lIPMXVaygreJaPk6Gy-122" value="" style="endArrow=none;html=1;strokeWidth=3;" parent="1" edge="1">
          <mxGeometry width="50" height="50" relative="1" as="geometry">
            <mxPoint x="240" y="1359" as="sourcePoint"/>
            <mxPoint x="438" y="1358.7142857142858" as="targetPoint"/>
          </mxGeometry>
        </mxCell>
        <mxCell id="r2lIPMXVaygreJaPk6Gy-123" value="" style="endArrow=none;html=1;exitX=1;exitY=0.25;exitDx=0;exitDy=0;strokeWidth=3;" parent="1" edge="1">
          <mxGeometry width="50" height="50" relative="1" as="geometry">
            <mxPoint x="438" y="1357.2142857142858" as="sourcePoint"/>
            <mxPoint x="480" y="1320" as="targetPoint"/>
          </mxGeometry>
        </mxCell>
        <mxCell id="r2lIPMXVaygreJaPk6Gy-124" value="" style="endArrow=none;html=1;exitX=1;exitY=0.25;exitDx=0;exitDy=0;strokeWidth=3;" parent="1" edge="1">
          <mxGeometry width="50" height="50" relative="1" as="geometry">
            <mxPoint x="480" y="1320.2142857142858" as="sourcePoint"/>
            <mxPoint x="550" y="1321" as="targetPoint"/>
          </mxGeometry>
        </mxCell>
        <mxCell id="r2lIPMXVaygreJaPk6Gy-125" value="Mixer_Ready" style="text;html=1;resizable=0;points=[];autosize=1;align=left;verticalAlign=top;spacingTop=-4;" parent="1" vertex="1">
          <mxGeometry x="155" y="1429.857142857143" width="80" height="20" as="geometry"/>
        </mxCell>
        <mxCell id="r2lIPMXVaygreJaPk6Gy-126" value="" style="endArrow=none;html=1;strokeWidth=3;" parent="1" edge="1">
          <mxGeometry width="50" height="50" relative="1" as="geometry">
            <mxPoint x="240" y="1440" as="sourcePoint"/>
            <mxPoint x="481" y="1440.2142857142858" as="targetPoint"/>
          </mxGeometry>
        </mxCell>
        <mxCell id="r2lIPMXVaygreJaPk6Gy-127" value="" style="endArrow=none;html=1;exitX=1;exitY=0.25;exitDx=0;exitDy=0;strokeWidth=3;" parent="1" edge="1">
          <mxGeometry width="50" height="50" relative="1" as="geometry">
            <mxPoint x="481" y="1438.7142857142858" as="sourcePoint"/>
            <mxPoint x="481" y="1397.2142857142858" as="targetPoint"/>
          </mxGeometry>
        </mxCell>
        <mxCell id="r2lIPMXVaygreJaPk6Gy-128" value="" style="endArrow=none;html=1;exitX=1;exitY=0.25;exitDx=0;exitDy=0;strokeWidth=3;" parent="1" edge="1">
          <mxGeometry width="50" height="50" relative="1" as="geometry">
            <mxPoint x="481" y="1400.2142857142858" as="sourcePoint"/>
            <mxPoint x="550" y="1401" as="targetPoint"/>
          </mxGeometry>
        </mxCell>
        <mxCell id="r2lIPMXVaygreJaPk6Gy-129" value="Request_From_Reciver" style="text;html=1;resizable=0;points=[];autosize=1;align=left;verticalAlign=top;spacingTop=-4;" parent="1" vertex="1">
          <mxGeometry x="90" y="1513.5" width="140" height="20" as="geometry"/>
        </mxCell>
        <mxCell id="r2lIPMXVaygreJaPk6Gy-130" value="" style="endArrow=none;html=1;strokeWidth=3;" parent="1" edge="1">
          <mxGeometry width="50" height="50" relative="1" as="geometry">
            <mxPoint x="238" y="1519.4999999999998" as="sourcePoint"/>
            <mxPoint x="400" y="1520" as="targetPoint"/>
          </mxGeometry>
        </mxCell>
        <mxCell id="r2lIPMXVaygreJaPk6Gy-131" value="" style="endArrow=none;html=1;exitX=1;exitY=0.25;exitDx=0;exitDy=0;strokeWidth=3;" parent="1" edge="1">
          <mxGeometry width="50" height="50" relative="1" as="geometry">
            <mxPoint x="400" y="1521.7142857142858" as="sourcePoint"/>
            <mxPoint x="400" y="1480.214285714286" as="targetPoint"/>
          </mxGeometry>
        </mxCell>
        <mxCell id="r2lIPMXVaygreJaPk6Gy-132" value="" style="endArrow=none;html=1;strokeWidth=3;" parent="1" edge="1">
          <mxGeometry width="50" height="50" relative="1" as="geometry">
            <mxPoint x="400" y="1480" as="sourcePoint"/>
            <mxPoint x="600" y="1480" as="targetPoint"/>
          </mxGeometry>
        </mxCell>
        <mxCell id="r2lIPMXVaygreJaPk6Gy-133" value="Request_to_Blower" style="text;html=1;resizable=0;points=[];autosize=1;align=left;verticalAlign=top;spacingTop=-4;" parent="1" vertex="1">
          <mxGeometry x="120" y="1589" width="120" height="20" as="geometry"/>
        </mxCell>
        <mxCell id="r2lIPMXVaygreJaPk6Gy-134" value="" style="endArrow=none;html=1;strokeWidth=3;" parent="1" edge="1">
          <mxGeometry width="50" height="50" relative="1" as="geometry">
            <mxPoint x="240" y="1599.9999999999998" as="sourcePoint"/>
            <mxPoint x="481" y="1600.2142857142858" as="targetPoint"/>
          </mxGeometry>
        </mxCell>
        <mxCell id="r2lIPMXVaygreJaPk6Gy-135" value="" style="endArrow=none;html=1;exitX=1;exitY=0.25;exitDx=0;exitDy=0;strokeWidth=3;" parent="1" edge="1">
          <mxGeometry width="50" height="50" relative="1" as="geometry">
            <mxPoint x="481" y="1598.7142857142858" as="sourcePoint"/>
            <mxPoint x="481" y="1557.214285714286" as="targetPoint"/>
          </mxGeometry>
        </mxCell>
        <mxCell id="r2lIPMXVaygreJaPk6Gy-136" value="" style="endArrow=none;html=1;exitX=1;exitY=0.25;exitDx=0;exitDy=0;strokeWidth=3;" parent="1" edge="1">
          <mxGeometry width="50" height="50" relative="1" as="geometry">
            <mxPoint x="481" y="1560.2142857142858" as="sourcePoint"/>
            <mxPoint x="651" y="1561" as="targetPoint"/>
          </mxGeometry>
        </mxCell>
        <mxCell id="r2lIPMXVaygreJaPk6Gy-137" value="Blower_is_run" style="text;html=1;resizable=0;points=[];autosize=1;align=left;verticalAlign=top;spacingTop=-4;" parent="1" vertex="1">
          <mxGeometry x="150" y="1668" width="90" height="20" as="geometry"/>
        </mxCell>
        <mxCell id="r2lIPMXVaygreJaPk6Gy-138" value="" style="endArrow=none;html=1;strokeWidth=3;" parent="1" edge="1">
          <mxGeometry width="50" height="50" relative="1" as="geometry">
            <mxPoint x="240" y="1679" as="sourcePoint"/>
            <mxPoint x="481" y="1679" as="targetPoint"/>
          </mxGeometry>
        </mxCell>
        <mxCell id="r2lIPMXVaygreJaPk6Gy-139" value="" style="endArrow=none;html=1;exitX=1;exitY=0.25;exitDx=0;exitDy=0;strokeWidth=3;" parent="1" edge="1">
          <mxGeometry width="50" height="50" relative="1" as="geometry">
            <mxPoint x="484" y="1679.7142857142858" as="sourcePoint"/>
            <mxPoint x="484" y="1638.214285714286" as="targetPoint"/>
          </mxGeometry>
        </mxCell>
        <mxCell id="r2lIPMXVaygreJaPk6Gy-140" value="" style="endArrow=none;html=1;exitX=1;exitY=0.25;exitDx=0;exitDy=0;strokeWidth=3;" parent="1" edge="1">
          <mxGeometry width="50" height="50" relative="1" as="geometry">
            <mxPoint x="482" y="1639.2142857142858" as="sourcePoint"/>
            <mxPoint x="652" y="1640" as="targetPoint"/>
          </mxGeometry>
        </mxCell>
        <mxCell id="r2lIPMXVaygreJaPk6Gy-141" value="" style="endArrow=none;html=1;" parent="1" edge="1">
          <mxGeometry width="50" height="50" relative="1" as="geometry">
            <mxPoint x="488.5" y="860" as="sourcePoint"/>
            <mxPoint x="563" y="930" as="targetPoint"/>
          </mxGeometry>
        </mxCell>
        <mxCell id="r2lIPMXVaygreJaPk6Gy-142" value="" style="endArrow=none;html=1;exitX=1;exitY=0.25;exitDx=0;exitDy=0;strokeWidth=3;" parent="1" edge="1">
          <mxGeometry width="50" height="50" relative="1" as="geometry">
            <mxPoint x="550" y="1001" as="sourcePoint"/>
            <mxPoint x="550" y="959.5" as="targetPoint"/>
          </mxGeometry>
        </mxCell>
        <mxCell id="r2lIPMXVaygreJaPk6Gy-143" value="" style="endArrow=none;html=1;exitX=1;exitY=0.25;exitDx=0;exitDy=0;strokeWidth=3;" parent="1" edge="1">
          <mxGeometry width="50" height="50" relative="1" as="geometry">
            <mxPoint x="551.5" y="959.5" as="sourcePoint"/>
            <mxPoint x="600" y="960" as="targetPoint"/>
          </mxGeometry>
        </mxCell>
        <mxCell id="r2lIPMXVaygreJaPk6Gy-144" value="" style="endArrow=none;html=1;strokeWidth=3;" parent="1" edge="1">
          <mxGeometry width="50" height="50" relative="1" as="geometry">
            <mxPoint x="429" y="1199" as="sourcePoint"/>
            <mxPoint x="580" y="1199" as="targetPoint"/>
          </mxGeometry>
        </mxCell>
        <mxCell id="r2lIPMXVaygreJaPk6Gy-145" value="" style="endArrow=none;html=1;strokeWidth=3;" parent="1" edge="1">
          <mxGeometry width="50" height="50" relative="1" as="geometry">
            <mxPoint x="580" y="1001" as="sourcePoint"/>
            <mxPoint x="600" y="1001" as="targetPoint"/>
          </mxGeometry>
        </mxCell>
        <mxCell id="r2lIPMXVaygreJaPk6Gy-146" value="" style="endArrow=none;html=1;exitX=1;exitY=0.25;exitDx=0;exitDy=0;strokeWidth=3;" parent="1" edge="1">
          <mxGeometry width="50" height="50" relative="1" as="geometry">
            <mxPoint x="600" y="1042" as="sourcePoint"/>
            <mxPoint x="600" y="1000.5" as="targetPoint"/>
          </mxGeometry>
        </mxCell>
        <mxCell id="r2lIPMXVaygreJaPk6Gy-147" value="" style="endArrow=none;html=1;exitX=1;exitY=0.25;exitDx=0;exitDy=0;strokeWidth=3;" parent="1" edge="1">
          <mxGeometry width="50" height="50" relative="1" as="geometry">
            <mxPoint x="580" y="1040.5" as="sourcePoint"/>
            <mxPoint x="580" y="1000" as="targetPoint"/>
          </mxGeometry>
        </mxCell>
        <mxCell id="r2lIPMXVaygreJaPk6Gy-148" value="" style="endArrow=none;html=1;strokeWidth=3;" parent="1" edge="1">
          <mxGeometry width="50" height="50" relative="1" as="geometry">
            <mxPoint x="429" y="1199" as="sourcePoint"/>
            <mxPoint x="580" y="1199" as="targetPoint"/>
          </mxGeometry>
        </mxCell>
        <mxCell id="r2lIPMXVaygreJaPk6Gy-149" value="" style="endArrow=none;html=1;exitX=1;exitY=0.25;exitDx=0;exitDy=0;strokeWidth=3;" parent="1" edge="1">
          <mxGeometry width="50" height="50" relative="1" as="geometry">
            <mxPoint x="580" y="1199" as="sourcePoint"/>
            <mxPoint x="580" y="1157.5" as="targetPoint"/>
          </mxGeometry>
        </mxCell>
        <mxCell id="r2lIPMXVaygreJaPk6Gy-150" value="" style="endArrow=none;html=1;exitX=1;exitY=0.25;exitDx=0;exitDy=0;strokeWidth=3;" parent="1" edge="1">
          <mxGeometry width="50" height="50" relative="1" as="geometry">
            <mxPoint x="580.5" y="1158" as="sourcePoint"/>
            <mxPoint x="600" y="1158" as="targetPoint"/>
          </mxGeometry>
        </mxCell>
        <mxCell id="r2lIPMXVaygreJaPk6Gy-151" value="" style="endArrow=none;html=1;" parent="1" edge="1">
          <mxGeometry width="50" height="50" relative="1" as="geometry">
            <mxPoint x="560" y="930" as="sourcePoint"/>
            <mxPoint x="580" y="930" as="targetPoint"/>
          </mxGeometry>
        </mxCell>
        <mxCell id="r2lIPMXVaygreJaPk6Gy-153" value="" style="endArrow=none;html=1;" parent="1" edge="1">
          <mxGeometry width="50" height="50" relative="1" as="geometry">
            <mxPoint x="577" y="930" as="sourcePoint"/>
            <mxPoint x="610" y="910" as="targetPoint"/>
          </mxGeometry>
        </mxCell>
        <mxCell id="r2lIPMXVaygreJaPk6Gy-155" value="" style="endArrow=none;html=1;exitX=1;exitY=0.25;exitDx=0;exitDy=0;strokeWidth=3;" parent="1" edge="1">
          <mxGeometry width="50" height="50" relative="1" as="geometry">
            <mxPoint x="550" y="1278.7142857142858" as="sourcePoint"/>
            <mxPoint x="550" y="1237.2142857142858" as="targetPoint"/>
          </mxGeometry>
        </mxCell>
        <mxCell id="r2lIPMXVaygreJaPk6Gy-156" value="" style="endArrow=none;html=1;strokeWidth=3;" parent="1" edge="1">
          <mxGeometry width="50" height="50" relative="1" as="geometry">
            <mxPoint x="552" y="1281" as="sourcePoint"/>
            <mxPoint x="600" y="1281" as="targetPoint"/>
          </mxGeometry>
        </mxCell>
        <mxCell id="r2lIPMXVaygreJaPk6Gy-157" value="" style="endArrow=none;html=1;exitX=1;exitY=0.25;exitDx=0;exitDy=0;strokeWidth=3;" parent="1" edge="1">
          <mxGeometry width="50" height="50" relative="1" as="geometry">
            <mxPoint x="551" y="1361.7142857142858" as="sourcePoint"/>
            <mxPoint x="551" y="1320.2142857142856" as="targetPoint"/>
          </mxGeometry>
        </mxCell>
        <mxCell id="r2lIPMXVaygreJaPk6Gy-158" value="" style="endArrow=none;html=1;strokeWidth=3;" parent="1" edge="1">
          <mxGeometry width="50" height="50" relative="1" as="geometry">
            <mxPoint x="551.5000000000001" y="1360.5" as="sourcePoint"/>
            <mxPoint x="600" y="1360" as="targetPoint"/>
          </mxGeometry>
        </mxCell>
        <mxCell id="r2lIPMXVaygreJaPk6Gy-161" value="" style="endArrow=none;html=1;exitX=1;exitY=0.25;exitDx=0;exitDy=0;strokeWidth=3;" parent="1" edge="1">
          <mxGeometry width="50" height="50" relative="1" as="geometry">
            <mxPoint x="551" y="1439.7142857142858" as="sourcePoint"/>
            <mxPoint x="551" y="1398.2142857142858" as="targetPoint"/>
          </mxGeometry>
        </mxCell>
        <mxCell id="r2lIPMXVaygreJaPk6Gy-162" value="" style="endArrow=none;html=1;strokeWidth=3;" parent="1" edge="1">
          <mxGeometry width="50" height="50" relative="1" as="geometry">
            <mxPoint x="551.5" y="1440" as="sourcePoint"/>
            <mxPoint x="600" y="1439.5" as="targetPoint"/>
          </mxGeometry>
        </mxCell>
        <mxCell id="zm0U7tuLNW1Q2RoZGp8c-7" style="edgeStyle=orthogonalEdgeStyle;rounded=0;orthogonalLoop=1;jettySize=auto;html=1;strokeWidth=3;entryX=0;entryY=0.5;entryDx=0;entryDy=0;" parent="1" source="zm0U7tuLNW1Q2RoZGp8c-4" target="zm0U7tuLNW1Q2RoZGp8c-5" edge="1">
          <mxGeometry relative="1" as="geometry"/>
        </mxCell>
        <mxCell id="zm0U7tuLNW1Q2RoZGp8c-4" value="&lt;div&gt;016933&lt;/div&gt;&lt;div&gt;HLS_610900720&lt;/div&gt;&lt;div&gt;Hi level switch, manual dump, Hi level&lt;br&gt;&lt;/div&gt;" style="rounded=0;whiteSpace=wrap;html=1;fillColor=#f8cecc;strokeColor=#b85450;" parent="1" vertex="1">
          <mxGeometry x="1270" y="5" width="130" height="72" as="geometry"/>
        </mxCell>
        <mxCell id="zm0U7tuLNW1Q2RoZGp8c-16" style="edgeStyle=orthogonalEdgeStyle;rounded=0;orthogonalLoop=1;jettySize=auto;html=1;entryX=0;entryY=0.5;entryDx=0;entryDy=0;strokeWidth=3;" parent="1" source="zm0U7tuLNW1Q2RoZGp8c-5" target="zm0U7tuLNW1Q2RoZGp8c-15" edge="1">
          <mxGeometry relative="1" as="geometry"/>
        </mxCell>
        <mxCell id="zm0U7tuLNW1Q2RoZGp8c-5" value="&lt;div&gt;014401&lt;/div&gt;&lt;div&gt;HLSA61090720&lt;/div&gt;&lt;div&gt;Hi level alarm, Manual Dump, High level&lt;br&gt;&lt;/div&gt;" style="rounded=1;whiteSpace=wrap;html=1;fillColor=#d5e8d4;strokeColor=#82b366;" parent="1" vertex="1">
          <mxGeometry x="1610" y="9" width="150" height="62" as="geometry"/>
        </mxCell>
        <mxCell id="zm0U7tuLNW1Q2RoZGp8c-13" value="Интерлок 0714" style="rounded=1;whiteSpace=wrap;html=1;fillColor=#fff2cc;strokeColor=#d6b656;" parent="1" vertex="1">
          <mxGeometry x="1885" y="95.5" width="150" height="62" as="geometry"/>
        </mxCell>
        <mxCell id="zm0U7tuLNW1Q2RoZGp8c-6" value="Осли открыт 0714" style="rounded=0;whiteSpace=wrap;html=1;fillColor=#fff2cc;strokeColor=#d6b656;" parent="1" vertex="1">
          <mxGeometry x="1450" y="-115" width="120" height="60" as="geometry"/>
        </mxCell>
        <mxCell id="zm0U7tuLNW1Q2RoZGp8c-12" value="" style="edgeStyle=orthogonalEdgeStyle;rounded=0;orthogonalLoop=1;jettySize=auto;html=1;strokeWidth=3;" parent="1" source="zm0U7tuLNW1Q2RoZGp8c-9" target="zm0U7tuLNW1Q2RoZGp8c-10" edge="1">
          <mxGeometry relative="1" as="geometry"/>
        </mxCell>
        <mxCell id="zm0U7tuLNW1Q2RoZGp8c-9" value="&lt;div&gt;014401&lt;/div&gt;&lt;div&gt;HLSA61090720&lt;/div&gt;&lt;div&gt;Hi level alarm, Manual Dump, High level&lt;br&gt;&lt;/div&gt;" style="rounded=0;whiteSpace=wrap;html=1;fillColor=#d5e8d4;strokeColor=#82b366;" parent="1" vertex="1">
          <mxGeometry x="1280" y="96.5" width="120" height="60" as="geometry"/>
        </mxCell>
        <mxCell id="zm0U7tuLNW1Q2RoZGp8c-11" style="edgeStyle=orthogonalEdgeStyle;rounded=0;orthogonalLoop=1;jettySize=auto;html=1;entryX=0;entryY=0.75;entryDx=0;entryDy=0;strokeWidth=3;" parent="1" source="zm0U7tuLNW1Q2RoZGp8c-10" target="zm0U7tuLNW1Q2RoZGp8c-5" edge="1">
          <mxGeometry relative="1" as="geometry"/>
        </mxCell>
        <mxCell id="zm0U7tuLNW1Q2RoZGp8c-10" value="&lt;div&gt;004123&lt;/div&gt;&lt;div&gt;RST_090000&lt;br&gt;&lt;/div&gt;" style="rounded=0;whiteSpace=wrap;html=1;fillColor=#f8cecc;strokeColor=#b85450;" parent="1" vertex="1">
          <mxGeometry x="1440" y="88" width="130" height="72" as="geometry"/>
        </mxCell>
        <mxCell id="zm0U7tuLNW1Q2RoZGp8c-17" value="" style="edgeStyle=orthogonalEdgeStyle;rounded=0;orthogonalLoop=1;jettySize=auto;html=1;strokeWidth=3;" parent="1" source="zm0U7tuLNW1Q2RoZGp8c-15" target="zm0U7tuLNW1Q2RoZGp8c-13" edge="1">
          <mxGeometry relative="1" as="geometry"/>
        </mxCell>
        <mxCell id="zm0U7tuLNW1Q2RoZGp8c-15" value="&lt;div&gt;014401&lt;/div&gt;&lt;div&gt;HLSA61090720&lt;/div&gt;&lt;div&gt;Hi level alarm, Manual Dump, High level&lt;br&gt;&lt;/div&gt;" style="rounded=0;whiteSpace=wrap;html=1;fillColor=#d5e8d4;strokeColor=#82b366;" parent="1" vertex="1">
          <mxGeometry x="1735" y="100" width="120" height="60" as="geometry"/>
        </mxCell>
        <mxCell id="zm0U7tuLNW1Q2RoZGp8c-19" value="&lt;div&gt;010070&lt;br&gt;&lt;/div&gt;&lt;div&gt;VCOp61090722&lt;/div&gt;&lt;div&gt;Open, Raws, XCV&lt;br&gt;&lt;/div&gt;" style="rounded=1;whiteSpace=wrap;html=1;fillColor=#d5e8d4;strokeColor=#82b366;" parent="1" vertex="1">
          <mxGeometry x="3617.5" y="1244.9117647058824" width="150" height="62" as="geometry"/>
        </mxCell>
        <mxCell id="zm0U7tuLNW1Q2RoZGp8c-20" value="&lt;div&gt;010470&lt;br&gt;&lt;/div&gt;&lt;div&gt;VMOp61090722&lt;/div&gt;&lt;div&gt;Manual Open, Raws, XCV&lt;br&gt;&lt;/div&gt;" style="rounded=1;whiteSpace=wrap;html=1;fillColor=#d5e8d4;strokeColor=#82b366;" parent="1" vertex="1">
          <mxGeometry x="3633.5" y="1374.9117647058824" width="150" height="62" as="geometry"/>
        </mxCell>
        <mxCell id="zm0U7tuLNW1Q2RoZGp8c-22" value="" style="edgeStyle=orthogonalEdgeStyle;rounded=0;orthogonalLoop=1;jettySize=auto;html=1;strokeWidth=3;" parent="1" source="zm0U7tuLNW1Q2RoZGp8c-21" target="zm0U7tuLNW1Q2RoZGp8c-19" edge="1">
          <mxGeometry relative="1" as="geometry"/>
        </mxCell>
        <mxCell id="zm0U7tuLNW1Q2RoZGp8c-21" value="&lt;div&gt;010370&lt;/div&gt;&lt;div&gt;VPOp61090722&lt;/div&gt;&lt;div&gt;Program open, Raws, Valve XCV&lt;br&gt;&lt;/div&gt;" style="rounded=0;whiteSpace=wrap;html=1;fillColor=#d5e8d4;strokeColor=#82b366;" parent="1" vertex="1">
          <mxGeometry x="3438" y="1246.9117647058824" width="120" height="60" as="geometry"/>
        </mxCell>
        <mxCell id="zm0U7tuLNW1Q2RoZGp8c-24" style="edgeStyle=orthogonalEdgeStyle;rounded=0;orthogonalLoop=1;jettySize=auto;html=1;entryX=0;entryY=0.75;entryDx=0;entryDy=0;strokeWidth=3;" parent="1" source="zm0U7tuLNW1Q2RoZGp8c-23" target="zm0U7tuLNW1Q2RoZGp8c-19" edge="1">
          <mxGeometry relative="1" as="geometry"/>
        </mxCell>
        <mxCell id="zm0U7tuLNW1Q2RoZGp8c-25" style="edgeStyle=orthogonalEdgeStyle;rounded=0;orthogonalLoop=1;jettySize=auto;html=1;exitX=1;exitY=0.75;exitDx=0;exitDy=0;entryX=0;entryY=0.5;entryDx=0;entryDy=0;strokeWidth=3;" parent="1" source="zm0U7tuLNW1Q2RoZGp8c-23" target="zm0U7tuLNW1Q2RoZGp8c-20" edge="1">
          <mxGeometry relative="1" as="geometry"/>
        </mxCell>
        <mxCell id="zm0U7tuLNW1Q2RoZGp8c-23" value="&lt;div&gt;010470&lt;/div&gt;&lt;div&gt;VMOp61090722&lt;/div&gt;&lt;div&gt;Manual open, Raws, Valve XCV&lt;br&gt;&lt;/div&gt;" style="rounded=0;whiteSpace=wrap;html=1;fillColor=#d5e8d4;strokeColor=#82b366;" parent="1" vertex="1">
          <mxGeometry x="3438" y="1345.9117647058824" width="120" height="60" as="geometry"/>
        </mxCell>
        <mxCell id="zm0U7tuLNW1Q2RoZGp8c-27" value="" style="edgeStyle=orthogonalEdgeStyle;rounded=0;orthogonalLoop=1;jettySize=auto;html=1;strokeWidth=3;" parent="1" source="zm0U7tuLNW1Q2RoZGp8c-26" target="zm0U7tuLNW1Q2RoZGp8c-23" edge="1">
          <mxGeometry relative="1" as="geometry"/>
        </mxCell>
        <mxCell id="zm0U7tuLNW1Q2RoZGp8c-26" value="&lt;div&gt;011170&lt;/div&gt;&lt;div&gt;Man_61090722&lt;/div&gt;&lt;div&gt;Manual mode, Raws, Valve XCV&lt;br&gt;&lt;/div&gt;" style="rounded=0;whiteSpace=wrap;html=1;fillColor=#d5e8d4;strokeColor=#82b366;" parent="1" vertex="1">
          <mxGeometry x="3278.5" y="1345.9117647058824" width="120" height="60" as="geometry"/>
        </mxCell>
        <mxCell id="zm0U7tuLNW1Q2RoZGp8c-29" value="" style="edgeStyle=orthogonalEdgeStyle;rounded=0;orthogonalLoop=1;jettySize=auto;html=1;strokeWidth=3;" parent="1" source="zm0U7tuLNW1Q2RoZGp8c-28" target="zm0U7tuLNW1Q2RoZGp8c-21" edge="1">
          <mxGeometry relative="1" as="geometry"/>
        </mxCell>
        <mxCell id="zm0U7tuLNW1Q2RoZGp8c-28" value="&lt;div&gt;011070&lt;/div&gt;&lt;div&gt;Prog61090722&lt;/div&gt;&lt;div&gt;Auto mode, Raws, Valve XCV&lt;br&gt;&lt;/div&gt;" style="rounded=0;whiteSpace=wrap;html=1;fillColor=#d5e8d4;strokeColor=#82b366;" parent="1" vertex="1">
          <mxGeometry x="3278.5" y="1248.9117647058824" width="120" height="60" as="geometry"/>
        </mxCell>
        <mxCell id="zm0U7tuLNW1Q2RoZGp8c-31" value="" style="edgeStyle=orthogonalEdgeStyle;rounded=0;orthogonalLoop=1;jettySize=auto;html=1;strokeWidth=3;" parent="1" source="zm0U7tuLNW1Q2RoZGp8c-30" target="zm0U7tuLNW1Q2RoZGp8c-28" edge="1">
          <mxGeometry relative="1" as="geometry"/>
        </mxCell>
        <mxCell id="zm0U7tuLNW1Q2RoZGp8c-32" style="edgeStyle=orthogonalEdgeStyle;rounded=0;orthogonalLoop=1;jettySize=auto;html=1;exitX=1;exitY=0.75;exitDx=0;exitDy=0;entryX=0;entryY=0.5;entryDx=0;entryDy=0;strokeWidth=3;" parent="1" source="zm0U7tuLNW1Q2RoZGp8c-30" target="zm0U7tuLNW1Q2RoZGp8c-26" edge="1">
          <mxGeometry relative="1" as="geometry"/>
        </mxCell>
        <mxCell id="zm0U7tuLNW1Q2RoZGp8c-30" value="&lt;div&gt;012670&lt;/div&gt;&lt;div&gt;VI__61090722&lt;/div&gt;&lt;div&gt;Interlock, Raws, Valve XCV&lt;br&gt;&lt;/div&gt;" style="rounded=0;whiteSpace=wrap;html=1;fillColor=#f8cecc;strokeColor=#b85450;" parent="1" vertex="1">
          <mxGeometry x="3113.5" y="1246.9117647058824" width="120" height="60" as="geometry"/>
        </mxCell>
        <mxCell id="zm0U7tuLNW1Q2RoZGp8c-34" value="" style="edgeStyle=orthogonalEdgeStyle;rounded=0;orthogonalLoop=1;jettySize=auto;html=1;strokeWidth=3;" parent="1" source="zm0U7tuLNW1Q2RoZGp8c-33" target="zm0U7tuLNW1Q2RoZGp8c-30" edge="1">
          <mxGeometry relative="1" as="geometry"/>
        </mxCell>
        <mxCell id="zm0U7tuLNW1Q2RoZGp8c-33" value="&lt;div&gt;012670&lt;/div&gt;&lt;div&gt;VAFb61090722&lt;/div&gt;&lt;div&gt;Feedback alarm, Raws, Valve XCV&lt;br&gt;&lt;/div&gt;" style="rounded=0;whiteSpace=wrap;html=1;fillColor=#f8cecc;strokeColor=#b85450;" parent="1" vertex="1">
          <mxGeometry x="2953.5" y="1244.9117647058824" width="120" height="60" as="geometry"/>
        </mxCell>
        <mxCell id="zm0U7tuLNW1Q2RoZGp8c-36" value="" style="edgeStyle=orthogonalEdgeStyle;rounded=0;orthogonalLoop=1;jettySize=auto;html=1;strokeWidth=3;" parent="1" source="zm0U7tuLNW1Q2RoZGp8c-35" target="zm0U7tuLNW1Q2RoZGp8c-33" edge="1">
          <mxGeometry relative="1" as="geometry"/>
        </mxCell>
        <mxCell id="zm0U7tuLNW1Q2RoZGp8c-35" value="&lt;div&gt;004122&lt;/div&gt;&lt;div&gt;EmSp090000_&lt;/div&gt;&lt;div&gt;EM Stop&lt;br&gt;&lt;/div&gt;" style="rounded=0;whiteSpace=wrap;html=1;fillColor=#f8cecc;strokeColor=#b85450;" parent="1" vertex="1">
          <mxGeometry x="2783.5" y="1246.9117647058824" width="120" height="60" as="geometry"/>
        </mxCell>
        <mxCell id="zm0U7tuLNW1Q2RoZGp8c-38" style="edgeStyle=orthogonalEdgeStyle;rounded=0;orthogonalLoop=1;jettySize=auto;html=1;strokeWidth=3;" parent="1" source="zm0U7tuLNW1Q2RoZGp8c-37" target="zm0U7tuLNW1Q2RoZGp8c-21" edge="1">
          <mxGeometry relative="1" as="geometry"/>
        </mxCell>
        <mxCell id="zm0U7tuLNW1Q2RoZGp8c-37" value="&lt;div&gt;010370&lt;/div&gt;&lt;div&gt;VPOp61090722&lt;/div&gt;&lt;div&gt;Program open, Raws, Valve XCV&lt;br&gt;&lt;/div&gt;" style="rounded=1;whiteSpace=wrap;html=1;fillColor=#d5e8d4;strokeColor=#82b366;" parent="1" vertex="1">
          <mxGeometry x="3323.5" y="1124.9117647058824" width="150" height="62" as="geometry"/>
        </mxCell>
        <mxCell id="zm0U7tuLNW1Q2RoZGp8c-40" value="" style="edgeStyle=orthogonalEdgeStyle;rounded=0;orthogonalLoop=1;jettySize=auto;html=1;strokeWidth=3;" parent="1" source="zm0U7tuLNW1Q2RoZGp8c-39" target="zm0U7tuLNW1Q2RoZGp8c-37" edge="1">
          <mxGeometry relative="1" as="geometry"/>
        </mxCell>
        <mxCell id="zm0U7tuLNW1Q2RoZGp8c-39" value="&lt;div&gt;010066&lt;/div&gt;&lt;div&gt;MCSt61090721&lt;/div&gt;&lt;div&gt;Start, Manual dump&lt;br&gt;&lt;/div&gt;" style="rounded=0;whiteSpace=wrap;html=1;fillColor=#d5e8d4;strokeColor=#82b366;" parent="1" vertex="1">
          <mxGeometry x="3153.5" y="1122.9117647058824" width="120" height="60" as="geometry"/>
        </mxCell>
        <mxCell id="zm0U7tuLNW1Q2RoZGp8c-42" value="" style="edgeStyle=orthogonalEdgeStyle;rounded=0;orthogonalLoop=1;jettySize=auto;html=1;strokeWidth=3;strokeColor=#FF0000;" parent="1" source="zm0U7tuLNW1Q2RoZGp8c-41" target="zm0U7tuLNW1Q2RoZGp8c-39" edge="1">
          <mxGeometry relative="1" as="geometry"/>
        </mxCell>
        <mxCell id="zm0U7tuLNW1Q2RoZGp8c-41" value="&lt;div&gt;005098&lt;/div&gt;&lt;div&gt;Prdc090700_Control&lt;/div&gt;&lt;div&gt;Discharge hopper&lt;br&gt;&lt;/div&gt;" style="rounded=0;whiteSpace=wrap;html=1;fillColor=#d5e8d4;strokeColor=#82b366;" parent="1" vertex="1">
          <mxGeometry x="2983.5" y="1121.4117647058824" width="120" height="60" as="geometry"/>
        </mxCell>
        <mxCell id="zm0U7tuLNW1Q2RoZGp8c-44" style="edgeStyle=orthogonalEdgeStyle;rounded=0;orthogonalLoop=1;jettySize=auto;html=1;exitX=0.5;exitY=1;exitDx=0;exitDy=0;strokeWidth=3;" parent="1" source="zm0U7tuLNW1Q2RoZGp8c-43" target="zm0U7tuLNW1Q2RoZGp8c-41" edge="1">
          <mxGeometry relative="1" as="geometry"/>
        </mxCell>
        <mxCell id="zm0U7tuLNW1Q2RoZGp8c-43" value="&lt;div&gt;005098&lt;/div&gt;&lt;div&gt;Prdc090700_Control&lt;/div&gt;&lt;div&gt;Discharge hopper&lt;br&gt;&lt;/div&gt;" style="rounded=1;whiteSpace=wrap;html=1;fillColor=#d5e8d4;strokeColor=#82b366;" parent="1" vertex="1">
          <mxGeometry x="2893.5" y="1009.9117647058824" width="150" height="62" as="geometry"/>
        </mxCell>
        <mxCell id="zm0U7tuLNW1Q2RoZGp8c-48" value="" style="edgeStyle=orthogonalEdgeStyle;rounded=0;orthogonalLoop=1;jettySize=auto;html=1;strokeWidth=3;" parent="1" source="zm0U7tuLNW1Q2RoZGp8c-45" target="zm0U7tuLNW1Q2RoZGp8c-43" edge="1">
          <mxGeometry relative="1" as="geometry"/>
        </mxCell>
        <mxCell id="zm0U7tuLNW1Q2RoZGp8c-45" value="&lt;div&gt;002781&lt;/div&gt;&lt;div&gt;MACb090703_Combined&lt;/div&gt;&lt;div&gt;Sifter manula dump Slurry&lt;br&gt;&lt;/div&gt;" style="rounded=0;whiteSpace=wrap;html=1;fillColor=#f8cecc;strokeColor=#b85450;" parent="1" vertex="1">
          <mxGeometry x="2723.5" y="1010.9117647058824" width="120" height="60" as="geometry"/>
        </mxCell>
        <mxCell id="zm0U7tuLNW1Q2RoZGp8c-47" value="" style="edgeStyle=orthogonalEdgeStyle;rounded=0;orthogonalLoop=1;jettySize=auto;html=1;strokeWidth=3;" parent="1" source="zm0U7tuLNW1Q2RoZGp8c-46" target="zm0U7tuLNW1Q2RoZGp8c-45" edge="1">
          <mxGeometry relative="1" as="geometry"/>
        </mxCell>
        <mxCell id="zm0U7tuLNW1Q2RoZGp8c-46" value="&lt;div&gt;003709&lt;/div&gt;MACb090701_Combined Manual powder dump Slurry" style="rounded=0;whiteSpace=wrap;html=1;fillColor=#f8cecc;strokeColor=#b85450;" parent="1" vertex="1">
          <mxGeometry x="2563.5" y="1010.9117647058824" width="120" height="60" as="geometry"/>
        </mxCell>
        <mxCell id="zm0U7tuLNW1Q2RoZGp8c-50" style="edgeStyle=orthogonalEdgeStyle;rounded=0;orthogonalLoop=1;jettySize=auto;html=1;exitX=1;exitY=0.5;exitDx=0;exitDy=0;entryX=0;entryY=0.75;entryDx=0;entryDy=0;strokeWidth=3;" parent="1" source="zm0U7tuLNW1Q2RoZGp8c-49" target="zm0U7tuLNW1Q2RoZGp8c-46" edge="1">
          <mxGeometry relative="1" as="geometry"/>
        </mxCell>
        <mxCell id="zm0U7tuLNW1Q2RoZGp8c-49" value="&lt;div&gt;007119&lt;/div&gt;&lt;div&gt;PB3_150200_Stop&lt;/div&gt;&lt;div&gt;Push button Stop Slurry powder dump&lt;br&gt;&lt;/div&gt;" style="rounded=0;whiteSpace=wrap;html=1;fillColor=#d5e8d4;strokeColor=#82b366;" parent="1" vertex="1">
          <mxGeometry x="2393.5" y="1074.9117647058824" width="120" height="60" as="geometry"/>
        </mxCell>
        <mxCell id="zm0U7tuLNW1Q2RoZGp8c-52" value="" style="edgeStyle=orthogonalEdgeStyle;rounded=0;orthogonalLoop=1;jettySize=auto;html=1;strokeWidth=3;" parent="1" source="zm0U7tuLNW1Q2RoZGp8c-51" target="zm0U7tuLNW1Q2RoZGp8c-49" edge="1">
          <mxGeometry relative="1" as="geometry"/>
        </mxCell>
        <mxCell id="zm0U7tuLNW1Q2RoZGp8c-51" value="&lt;div&gt;005098&lt;/div&gt;&lt;div&gt;Prdc090700_Control&lt;/div&gt;&lt;div&gt;Discharge hopper&lt;br&gt;&lt;/div&gt;" style="rounded=0;whiteSpace=wrap;html=1;fillColor=#d5e8d4;strokeColor=#82b366;" parent="1" vertex="1">
          <mxGeometry x="2233.5" y="1074.9117647058824" width="120" height="60" as="geometry"/>
        </mxCell>
        <mxCell id="zm0U7tuLNW1Q2RoZGp8c-55" value="" style="edgeStyle=orthogonalEdgeStyle;rounded=0;orthogonalLoop=1;jettySize=auto;html=1;strokeWidth=3;entryX=0;entryY=0.5;entryDx=0;entryDy=0;" parent="1" source="zm0U7tuLNW1Q2RoZGp8c-53" target="zm0U7tuLNW1Q2RoZGp8c-46" edge="1">
          <mxGeometry relative="1" as="geometry">
            <mxPoint x="2433.5" y="1020.9117647058824" as="targetPoint"/>
          </mxGeometry>
        </mxCell>
        <mxCell id="zm0U7tuLNW1Q2RoZGp8c-53" value="&lt;div&gt;007117&lt;/div&gt;&lt;div&gt;PB1_150200_Ackn_&lt;/div&gt;&lt;div&gt;Push button Operator Acknowledge slurry dump&lt;br&gt;&lt;/div&gt;" style="rounded=0;whiteSpace=wrap;html=1;fillColor=#d5e8d4;strokeColor=#82b366;" parent="1" vertex="1">
          <mxGeometry x="2233.5" y="991" width="120" height="74" as="geometry"/>
        </mxCell>
        <mxCell id="zm0U7tuLNW1Q2RoZGp8c-57" value="" style="edgeStyle=orthogonalEdgeStyle;rounded=0;orthogonalLoop=1;jettySize=auto;html=1;strokeWidth=3;" parent="1" source="zm0U7tuLNW1Q2RoZGp8c-56" target="zm0U7tuLNW1Q2RoZGp8c-53" edge="1">
          <mxGeometry relative="1" as="geometry"/>
        </mxCell>
        <mxCell id="zm0U7tuLNW1Q2RoZGp8c-58" style="edgeStyle=orthogonalEdgeStyle;rounded=0;orthogonalLoop=1;jettySize=auto;html=1;exitX=1;exitY=0.75;exitDx=0;exitDy=0;entryX=0;entryY=0.5;entryDx=0;entryDy=0;strokeWidth=3;" parent="1" source="zm0U7tuLNW1Q2RoZGp8c-56" target="zm0U7tuLNW1Q2RoZGp8c-51" edge="1">
          <mxGeometry relative="1" as="geometry"/>
        </mxCell>
        <mxCell id="zm0U7tuLNW1Q2RoZGp8c-56" value="&lt;div&gt;001081&lt;/div&gt;&lt;div&gt;Prog090703_Auto_Mode&lt;/div&gt;&lt;div&gt;Sifter Manual powder dump Slurry&lt;br&gt;&lt;/div&gt;" style="rounded=0;whiteSpace=wrap;html=1;fillColor=#d5e8d4;strokeColor=#82b366;" parent="1" vertex="1">
          <mxGeometry x="2076.5" y="1004.9117647058824" width="120" height="60" as="geometry"/>
        </mxCell>
        <mxCell id="zm0U7tuLNW1Q2RoZGp8c-60" style="edgeStyle=orthogonalEdgeStyle;rounded=0;orthogonalLoop=1;jettySize=auto;html=1;entryX=0.5;entryY=0;entryDx=0;entryDy=0;strokeWidth=3;" parent="1" source="zm0U7tuLNW1Q2RoZGp8c-59" target="zm0U7tuLNW1Q2RoZGp8c-39" edge="1">
          <mxGeometry relative="1" as="geometry"/>
        </mxCell>
        <mxCell id="zm0U7tuLNW1Q2RoZGp8c-299" style="edgeStyle=orthogonalEdgeStyle;rounded=0;orthogonalLoop=1;jettySize=auto;html=1;entryX=0.5;entryY=0;entryDx=0;entryDy=0;strokeColor=#000000;strokeWidth=3;" parent="1" source="zm0U7tuLNW1Q2RoZGp8c-59" target="zm0U7tuLNW1Q2RoZGp8c-276" edge="1">
          <mxGeometry relative="1" as="geometry"/>
        </mxCell>
        <mxCell id="Zq_oQPXFPzm4FTkXhQ_C-2" style="edgeStyle=orthogonalEdgeStyle;rounded=0;orthogonalLoop=1;jettySize=auto;html=1;exitX=0.75;exitY=1;exitDx=0;exitDy=0;entryX=0;entryY=0.5;entryDx=0;entryDy=0;" parent="1" source="zm0U7tuLNW1Q2RoZGp8c-59" target="Zq_oQPXFPzm4FTkXhQ_C-1" edge="1">
          <mxGeometry relative="1" as="geometry"/>
        </mxCell>
        <mxCell id="zm0U7tuLNW1Q2RoZGp8c-59" value="&lt;div&gt;010066&lt;/div&gt;&lt;div&gt;MCSt61090721&lt;/div&gt;&lt;div&gt;Start, Manual dump&lt;br&gt;&lt;/div&gt;&lt;div&gt;Rotary valve&lt;br&gt;&lt;/div&gt;" style="rounded=1;whiteSpace=wrap;html=1;fillColor=#d5e8d4;strokeColor=#82b366;" parent="1" vertex="1">
          <mxGeometry x="3153.5" y="765.4117647058824" width="150" height="62" as="geometry"/>
        </mxCell>
        <mxCell id="zm0U7tuLNW1Q2RoZGp8c-61" value="&lt;div&gt;010466&lt;/div&gt;&lt;div&gt;MMSt61090721&lt;br&gt;&lt;/div&gt;&lt;div&gt;Manual start, Manual Dump, Rotary valve&lt;br&gt;&lt;/div&gt;" style="rounded=1;whiteSpace=wrap;html=1;fillColor=#d5e8d4;strokeColor=#82b366;" parent="1" vertex="1">
          <mxGeometry x="3033.5" y="882.9117647058824" width="150" height="62" as="geometry"/>
        </mxCell>
        <mxCell id="zm0U7tuLNW1Q2RoZGp8c-66" style="edgeStyle=orthogonalEdgeStyle;rounded=0;orthogonalLoop=1;jettySize=auto;html=1;exitX=1;exitY=0.5;exitDx=0;exitDy=0;entryX=0;entryY=0.5;entryDx=0;entryDy=0;strokeWidth=3;" parent="1" source="zm0U7tuLNW1Q2RoZGp8c-62" target="zm0U7tuLNW1Q2RoZGp8c-59" edge="1">
          <mxGeometry relative="1" as="geometry"/>
        </mxCell>
        <mxCell id="zm0U7tuLNW1Q2RoZGp8c-62" value="MPSt61090721" style="rounded=0;whiteSpace=wrap;html=1;fillColor=#fff2cc;strokeColor=#d6b656;" parent="1" vertex="1">
          <mxGeometry x="2955" y="766.4117647058824" width="120" height="60" as="geometry"/>
        </mxCell>
        <mxCell id="zm0U7tuLNW1Q2RoZGp8c-67" value="" style="edgeStyle=orthogonalEdgeStyle;rounded=0;orthogonalLoop=1;jettySize=auto;html=1;strokeWidth=3;" parent="1" source="zm0U7tuLNW1Q2RoZGp8c-63" target="zm0U7tuLNW1Q2RoZGp8c-62" edge="1">
          <mxGeometry relative="1" as="geometry"/>
        </mxCell>
        <mxCell id="zm0U7tuLNW1Q2RoZGp8c-63" value="&lt;div&gt;011066&lt;/div&gt;&lt;div&gt;Prog61090721&lt;/div&gt;&lt;div&gt;Auto mode, Manual dump, Rotary valve&lt;br&gt;&lt;/div&gt;" style="rounded=0;whiteSpace=wrap;html=1;fillColor=#d5e8d4;strokeColor=#82b366;" parent="1" vertex="1">
          <mxGeometry x="2695" y="765.9117647058824" width="120" height="60" as="geometry"/>
        </mxCell>
        <mxCell id="zm0U7tuLNW1Q2RoZGp8c-72" style="edgeStyle=orthogonalEdgeStyle;rounded=0;orthogonalLoop=1;jettySize=auto;html=1;strokeWidth=3;" parent="1" source="zm0U7tuLNW1Q2RoZGp8c-68" target="zm0U7tuLNW1Q2RoZGp8c-69" edge="1">
          <mxGeometry relative="1" as="geometry"/>
        </mxCell>
        <mxCell id="zm0U7tuLNW1Q2RoZGp8c-68" value="&lt;div&gt;011166&lt;/div&gt;&lt;div&gt;Man_61090721&lt;/div&gt;&lt;div&gt;Manual mode, Manual Dump, Rotary valve&lt;br&gt;&lt;/div&gt;" style="rounded=0;whiteSpace=wrap;html=1;fillColor=#d5e8d4;strokeColor=#82b366;" parent="1" vertex="1">
          <mxGeometry x="2695" y="853.9117647058824" width="120" height="60" as="geometry"/>
        </mxCell>
        <mxCell id="zm0U7tuLNW1Q2RoZGp8c-70" style="edgeStyle=orthogonalEdgeStyle;rounded=0;orthogonalLoop=1;jettySize=auto;html=1;exitX=1;exitY=0.5;exitDx=0;exitDy=0;entryX=0;entryY=0.5;entryDx=0;entryDy=0;strokeWidth=3;" parent="1" source="zm0U7tuLNW1Q2RoZGp8c-69" target="zm0U7tuLNW1Q2RoZGp8c-61" edge="1">
          <mxGeometry relative="1" as="geometry"/>
        </mxCell>
        <mxCell id="zm0U7tuLNW1Q2RoZGp8c-71" style="edgeStyle=orthogonalEdgeStyle;rounded=0;orthogonalLoop=1;jettySize=auto;html=1;exitX=1;exitY=0.25;exitDx=0;exitDy=0;entryX=0;entryY=0.75;entryDx=0;entryDy=0;strokeWidth=3;" parent="1" source="zm0U7tuLNW1Q2RoZGp8c-69" target="zm0U7tuLNW1Q2RoZGp8c-59" edge="1">
          <mxGeometry relative="1" as="geometry"/>
        </mxCell>
        <mxCell id="zm0U7tuLNW1Q2RoZGp8c-69" value="&lt;div&gt;010466&lt;/div&gt;&lt;div&gt;MMSt61090721&lt;br&gt;&lt;/div&gt;&lt;div&gt;Manual start, Manual Dump, Rotary valve&lt;br&gt;&lt;/div&gt;" style="rounded=0;whiteSpace=wrap;html=1;fillColor=#d5e8d4;strokeColor=#82b366;" parent="1" vertex="1">
          <mxGeometry x="2850" y="853.9117647058824" width="120" height="60" as="geometry"/>
        </mxCell>
        <mxCell id="zm0U7tuLNW1Q2RoZGp8c-74" value="" style="edgeStyle=orthogonalEdgeStyle;rounded=0;orthogonalLoop=1;jettySize=auto;html=1;strokeWidth=3;fillColor=#f8cecc;strokeColor=#000000;" parent="1" source="zm0U7tuLNW1Q2RoZGp8c-73" target="zm0U7tuLNW1Q2RoZGp8c-63" edge="1">
          <mxGeometry relative="1" as="geometry"/>
        </mxCell>
        <mxCell id="zm0U7tuLNW1Q2RoZGp8c-75" style="edgeStyle=orthogonalEdgeStyle;rounded=0;orthogonalLoop=1;jettySize=auto;html=1;exitX=1;exitY=0.75;exitDx=0;exitDy=0;entryX=0;entryY=0.5;entryDx=0;entryDy=0;strokeColor=#000000;strokeWidth=3;" parent="1" source="zm0U7tuLNW1Q2RoZGp8c-73" target="zm0U7tuLNW1Q2RoZGp8c-68" edge="1">
          <mxGeometry relative="1" as="geometry"/>
        </mxCell>
        <mxCell id="zm0U7tuLNW1Q2RoZGp8c-73" value="&lt;div&gt;012666&lt;/div&gt;&lt;div&gt;MI__61090721&lt;/div&gt;&lt;div&gt;Interlock, Manual Dump, Rotary valve&lt;br&gt;&lt;/div&gt;" style="rounded=0;whiteSpace=wrap;html=1;fillColor=#f8cecc;strokeColor=#b85450;" parent="1" vertex="1">
          <mxGeometry x="2525" y="767.4117647058824" width="120" height="60" as="geometry"/>
        </mxCell>
        <mxCell id="zm0U7tuLNW1Q2RoZGp8c-77" value="" style="edgeStyle=orthogonalEdgeStyle;rounded=0;orthogonalLoop=1;jettySize=auto;html=1;strokeColor=#000000;strokeWidth=3;" parent="1" source="zm0U7tuLNW1Q2RoZGp8c-76" target="zm0U7tuLNW1Q2RoZGp8c-73" edge="1">
          <mxGeometry relative="1" as="geometry"/>
        </mxCell>
        <mxCell id="zm0U7tuLNW1Q2RoZGp8c-76" value="&lt;div&gt;012766&lt;/div&gt;&lt;div&gt;MACb61090721&lt;/div&gt;&lt;div&gt;Combined alarm, Manual dump, Rotary valve&lt;br&gt;&lt;/div&gt;" style="rounded=0;whiteSpace=wrap;html=1;fillColor=#f8cecc;strokeColor=#b85450;" parent="1" vertex="1">
          <mxGeometry x="2370" y="765.4117647058824" width="120" height="60" as="geometry"/>
        </mxCell>
        <mxCell id="zm0U7tuLNW1Q2RoZGp8c-79" value="" style="edgeStyle=orthogonalEdgeStyle;rounded=0;orthogonalLoop=1;jettySize=auto;html=1;strokeColor=#000000;strokeWidth=3;" parent="1" source="zm0U7tuLNW1Q2RoZGp8c-78" target="zm0U7tuLNW1Q2RoZGp8c-76" edge="1">
          <mxGeometry relative="1" as="geometry"/>
        </mxCell>
        <mxCell id="zm0U7tuLNW1Q2RoZGp8c-78" value="&lt;div&gt;004122&lt;/div&gt;&lt;div&gt;EmSp090000_&lt;/div&gt;&lt;div&gt;EM Stop&lt;br&gt;&lt;/div&gt;" style="rounded=0;whiteSpace=wrap;html=1;fillColor=#f8cecc;strokeColor=#b85450;" parent="1" vertex="1">
          <mxGeometry x="2215" y="763.9117647058824" width="120" height="60" as="geometry"/>
        </mxCell>
        <mxCell id="zm0U7tuLNW1Q2RoZGp8c-85" value="" style="edgeStyle=orthogonalEdgeStyle;rounded=0;orthogonalLoop=1;jettySize=auto;html=1;strokeColor=#000000;strokeWidth=3;" parent="1" source="zm0U7tuLNW1Q2RoZGp8c-80" target="zm0U7tuLNW1Q2RoZGp8c-82" edge="1">
          <mxGeometry relative="1" as="geometry">
            <mxPoint x="2773.5" y="591.9117647058824" as="targetPoint"/>
          </mxGeometry>
        </mxCell>
        <mxCell id="zm0U7tuLNW1Q2RoZGp8c-80" value="&lt;div&gt;Request powder&amp;nbsp; from C11Base&lt;/div&gt;&lt;div&gt;Blower is Run&lt;br&gt;&lt;/div&gt;&lt;div&gt;007637&lt;/div&gt;" style="rounded=0;whiteSpace=wrap;html=1;fillColor=#fff2cc;strokeColor=#d6b656;" parent="1" vertex="1">
          <mxGeometry x="2608.5" y="561.9117647058824" width="120" height="60" as="geometry"/>
        </mxCell>
        <mxCell id="zm0U7tuLNW1Q2RoZGp8c-83" style="edgeStyle=orthogonalEdgeStyle;rounded=0;orthogonalLoop=1;jettySize=auto;html=1;exitX=0.5;exitY=1;exitDx=0;exitDy=0;strokeColor=#000000;strokeWidth=3;" parent="1" source="zm0U7tuLNW1Q2RoZGp8c-82" target="zm0U7tuLNW1Q2RoZGp8c-62" edge="1">
          <mxGeometry relative="1" as="geometry"/>
        </mxCell>
        <mxCell id="zm0U7tuLNW1Q2RoZGp8c-82" value="MPSt61090721" style="rounded=1;whiteSpace=wrap;html=1;fillColor=#fff2cc;strokeColor=#d6b656;" parent="1" vertex="1">
          <mxGeometry x="2939.5" y="562" width="150" height="62" as="geometry"/>
        </mxCell>
        <mxCell id="zm0U7tuLNW1Q2RoZGp8c-88" style="edgeStyle=orthogonalEdgeStyle;rounded=0;orthogonalLoop=1;jettySize=auto;html=1;entryX=0.5;entryY=0;entryDx=0;entryDy=0;strokeColor=#000000;strokeWidth=3;exitX=0.5;exitY=1;exitDx=0;exitDy=0;" parent="1" source="zm0U7tuLNW1Q2RoZGp8c-87" target="zm0U7tuLNW1Q2RoZGp8c-76" edge="1">
          <mxGeometry relative="1" as="geometry">
            <Array as="points">
              <mxPoint x="2370" y="700"/>
              <mxPoint x="2430" y="700"/>
            </Array>
          </mxGeometry>
        </mxCell>
        <mxCell id="zm0U7tuLNW1Q2RoZGp8c-87" value="&lt;div&gt;012766&lt;/div&gt;&lt;div&gt;MACb61090721&lt;/div&gt;&lt;div&gt;Combined alarm, Manual dump, Rotary valve&lt;br&gt;&lt;/div&gt;" style="rounded=1;whiteSpace=wrap;html=1;fillColor=#d5e8d4;strokeColor=#82b366;" parent="1" vertex="1">
          <mxGeometry x="2295" y="607.9117647058824" width="150" height="62" as="geometry"/>
        </mxCell>
        <mxCell id="zm0U7tuLNW1Q2RoZGp8c-91" style="edgeStyle=orthogonalEdgeStyle;rounded=0;orthogonalLoop=1;jettySize=auto;html=1;exitX=0.5;exitY=1;exitDx=0;exitDy=0;entryX=0;entryY=0.5;entryDx=0;entryDy=0;strokeColor=#000000;strokeWidth=3;" parent="1" source="zm0U7tuLNW1Q2RoZGp8c-90" target="zm0U7tuLNW1Q2RoZGp8c-87" edge="1">
          <mxGeometry relative="1" as="geometry"/>
        </mxCell>
        <mxCell id="zm0U7tuLNW1Q2RoZGp8c-90" value="&lt;div&gt;010566&lt;/div&gt;&lt;div&gt;MAFb61090721&lt;/div&gt;&lt;div&gt;FB Alarm, Manual dump, rotary valve&lt;br&gt;&lt;/div&gt;" style="rounded=1;whiteSpace=wrap;html=1;fillColor=#d5e8d4;strokeColor=#82b366;" parent="1" vertex="1">
          <mxGeometry x="2125" y="520.9117647058824" width="150" height="62" as="geometry"/>
        </mxCell>
        <mxCell id="zm0U7tuLNW1Q2RoZGp8c-93" style="edgeStyle=orthogonalEdgeStyle;rounded=0;orthogonalLoop=1;jettySize=auto;html=1;strokeColor=#000000;strokeWidth=3;" parent="1" source="zm0U7tuLNW1Q2RoZGp8c-92" target="zm0U7tuLNW1Q2RoZGp8c-90" edge="1">
          <mxGeometry relative="1" as="geometry"/>
        </mxCell>
        <mxCell id="zm0U7tuLNW1Q2RoZGp8c-92" value="&lt;div&gt;010766&lt;/div&gt;&lt;div&gt;MANr61090721&lt;/div&gt;&lt;div&gt;Not Ready, manual dump, Rotary valve&lt;br&gt;&lt;/div&gt;" style="rounded=0;whiteSpace=wrap;html=1;fillColor=#f8cecc;strokeColor=#b85450;" parent="1" vertex="1">
          <mxGeometry x="1980" y="520.9117647058824" width="120" height="60" as="geometry"/>
        </mxCell>
        <mxCell id="zm0U7tuLNW1Q2RoZGp8c-95" value="" style="edgeStyle=orthogonalEdgeStyle;rounded=0;orthogonalLoop=1;jettySize=auto;html=1;strokeColor=#000000;strokeWidth=3;" parent="1" source="zm0U7tuLNW1Q2RoZGp8c-94" target="zm0U7tuLNW1Q2RoZGp8c-92" edge="1">
          <mxGeometry relative="1" as="geometry"/>
        </mxCell>
        <mxCell id="zm0U7tuLNW1Q2RoZGp8c-94" value="&lt;div&gt;016932&lt;/div&gt;&lt;div&gt;MFSt61090721&lt;/div&gt;&lt;div&gt;FB, Manual dump, Rotary valve&lt;br&gt;&lt;/div&gt;" style="rounded=0;whiteSpace=wrap;html=1;fillColor=#f8cecc;strokeColor=#b85450;" parent="1" vertex="1">
          <mxGeometry x="1810" y="520.9117647058824" width="120" height="60" as="geometry"/>
        </mxCell>
        <mxCell id="zm0U7tuLNW1Q2RoZGp8c-97" style="edgeStyle=orthogonalEdgeStyle;rounded=0;orthogonalLoop=1;jettySize=auto;html=1;entryX=-0.004;entryY=0.651;entryDx=0;entryDy=0;entryPerimeter=0;strokeColor=#000000;strokeWidth=3;" parent="1" source="zm0U7tuLNW1Q2RoZGp8c-96" target="zm0U7tuLNW1Q2RoZGp8c-92" edge="1">
          <mxGeometry relative="1" as="geometry"/>
        </mxCell>
        <mxCell id="zm0U7tuLNW1Q2RoZGp8c-96" value="&lt;div&gt;016932&lt;/div&gt;&lt;div&gt;MFSt61090721&lt;/div&gt;&lt;div&gt;FB, Manual dump, Rotary valve&lt;br&gt;&lt;/div&gt;" style="rounded=0;whiteSpace=wrap;html=1;fillColor=#d5e8d4;strokeColor=#82b366;" parent="1" vertex="1">
          <mxGeometry x="1810" y="591.9117647058824" width="120" height="60" as="geometry"/>
        </mxCell>
        <mxCell id="zm0U7tuLNW1Q2RoZGp8c-100" style="edgeStyle=orthogonalEdgeStyle;rounded=0;orthogonalLoop=1;jettySize=auto;html=1;strokeColor=#000000;strokeWidth=3;" parent="1" source="zm0U7tuLNW1Q2RoZGp8c-98" target="zm0U7tuLNW1Q2RoZGp8c-94" edge="1">
          <mxGeometry relative="1" as="geometry"/>
        </mxCell>
        <mxCell id="zm0U7tuLNW1Q2RoZGp8c-98" value="&lt;div&gt;010066&lt;/div&gt;&lt;div&gt;MCSt61090721&lt;/div&gt;&lt;div&gt;Start, Manual dump&lt;br&gt;&lt;/div&gt;&lt;div&gt;Rotary valve&lt;br&gt;&lt;/div&gt;" style="rounded=0;whiteSpace=wrap;html=1;fillColor=#d5e8d4;strokeColor=#82b366;" parent="1" vertex="1">
          <mxGeometry x="1640" y="520.9117647058824" width="120" height="60" as="geometry"/>
        </mxCell>
        <mxCell id="zm0U7tuLNW1Q2RoZGp8c-101" style="edgeStyle=orthogonalEdgeStyle;rounded=0;orthogonalLoop=1;jettySize=auto;html=1;strokeColor=#000000;strokeWidth=3;" parent="1" source="zm0U7tuLNW1Q2RoZGp8c-99" target="zm0U7tuLNW1Q2RoZGp8c-96" edge="1">
          <mxGeometry relative="1" as="geometry"/>
        </mxCell>
        <mxCell id="zm0U7tuLNW1Q2RoZGp8c-99" value="&lt;div&gt;010066&lt;/div&gt;&lt;div&gt;MCSt61090721&lt;/div&gt;&lt;div&gt;Start, Manual dump&lt;br&gt;&lt;/div&gt;&lt;div&gt;Rotary valve&lt;br&gt;&lt;/div&gt;" style="rounded=0;whiteSpace=wrap;html=1;fillColor=#f8cecc;strokeColor=#b85450;" parent="1" vertex="1">
          <mxGeometry x="1640" y="590.9117647058824" width="120" height="60" as="geometry"/>
        </mxCell>
        <mxCell id="zm0U7tuLNW1Q2RoZGp8c-106" style="edgeStyle=orthogonalEdgeStyle;rounded=0;orthogonalLoop=1;jettySize=auto;html=1;strokeColor=#000000;strokeWidth=3;" parent="1" source="zm0U7tuLNW1Q2RoZGp8c-102" target="zm0U7tuLNW1Q2RoZGp8c-103" edge="1">
          <mxGeometry relative="1" as="geometry"/>
        </mxCell>
        <mxCell id="zm0U7tuLNW1Q2RoZGp8c-102" value="&lt;div&gt;010266&lt;/div&gt;&lt;div&gt;MHSt61090721&lt;/div&gt;&lt;div&gt;Aux bit, Manual dump, Rotary valve&lt;br&gt;&lt;/div&gt;" style="rounded=0;whiteSpace=wrap;html=1;fillColor=#f8cecc;strokeColor=#b85450;" parent="1" vertex="1">
          <mxGeometry x="1320" y="530" width="120" height="60" as="geometry"/>
        </mxCell>
        <mxCell id="zm0U7tuLNW1Q2RoZGp8c-104" style="edgeStyle=orthogonalEdgeStyle;rounded=0;orthogonalLoop=1;jettySize=auto;html=1;entryX=0;entryY=0.5;entryDx=0;entryDy=0;strokeColor=#000000;strokeWidth=3;" parent="1" source="zm0U7tuLNW1Q2RoZGp8c-103" target="zm0U7tuLNW1Q2RoZGp8c-98" edge="1">
          <mxGeometry relative="1" as="geometry"/>
        </mxCell>
        <mxCell id="zm0U7tuLNW1Q2RoZGp8c-105" style="edgeStyle=orthogonalEdgeStyle;rounded=0;orthogonalLoop=1;jettySize=auto;html=1;entryX=0;entryY=0.5;entryDx=0;entryDy=0;strokeColor=#000000;strokeWidth=3;" parent="1" source="zm0U7tuLNW1Q2RoZGp8c-103" target="zm0U7tuLNW1Q2RoZGp8c-99" edge="1">
          <mxGeometry relative="1" as="geometry"/>
        </mxCell>
        <mxCell id="zm0U7tuLNW1Q2RoZGp8c-103" value="&lt;div&gt;Timer&lt;/div&gt;&lt;div&gt;#00050&lt;/div&gt;&lt;div&gt;T0.1&lt;/div&gt;&lt;div&gt;410166&lt;br&gt;&lt;/div&gt;" style="rounded=0;whiteSpace=wrap;html=1;fillColor=#fff2cc;strokeColor=#d6b656;" parent="1" vertex="1">
          <mxGeometry x="1480" y="530" width="120" height="60" as="geometry"/>
        </mxCell>
        <mxCell id="zm0U7tuLNW1Q2RoZGp8c-111" style="edgeStyle=orthogonalEdgeStyle;rounded=0;orthogonalLoop=1;jettySize=auto;html=1;strokeColor=#000000;strokeWidth=3;" parent="1" source="zm0U7tuLNW1Q2RoZGp8c-107" target="zm0U7tuLNW1Q2RoZGp8c-109" edge="1">
          <mxGeometry relative="1" as="geometry"/>
        </mxCell>
        <mxCell id="zm0U7tuLNW1Q2RoZGp8c-107" value="&lt;div&gt;|P|&lt;br&gt;&lt;/div&gt;&lt;div&gt;010066&lt;/div&gt;&lt;div&gt;MCSt61090721&lt;/div&gt;&lt;div&gt;Start, Manual dump&lt;br&gt;&lt;/div&gt;&lt;div&gt;Rotary valve&lt;br&gt;&lt;/div&gt;" style="rounded=0;whiteSpace=wrap;html=1;fillColor=#d5e8d4;strokeColor=#82b366;" parent="1" vertex="1">
          <mxGeometry x="1130" y="353" width="120" height="68" as="geometry"/>
        </mxCell>
        <mxCell id="zm0U7tuLNW1Q2RoZGp8c-113" style="edgeStyle=orthogonalEdgeStyle;rounded=0;orthogonalLoop=1;jettySize=auto;html=1;strokeColor=#000000;strokeWidth=3;" parent="1" source="zm0U7tuLNW1Q2RoZGp8c-109" target="zm0U7tuLNW1Q2RoZGp8c-102" edge="1">
          <mxGeometry relative="1" as="geometry"/>
        </mxCell>
        <mxCell id="zm0U7tuLNW1Q2RoZGp8c-109" value="&lt;div&gt;010266&lt;/div&gt;&lt;div&gt;MHSt61090721&lt;/div&gt;&lt;div&gt;Aux bit, Manual dump, Rotary valve&lt;br&gt;&lt;/div&gt;" style="rounded=1;whiteSpace=wrap;html=1;fillColor=#d5e8d4;strokeColor=#82b366;" parent="1" vertex="1">
          <mxGeometry x="1290" y="355.91176470588243" width="150" height="62" as="geometry"/>
        </mxCell>
        <mxCell id="zm0U7tuLNW1Q2RoZGp8c-112" style="edgeStyle=orthogonalEdgeStyle;rounded=0;orthogonalLoop=1;jettySize=auto;html=1;entryX=0;entryY=0.75;entryDx=0;entryDy=0;strokeColor=#000000;strokeWidth=3;" parent="1" source="zm0U7tuLNW1Q2RoZGp8c-110" target="zm0U7tuLNW1Q2RoZGp8c-109" edge="1">
          <mxGeometry relative="1" as="geometry"/>
        </mxCell>
        <mxCell id="zm0U7tuLNW1Q2RoZGp8c-110" value="&lt;div&gt;|N|&lt;br&gt;&lt;/div&gt;&lt;div&gt;010066&lt;/div&gt;&lt;div&gt;MCSt61090721&lt;/div&gt;&lt;div&gt;Start, Manual dump&lt;br&gt;&lt;/div&gt;&lt;div&gt;Rotary valve&lt;br&gt;&lt;/div&gt;" style="rounded=0;whiteSpace=wrap;html=1;fillColor=#d5e8d4;strokeColor=#82b366;" parent="1" vertex="1">
          <mxGeometry x="1130" y="440" width="120" height="70" as="geometry"/>
        </mxCell>
        <mxCell id="zm0U7tuLNW1Q2RoZGp8c-115" style="edgeStyle=orthogonalEdgeStyle;rounded=0;orthogonalLoop=1;jettySize=auto;html=1;exitX=1;exitY=0.5;exitDx=0;exitDy=0;entryX=0;entryY=0.75;entryDx=0;entryDy=0;strokeColor=#000000;strokeWidth=3;" parent="1" source="zm0U7tuLNW1Q2RoZGp8c-114" target="zm0U7tuLNW1Q2RoZGp8c-92" edge="1">
          <mxGeometry relative="1" as="geometry"/>
        </mxCell>
        <mxCell id="zm0U7tuLNW1Q2RoZGp8c-114" value="&lt;div&gt;010566&lt;/div&gt;&lt;div&gt;MAFb61090721&lt;/div&gt;&lt;div&gt;FB Alarm, Manual dump, rotary valve&lt;br&gt;&lt;/div&gt;" style="rounded=0;whiteSpace=wrap;html=1;fillColor=#d5e8d4;strokeColor=#82b366;" parent="1" vertex="1">
          <mxGeometry x="1810" y="671.9117647058824" width="120" height="60" as="geometry"/>
        </mxCell>
        <mxCell id="zm0U7tuLNW1Q2RoZGp8c-120" style="edgeStyle=orthogonalEdgeStyle;rounded=0;orthogonalLoop=1;jettySize=auto;html=1;entryX=0;entryY=0.75;entryDx=0;entryDy=0;strokeColor=#000000;strokeWidth=3;" parent="1" source="zm0U7tuLNW1Q2RoZGp8c-116" target="zm0U7tuLNW1Q2RoZGp8c-87" edge="1">
          <mxGeometry relative="1" as="geometry">
            <Array as="points">
              <mxPoint x="1980" y="776"/>
              <mxPoint x="1980" y="654"/>
            </Array>
          </mxGeometry>
        </mxCell>
        <mxCell id="zm0U7tuLNW1Q2RoZGp8c-124" style="edgeStyle=orthogonalEdgeStyle;rounded=0;orthogonalLoop=1;jettySize=auto;html=1;exitX=1;exitY=0.75;exitDx=0;exitDy=0;strokeColor=#000000;strokeWidth=3;" parent="1" source="zm0U7tuLNW1Q2RoZGp8c-116" target="zm0U7tuLNW1Q2RoZGp8c-122" edge="1">
          <mxGeometry relative="1" as="geometry"/>
        </mxCell>
        <mxCell id="zm0U7tuLNW1Q2RoZGp8c-116" value="&lt;div&gt;010766&lt;/div&gt;&lt;div&gt;MANr61090721&lt;/div&gt;&lt;div&gt;Not Ready, Manual dump, rotary valve&lt;br&gt;&lt;/div&gt;" style="rounded=0;whiteSpace=wrap;html=1;fillColor=#d5e8d4;strokeColor=#82b366;" parent="1" vertex="1">
          <mxGeometry x="1810" y="745.9117647058824" width="120" height="60" as="geometry"/>
        </mxCell>
        <mxCell id="zm0U7tuLNW1Q2RoZGp8c-118" style="edgeStyle=orthogonalEdgeStyle;rounded=0;orthogonalLoop=1;jettySize=auto;html=1;strokeColor=#000000;strokeWidth=3;" parent="1" source="zm0U7tuLNW1Q2RoZGp8c-117" target="zm0U7tuLNW1Q2RoZGp8c-114" edge="1">
          <mxGeometry relative="1" as="geometry"/>
        </mxCell>
        <mxCell id="zm0U7tuLNW1Q2RoZGp8c-119" style="edgeStyle=orthogonalEdgeStyle;rounded=0;orthogonalLoop=1;jettySize=auto;html=1;exitX=1;exitY=0.75;exitDx=0;exitDy=0;entryX=0;entryY=0.5;entryDx=0;entryDy=0;strokeColor=#000000;strokeWidth=3;" parent="1" source="zm0U7tuLNW1Q2RoZGp8c-117" target="zm0U7tuLNW1Q2RoZGp8c-116" edge="1">
          <mxGeometry relative="1" as="geometry"/>
        </mxCell>
        <mxCell id="zm0U7tuLNW1Q2RoZGp8c-117" value="&lt;div&gt;004123&lt;/div&gt;&lt;div&gt;Rst_090000_&lt;/div&gt;&lt;div&gt;reset failure&lt;br&gt;&lt;/div&gt;" style="rounded=0;whiteSpace=wrap;html=1;fillColor=#f8cecc;strokeColor=#b85450;" parent="1" vertex="1">
          <mxGeometry x="1580" y="671.9117647058824" width="120" height="60" as="geometry"/>
        </mxCell>
        <mxCell id="zm0U7tuLNW1Q2RoZGp8c-123" style="edgeStyle=orthogonalEdgeStyle;rounded=0;orthogonalLoop=1;jettySize=auto;html=1;entryX=0;entryY=0.25;entryDx=0;entryDy=0;strokeColor=#000000;strokeWidth=3;" parent="1" source="zm0U7tuLNW1Q2RoZGp8c-121" target="zm0U7tuLNW1Q2RoZGp8c-87" edge="1">
          <mxGeometry relative="1" as="geometry">
            <Array as="points">
              <mxPoint x="2180" y="860"/>
              <mxPoint x="2180" y="624"/>
            </Array>
          </mxGeometry>
        </mxCell>
        <mxCell id="zm0U7tuLNW1Q2RoZGp8c-125" style="edgeStyle=orthogonalEdgeStyle;rounded=0;orthogonalLoop=1;jettySize=auto;html=1;exitX=1;exitY=0.25;exitDx=0;exitDy=0;entryX=0;entryY=0.75;entryDx=0;entryDy=0;strokeColor=#000000;strokeWidth=3;" parent="1" source="zm0U7tuLNW1Q2RoZGp8c-121" target="zm0U7tuLNW1Q2RoZGp8c-122" edge="1">
          <mxGeometry relative="1" as="geometry"/>
        </mxCell>
        <mxCell id="zm0U7tuLNW1Q2RoZGp8c-121" value="&lt;div&gt;016931&lt;/div&gt;&lt;div&gt;MRdy61090721&lt;/div&gt;&lt;div&gt;Ready, Manual dump, Rotary valve&lt;br&gt;&lt;/div&gt;" style="rounded=0;whiteSpace=wrap;html=1;fillColor=#f8cecc;strokeColor=#b85450;" parent="1" vertex="1">
          <mxGeometry x="1810" y="829.9117647058824" width="120" height="60" as="geometry"/>
        </mxCell>
        <mxCell id="zm0U7tuLNW1Q2RoZGp8c-122" value="&lt;div&gt;010766&lt;/div&gt;&lt;div&gt;MANr61090721&lt;/div&gt;&lt;div&gt;Not Ready, Manual dump, rotary valve&lt;br&gt;&lt;/div&gt;" style="rounded=1;whiteSpace=wrap;html=1;fillColor=#d5e8d4;strokeColor=#82b366;" parent="1" vertex="1">
          <mxGeometry x="2001.5" y="759.9117647058824" width="150" height="62" as="geometry"/>
        </mxCell>
        <mxCell id="zm0U7tuLNW1Q2RoZGp8c-128" style="edgeStyle=orthogonalEdgeStyle;rounded=0;orthogonalLoop=1;jettySize=auto;html=1;strokeColor=#000000;strokeWidth=3;" parent="1" source="zm0U7tuLNW1Q2RoZGp8c-126" target="zm0U7tuLNW1Q2RoZGp8c-127" edge="1">
          <mxGeometry relative="1" as="geometry"/>
        </mxCell>
        <mxCell id="zm0U7tuLNW1Q2RoZGp8c-133" style="edgeStyle=orthogonalEdgeStyle;rounded=0;orthogonalLoop=1;jettySize=auto;html=1;exitX=1;exitY=0.75;exitDx=0;exitDy=0;entryX=0;entryY=0.5;entryDx=0;entryDy=0;strokeColor=#000000;strokeWidth=3;" parent="1" source="zm0U7tuLNW1Q2RoZGp8c-126" target="zm0U7tuLNW1Q2RoZGp8c-129" edge="1">
          <mxGeometry relative="1" as="geometry"/>
        </mxCell>
        <mxCell id="zm0U7tuLNW1Q2RoZGp8c-136" style="edgeStyle=orthogonalEdgeStyle;rounded=0;orthogonalLoop=1;jettySize=auto;html=1;exitX=1;exitY=0.75;exitDx=0;exitDy=0;entryX=0;entryY=0.5;entryDx=0;entryDy=0;strokeColor=#000000;strokeWidth=3;" parent="1" source="zm0U7tuLNW1Q2RoZGp8c-126" target="zm0U7tuLNW1Q2RoZGp8c-135" edge="1">
          <mxGeometry relative="1" as="geometry"/>
        </mxCell>
        <mxCell id="zm0U7tuLNW1Q2RoZGp8c-126" value="&lt;div&gt;004116&lt;/div&gt;&lt;div&gt;Stop090000&lt;/div&gt;&lt;div&gt;CS Stop&lt;br&gt;&lt;/div&gt;" style="rounded=0;whiteSpace=wrap;html=1;fillColor=#f8cecc;strokeColor=#b85450;" parent="1" vertex="1">
          <mxGeometry x="1535" y="1591.9117647058824" width="120" height="60" as="geometry"/>
        </mxCell>
        <mxCell id="zm0U7tuLNW1Q2RoZGp8c-131" style="edgeStyle=orthogonalEdgeStyle;rounded=0;orthogonalLoop=1;jettySize=auto;html=1;strokeColor=#000000;strokeWidth=3;" parent="1" source="zm0U7tuLNW1Q2RoZGp8c-127" target="zm0U7tuLNW1Q2RoZGp8c-130" edge="1">
          <mxGeometry relative="1" as="geometry"/>
        </mxCell>
        <mxCell id="zm0U7tuLNW1Q2RoZGp8c-127" value="&lt;div&gt;007118&lt;/div&gt;&lt;div&gt;PB2_150200_Start&lt;/div&gt;&lt;div&gt;Push button Start slurry dump&lt;br&gt;&lt;/div&gt;" style="rounded=0;whiteSpace=wrap;html=1;fillColor=#d5e8d4;strokeColor=#82b366;" parent="1" vertex="1">
          <mxGeometry x="1715" y="1589" width="120" height="74" as="geometry"/>
        </mxCell>
        <mxCell id="zm0U7tuLNW1Q2RoZGp8c-132" style="edgeStyle=orthogonalEdgeStyle;rounded=0;orthogonalLoop=1;jettySize=auto;html=1;entryX=0;entryY=0.75;entryDx=0;entryDy=0;strokeColor=#000000;strokeWidth=3;" parent="1" source="zm0U7tuLNW1Q2RoZGp8c-129" target="zm0U7tuLNW1Q2RoZGp8c-130" edge="1">
          <mxGeometry relative="1" as="geometry"/>
        </mxCell>
        <mxCell id="zm0U7tuLNW1Q2RoZGp8c-129" value="&lt;div&gt;005095&lt;/div&gt;&lt;div&gt;Sb__030700Near_Comm&lt;/div&gt;&lt;div&gt;Slurry hopper standBy&lt;br&gt;&lt;/div&gt;" style="rounded=0;whiteSpace=wrap;html=1;fillColor=#d5e8d4;strokeColor=#82b366;" parent="1" vertex="1">
          <mxGeometry x="1715" y="1685" width="120" height="74" as="geometry"/>
        </mxCell>
        <mxCell id="zm0U7tuLNW1Q2RoZGp8c-140" style="edgeStyle=orthogonalEdgeStyle;rounded=0;orthogonalLoop=1;jettySize=auto;html=1;exitX=1;exitY=0.5;exitDx=0;exitDy=0;entryX=0;entryY=0.5;entryDx=0;entryDy=0;strokeColor=#000000;strokeWidth=3;" parent="1" source="zm0U7tuLNW1Q2RoZGp8c-130" target="zm0U7tuLNW1Q2RoZGp8c-137" edge="1">
          <mxGeometry relative="1" as="geometry"/>
        </mxCell>
        <mxCell id="zm0U7tuLNW1Q2RoZGp8c-178" style="edgeStyle=orthogonalEdgeStyle;rounded=0;orthogonalLoop=1;jettySize=auto;html=1;exitX=0.5;exitY=0;exitDx=0;exitDy=0;entryX=0.5;entryY=1;entryDx=0;entryDy=0;strokeColor=#007FFF;strokeWidth=3;" parent="1" source="zm0U7tuLNW1Q2RoZGp8c-130" target="zm0U7tuLNW1Q2RoZGp8c-49" edge="1">
          <mxGeometry relative="1" as="geometry"/>
        </mxCell>
        <mxCell id="zm0U7tuLNW1Q2RoZGp8c-130" value="&lt;div&gt;007119&lt;/div&gt;&lt;div&gt;PB3_150200_Stop&lt;/div&gt;&lt;div&gt;Push button Stop slurry powder dump&lt;br&gt;&lt;/div&gt;" style="rounded=0;whiteSpace=wrap;html=1;fillColor=#d5e8d4;strokeColor=#82b366;" parent="1" vertex="1">
          <mxGeometry x="1895" y="1592" width="120" height="74" as="geometry"/>
        </mxCell>
        <mxCell id="zm0U7tuLNW1Q2RoZGp8c-143" style="edgeStyle=orthogonalEdgeStyle;rounded=0;orthogonalLoop=1;jettySize=auto;html=1;strokeColor=#000000;strokeWidth=3;" parent="1" source="zm0U7tuLNW1Q2RoZGp8c-135" target="zm0U7tuLNW1Q2RoZGp8c-142" edge="1">
          <mxGeometry relative="1" as="geometry"/>
        </mxCell>
        <mxCell id="zm0U7tuLNW1Q2RoZGp8c-144" style="edgeStyle=orthogonalEdgeStyle;rounded=0;orthogonalLoop=1;jettySize=auto;html=1;exitX=1;exitY=0.75;exitDx=0;exitDy=0;entryX=0;entryY=0.25;entryDx=0;entryDy=0;strokeColor=#000000;strokeWidth=3;" parent="1" source="zm0U7tuLNW1Q2RoZGp8c-135" target="zm0U7tuLNW1Q2RoZGp8c-141" edge="1">
          <mxGeometry relative="1" as="geometry"/>
        </mxCell>
        <mxCell id="zm0U7tuLNW1Q2RoZGp8c-145" style="edgeStyle=orthogonalEdgeStyle;rounded=0;orthogonalLoop=1;jettySize=auto;html=1;exitX=1;exitY=0.25;exitDx=0;exitDy=0;strokeColor=#00CCCC;strokeWidth=3;" parent="1" source="zm0U7tuLNW1Q2RoZGp8c-135" target="zm0U7tuLNW1Q2RoZGp8c-53" edge="1">
          <mxGeometry relative="1" as="geometry">
            <Array as="points">
              <mxPoint x="1836" y="1801"/>
              <mxPoint x="1850" y="1801"/>
              <mxPoint x="1850" y="1454"/>
              <mxPoint x="2020" y="1454"/>
              <mxPoint x="2020" y="1451"/>
              <mxPoint x="2293" y="1451"/>
            </Array>
          </mxGeometry>
        </mxCell>
        <mxCell id="zm0U7tuLNW1Q2RoZGp8c-135" value="&lt;div&gt;|P|&lt;br&gt;&lt;/div&gt;&lt;div&gt;007117&lt;/div&gt;&lt;div&gt;PB1_150200_Ackn_&lt;/div&gt;&lt;div&gt;Push button Operator Acknowledge slurry dump&lt;br&gt;&lt;/div&gt;" style="rounded=0;whiteSpace=wrap;html=1;fillColor=#d5e8d4;strokeColor=#82b366;" parent="1" vertex="1">
          <mxGeometry x="1715" y="1781" width="120" height="74" as="geometry"/>
        </mxCell>
        <mxCell id="zm0U7tuLNW1Q2RoZGp8c-149" style="edgeStyle=orthogonalEdgeStyle;rounded=0;orthogonalLoop=1;jettySize=auto;html=1;exitX=0.5;exitY=1;exitDx=0;exitDy=0;entryX=0.5;entryY=0;entryDx=0;entryDy=0;strokeColor=#000000;strokeWidth=3;" parent="1" source="zm0U7tuLNW1Q2RoZGp8c-137" target="zm0U7tuLNW1Q2RoZGp8c-147" edge="1">
          <mxGeometry relative="1" as="geometry">
            <mxPoint x="2304.1428571428573" y="1662.571428571429" as="sourcePoint"/>
          </mxGeometry>
        </mxCell>
        <mxCell id="zm0U7tuLNW1Q2RoZGp8c-137" value="&lt;div&gt;005095&lt;/div&gt;&lt;div&gt;Sb__030700Near_Comm&lt;/div&gt;&lt;div&gt;Slurry hopper standBy&lt;br&gt;&lt;/div&gt;" style="rounded=1;whiteSpace=wrap;html=1;fillColor=#d5e8d4;strokeColor=#82b366;" parent="1" vertex="1">
          <mxGeometry x="2088.5" y="1600.9117647058824" width="150" height="62" as="geometry"/>
        </mxCell>
        <mxCell id="zm0U7tuLNW1Q2RoZGp8c-141" value="&lt;div&gt;#00001&lt;/div&gt;&lt;div&gt;412990&lt;/div&gt;&lt;div&gt;ADD&lt;/div&gt;&lt;div&gt;412990&lt;br&gt;&lt;/div&gt;" style="rounded=0;whiteSpace=wrap;html=1;fillColor=#fff2cc;strokeColor=#d6b656;" parent="1" vertex="1">
          <mxGeometry x="1927" y="1885.9117647058824" width="120" height="60" as="geometry"/>
        </mxCell>
        <mxCell id="zm0U7tuLNW1Q2RoZGp8c-142" value="&lt;div&gt;005097&lt;/div&gt;&lt;div&gt;Sb__030700Near_Comm&lt;/div&gt;&lt;div&gt;Out: Acknowledge dump request 1/2/3/4&lt;br&gt;&lt;/div&gt;" style="rounded=1;whiteSpace=wrap;html=1;fillColor=#d5e8d4;strokeColor=#82b366;" parent="1" vertex="1">
          <mxGeometry x="1912" y="1797" width="150" height="60" as="geometry"/>
        </mxCell>
        <mxCell id="zm0U7tuLNW1Q2RoZGp8c-146" value="&lt;div&gt;000225&lt;/div&gt;&lt;div&gt;LPSb150200_Standby&lt;/div&gt;&lt;div&gt;pilot light preparation slurry&lt;br&gt;&lt;/div&gt;" style="rounded=1;whiteSpace=wrap;html=1;fillColor=#d5e8d4;strokeColor=#82b366;" parent="1" vertex="1">
          <mxGeometry x="2480" y="1714.9117647058824" width="150" height="62" as="geometry"/>
        </mxCell>
        <mxCell id="zm0U7tuLNW1Q2RoZGp8c-148" style="edgeStyle=orthogonalEdgeStyle;rounded=0;orthogonalLoop=1;jettySize=auto;html=1;strokeColor=#000000;strokeWidth=3;" parent="1" source="zm0U7tuLNW1Q2RoZGp8c-147" target="zm0U7tuLNW1Q2RoZGp8c-146" edge="1">
          <mxGeometry relative="1" as="geometry"/>
        </mxCell>
        <mxCell id="zm0U7tuLNW1Q2RoZGp8c-147" value="&lt;div&gt;005095&lt;/div&gt;&lt;div&gt;Sb__030700Near_Comm&lt;/div&gt;&lt;div&gt;Slurry hopper standBy&lt;br&gt;&lt;/div&gt;" style="rounded=0;whiteSpace=wrap;html=1;fillColor=#d5e8d4;strokeColor=#82b366;" parent="1" vertex="1">
          <mxGeometry x="2293.5" y="1714.9117647058824" width="120" height="60" as="geometry"/>
        </mxCell>
        <mxCell id="zm0U7tuLNW1Q2RoZGp8c-151" style="edgeStyle=orthogonalEdgeStyle;rounded=0;orthogonalLoop=1;jettySize=auto;html=1;entryX=0;entryY=0.75;entryDx=0;entryDy=0;strokeColor=#000000;strokeWidth=3;" parent="1" source="zm0U7tuLNW1Q2RoZGp8c-150" target="zm0U7tuLNW1Q2RoZGp8c-146" edge="1">
          <mxGeometry relative="1" as="geometry"/>
        </mxCell>
        <mxCell id="zm0U7tuLNW1Q2RoZGp8c-154" style="edgeStyle=orthogonalEdgeStyle;rounded=0;orthogonalLoop=1;jettySize=auto;html=1;exitX=1;exitY=0.75;exitDx=0;exitDy=0;entryX=0;entryY=0.5;entryDx=0;entryDy=0;strokeColor=#000000;strokeWidth=3;" parent="1" source="zm0U7tuLNW1Q2RoZGp8c-150" target="zm0U7tuLNW1Q2RoZGp8c-152" edge="1">
          <mxGeometry relative="1" as="geometry"/>
        </mxCell>
        <mxCell id="zm0U7tuLNW1Q2RoZGp8c-156" style="edgeStyle=orthogonalEdgeStyle;rounded=0;orthogonalLoop=1;jettySize=auto;html=1;exitX=1;exitY=0.25;exitDx=0;exitDy=0;entryX=0;entryY=0.75;entryDx=0;entryDy=0;strokeColor=#000000;strokeWidth=3;" parent="1" source="zm0U7tuLNW1Q2RoZGp8c-150" target="zm0U7tuLNW1Q2RoZGp8c-153" edge="1">
          <mxGeometry relative="1" as="geometry"/>
        </mxCell>
        <mxCell id="zm0U7tuLNW1Q2RoZGp8c-150" value="&lt;div&gt;5302&lt;/div&gt;&lt;div&gt;Test for pilot lights&lt;br&gt;&lt;/div&gt;&lt;div&gt;From blending&lt;br&gt;&lt;/div&gt;" style="rounded=0;whiteSpace=wrap;html=1;fillColor=#d5e8d4;strokeColor=#82b366;" parent="1" vertex="1">
          <mxGeometry x="2310" y="1999.9117647058824" width="120" height="60" as="geometry"/>
        </mxCell>
        <mxCell id="zm0U7tuLNW1Q2RoZGp8c-152" value="&lt;div&gt;000227&lt;/div&gt;&lt;div&gt;LPFl150200_Failure&lt;/div&gt;&lt;div&gt;pilot light preparation slurry&lt;/div&gt;" style="rounded=1;whiteSpace=wrap;html=1;fillColor=#d5e8d4;strokeColor=#82b366;" parent="1" vertex="1">
          <mxGeometry x="2480" y="1900.9117647058824" width="150" height="62" as="geometry"/>
        </mxCell>
        <mxCell id="zm0U7tuLNW1Q2RoZGp8c-153" value="&lt;div&gt;000226&lt;/div&gt;&lt;div&gt;LPRn150200_Running&lt;/div&gt;&lt;div&gt;Pilot light preparation slurry&lt;/div&gt;&lt;div&gt;Не пишется&lt;br&gt;&lt;/div&gt;" style="rounded=1;whiteSpace=wrap;html=1;fillColor=#e1d5e7;strokeColor=#9673a6;" parent="1" vertex="1">
          <mxGeometry x="2470" y="1560.9117647058824" width="150" height="62" as="geometry"/>
        </mxCell>
        <mxCell id="zm0U7tuLNW1Q2RoZGp8c-158" style="edgeStyle=orthogonalEdgeStyle;rounded=0;orthogonalLoop=1;jettySize=auto;html=1;entryX=0;entryY=0.75;entryDx=0;entryDy=0;strokeColor=#000000;strokeWidth=3;" parent="1" source="zm0U7tuLNW1Q2RoZGp8c-157" target="zm0U7tuLNW1Q2RoZGp8c-152" edge="1">
          <mxGeometry relative="1" as="geometry"/>
        </mxCell>
        <mxCell id="zm0U7tuLNW1Q2RoZGp8c-157" value="&lt;div&gt;001651&lt;/div&gt;&lt;div&gt;Puls500ms&lt;br&gt;&lt;/div&gt;" style="rounded=0;whiteSpace=wrap;html=1;fillColor=#d5e8d4;strokeColor=#82b366;" parent="1" vertex="1">
          <mxGeometry x="2295" y="1902.9117647058824" width="120" height="60" as="geometry"/>
        </mxCell>
        <mxCell id="zm0U7tuLNW1Q2RoZGp8c-160" style="edgeStyle=orthogonalEdgeStyle;rounded=0;orthogonalLoop=1;jettySize=auto;html=1;strokeColor=#000000;strokeWidth=3;" parent="1" source="zm0U7tuLNW1Q2RoZGp8c-159" target="zm0U7tuLNW1Q2RoZGp8c-157" edge="1">
          <mxGeometry relative="1" as="geometry"/>
        </mxCell>
        <mxCell id="zm0U7tuLNW1Q2RoZGp8c-159" value="&lt;div&gt;005099&lt;/div&gt;&lt;div&gt;Fail090700_Status&lt;/div&gt;&lt;div&gt;Critical Failure&lt;br&gt;&lt;/div&gt;" style="rounded=0;whiteSpace=wrap;html=1;fillColor=#d5e8d4;strokeColor=#82b366;" parent="1" vertex="1">
          <mxGeometry x="2125" y="1902.9117647058824" width="120" height="60" as="geometry"/>
        </mxCell>
        <mxCell id="zm0U7tuLNW1Q2RoZGp8c-162" style="edgeStyle=orthogonalEdgeStyle;rounded=0;orthogonalLoop=1;jettySize=auto;html=1;exitX=0.5;exitY=0;exitDx=0;exitDy=0;entryX=0.5;entryY=1;entryDx=0;entryDy=0;strokeColor=#000000;strokeWidth=3;" parent="1" source="zm0U7tuLNW1Q2RoZGp8c-161" target="zm0U7tuLNW1Q2RoZGp8c-159" edge="1">
          <mxGeometry relative="1" as="geometry"/>
        </mxCell>
        <mxCell id="zm0U7tuLNW1Q2RoZGp8c-161" value="&lt;div&gt;005099&lt;/div&gt;&lt;div&gt;Fail090700_Status&lt;/div&gt;&lt;div&gt;Critical Failure&lt;br&gt;&lt;/div&gt;" style="rounded=1;whiteSpace=wrap;html=1;fillColor=#d5e8d4;strokeColor=#82b366;" parent="1" vertex="1">
          <mxGeometry x="2013.5" y="2028.9117647058824" width="150" height="62" as="geometry"/>
        </mxCell>
        <mxCell id="zm0U7tuLNW1Q2RoZGp8c-164" style="edgeStyle=orthogonalEdgeStyle;rounded=0;orthogonalLoop=1;jettySize=auto;html=1;entryX=0;entryY=0.5;entryDx=0;entryDy=0;strokeColor=#000000;strokeWidth=3;" parent="1" source="zm0U7tuLNW1Q2RoZGp8c-163" target="zm0U7tuLNW1Q2RoZGp8c-161" edge="1">
          <mxGeometry relative="1" as="geometry"/>
        </mxCell>
        <mxCell id="zm0U7tuLNW1Q2RoZGp8c-163" value="&lt;div&gt;000831&lt;/div&gt;&lt;div&gt;WALL090702_LL_Alarm&lt;br&gt;&lt;/div&gt;" style="rounded=0;whiteSpace=wrap;html=1;fillColor=#d5e8d4;strokeColor=#82b366;" parent="1" vertex="1">
          <mxGeometry x="1820" y="2029" width="120" height="41" as="geometry"/>
        </mxCell>
        <mxCell id="zm0U7tuLNW1Q2RoZGp8c-166" style="edgeStyle=orthogonalEdgeStyle;rounded=0;orthogonalLoop=1;jettySize=auto;html=1;entryX=0;entryY=0.5;entryDx=0;entryDy=0;strokeColor=#000000;strokeWidth=3;" parent="1" source="zm0U7tuLNW1Q2RoZGp8c-165" target="zm0U7tuLNW1Q2RoZGp8c-161" edge="1">
          <mxGeometry relative="1" as="geometry"/>
        </mxCell>
        <mxCell id="zm0U7tuLNW1Q2RoZGp8c-165" value="&lt;div&gt;000832&lt;/div&gt;&lt;div&gt;WAHH090702_HH_Alarm&lt;br&gt;&lt;/div&gt;" style="rounded=0;whiteSpace=wrap;html=1;fillColor=#d5e8d4;strokeColor=#82b366;" parent="1" vertex="1">
          <mxGeometry x="1820" y="2100" width="120" height="40" as="geometry"/>
        </mxCell>
        <mxCell id="zm0U7tuLNW1Q2RoZGp8c-169" style="edgeStyle=orthogonalEdgeStyle;rounded=0;orthogonalLoop=1;jettySize=auto;html=1;exitX=1;exitY=0.5;exitDx=0;exitDy=0;entryX=0;entryY=0.5;entryDx=0;entryDy=0;strokeColor=#000000;strokeWidth=3;" parent="1" source="zm0U7tuLNW1Q2RoZGp8c-167" target="zm0U7tuLNW1Q2RoZGp8c-161" edge="1">
          <mxGeometry relative="1" as="geometry"/>
        </mxCell>
        <mxCell id="zm0U7tuLNW1Q2RoZGp8c-167" value="&lt;div&gt;000832&lt;/div&gt;&lt;div&gt;WAHH090702_HH_Alarm&lt;br&gt;&lt;/div&gt;" style="rounded=0;whiteSpace=wrap;html=1;fillColor=#d5e8d4;strokeColor=#82b366;" parent="1" vertex="1">
          <mxGeometry x="1820" y="2151.5" width="120" height="39" as="geometry"/>
        </mxCell>
        <mxCell id="zm0U7tuLNW1Q2RoZGp8c-168" value="&lt;div&gt;000832&lt;/div&gt;&lt;div&gt;WAHH090702_HH_Alarm&lt;br&gt;&lt;/div&gt;" style="rounded=0;whiteSpace=wrap;html=1;fillColor=#d5e8d4;strokeColor=#82b366;" parent="1" vertex="1">
          <mxGeometry x="1820" y="2091" width="120" height="40" as="geometry"/>
        </mxCell>
        <mxCell id="zm0U7tuLNW1Q2RoZGp8c-171" style="edgeStyle=orthogonalEdgeStyle;rounded=0;orthogonalLoop=1;jettySize=auto;html=1;exitX=1;exitY=0.5;exitDx=0;exitDy=0;entryX=0;entryY=0.5;entryDx=0;entryDy=0;strokeColor=#000000;strokeWidth=3;" parent="1" source="zm0U7tuLNW1Q2RoZGp8c-170" target="zm0U7tuLNW1Q2RoZGp8c-161" edge="1">
          <mxGeometry relative="1" as="geometry"/>
        </mxCell>
        <mxCell id="zm0U7tuLNW1Q2RoZGp8c-170" value="&lt;div&gt;003709&lt;/div&gt;&lt;div&gt;MACb090701_Combined&lt;br&gt;&lt;/div&gt;" style="rounded=0;whiteSpace=wrap;html=1;fillColor=#d5e8d4;strokeColor=#82b366;" parent="1" vertex="1">
          <mxGeometry x="1820" y="2202" width="120" height="39" as="geometry"/>
        </mxCell>
        <mxCell id="zm0U7tuLNW1Q2RoZGp8c-173" style="edgeStyle=orthogonalEdgeStyle;rounded=0;orthogonalLoop=1;jettySize=auto;html=1;entryX=0;entryY=0.5;entryDx=0;entryDy=0;strokeColor=#000000;strokeWidth=3;" parent="1" source="zm0U7tuLNW1Q2RoZGp8c-172" target="zm0U7tuLNW1Q2RoZGp8c-161" edge="1">
          <mxGeometry relative="1" as="geometry"/>
        </mxCell>
        <mxCell id="zm0U7tuLNW1Q2RoZGp8c-172" value="&lt;div&gt;002781&lt;/div&gt;&lt;div&gt;MACb090703_Combined&lt;br&gt;&lt;/div&gt;" style="rounded=0;whiteSpace=wrap;html=1;fillColor=#d5e8d4;strokeColor=#82b366;" parent="1" vertex="1">
          <mxGeometry x="1820" y="2252.5" width="120" height="39" as="geometry"/>
        </mxCell>
        <mxCell id="zm0U7tuLNW1Q2RoZGp8c-175" style="edgeStyle=orthogonalEdgeStyle;rounded=0;orthogonalLoop=1;jettySize=auto;html=1;entryX=0;entryY=0.5;entryDx=0;entryDy=0;strokeColor=#000000;strokeWidth=3;" parent="1" source="zm0U7tuLNW1Q2RoZGp8c-174" target="zm0U7tuLNW1Q2RoZGp8c-161" edge="1">
          <mxGeometry relative="1" as="geometry"/>
        </mxCell>
        <mxCell id="zm0U7tuLNW1Q2RoZGp8c-174" value="&lt;div&gt;012766&lt;/div&gt;&lt;div&gt;MACb090721_Combined&lt;br&gt;&lt;/div&gt;" style="rounded=0;whiteSpace=wrap;html=1;fillColor=#d5e8d4;strokeColor=#82b366;" parent="1" vertex="1">
          <mxGeometry x="1820" y="2310" width="120" height="39" as="geometry"/>
        </mxCell>
        <mxCell id="zm0U7tuLNW1Q2RoZGp8c-177" style="edgeStyle=orthogonalEdgeStyle;rounded=0;orthogonalLoop=1;jettySize=auto;html=1;entryX=0;entryY=0.5;entryDx=0;entryDy=0;strokeColor=#000000;strokeWidth=3;" parent="1" source="zm0U7tuLNW1Q2RoZGp8c-176" target="zm0U7tuLNW1Q2RoZGp8c-161" edge="1">
          <mxGeometry relative="1" as="geometry"/>
        </mxCell>
        <mxCell id="zm0U7tuLNW1Q2RoZGp8c-176" value="&lt;div&gt;014401&lt;br&gt;&lt;/div&gt;&lt;div&gt;HLSA61090720&lt;/div&gt;&lt;div&gt;Hi Alarm Manual dump, High level&lt;br&gt;&lt;/div&gt;" style="rounded=0;whiteSpace=wrap;html=1;fillColor=#d5e8d4;strokeColor=#82b366;" parent="1" vertex="1">
          <mxGeometry x="1820" y="2367.5" width="120" height="39" as="geometry"/>
        </mxCell>
        <mxCell id="zm0U7tuLNW1Q2RoZGp8c-179" value="Text" style="text;html=1;resizable=0;points=[];autosize=1;align=left;verticalAlign=top;spacingTop=-4;" parent="1" vertex="1">
          <mxGeometry x="3134" y="1406" width="40" height="20" as="geometry"/>
        </mxCell>
        <mxCell id="zm0U7tuLNW1Q2RoZGp8c-199" style="edgeStyle=orthogonalEdgeStyle;rounded=0;orthogonalLoop=1;jettySize=auto;html=1;exitX=1;exitY=0.75;exitDx=0;exitDy=0;entryX=0;entryY=0.5;entryDx=0;entryDy=0;strokeColor=#000000;strokeWidth=3;" parent="1" source="zm0U7tuLNW1Q2RoZGp8c-184" target="zm0U7tuLNW1Q2RoZGp8c-198" edge="1">
          <mxGeometry relative="1" as="geometry">
            <Array as="points">
              <mxPoint x="2271" y="-595"/>
              <mxPoint x="2310" y="-595"/>
              <mxPoint x="2310" y="-516"/>
            </Array>
          </mxGeometry>
        </mxCell>
        <mxCell id="-DMYC8TSmq7vtVu4Xtf_-9" style="edgeStyle=orthogonalEdgeStyle;rounded=0;orthogonalLoop=1;jettySize=auto;html=1;entryX=0;entryY=0.25;entryDx=0;entryDy=0;" parent="1" source="zm0U7tuLNW1Q2RoZGp8c-184" target="zm0U7tuLNW1Q2RoZGp8c-193" edge="1">
          <mxGeometry relative="1" as="geometry">
            <Array as="points">
              <mxPoint x="2330" y="-611"/>
              <mxPoint x="2330" y="-681"/>
              <mxPoint x="2630" y="-681"/>
              <mxPoint x="2630" y="-619"/>
            </Array>
          </mxGeometry>
        </mxCell>
        <mxCell id="zm0U7tuLNW1Q2RoZGp8c-184" value="&lt;div&gt;007636&lt;/div&gt;&lt;div&gt;Request to enable slurry system&lt;br&gt;&lt;/div&gt;" style="rounded=0;whiteSpace=wrap;html=1;fillColor=#d5e8d4;strokeColor=#82b366;" parent="1" vertex="1">
          <mxGeometry x="2151.5" y="-640.7941176470588" width="120" height="60" as="geometry"/>
        </mxCell>
        <mxCell id="zm0U7tuLNW1Q2RoZGp8c-196" style="edgeStyle=orthogonalEdgeStyle;rounded=0;orthogonalLoop=1;jettySize=auto;html=1;strokeColor=#000000;strokeWidth=3;" parent="1" source="zm0U7tuLNW1Q2RoZGp8c-185" target="zm0U7tuLNW1Q2RoZGp8c-193" edge="1">
          <mxGeometry relative="1" as="geometry"/>
        </mxCell>
        <mxCell id="zm0U7tuLNW1Q2RoZGp8c-185" value="&lt;div&gt;WEPm61090713&lt;/div&gt;&lt;div&gt;&amp;lt;&lt;/div&gt;&lt;div&gt;WLLo61090713&lt;br&gt;&lt;/div&gt;&lt;div&gt;&lt;br&gt;&lt;/div&gt;&lt;div&gt;60sec&lt;br&gt;&lt;/div&gt;" style="rhombus;whiteSpace=wrap;html=1;fillColor=#dae8fc;strokeColor=#6c8ebf;" parent="1" vertex="1">
          <mxGeometry x="2645.5" y="-794.8823529411766" width="125" height="110" as="geometry"/>
        </mxCell>
        <mxCell id="zm0U7tuLNW1Q2RoZGp8c-190" style="edgeStyle=orthogonalEdgeStyle;rounded=0;orthogonalLoop=1;jettySize=auto;html=1;exitX=1;exitY=0.5;exitDx=0;exitDy=0;strokeColor=#000000;strokeWidth=3;" parent="1" source="zm0U7tuLNW1Q2RoZGp8c-187" target="zm0U7tuLNW1Q2RoZGp8c-189" edge="1">
          <mxGeometry relative="1" as="geometry"/>
        </mxCell>
        <mxCell id="zm0U7tuLNW1Q2RoZGp8c-187" value="&lt;div&gt;000837&lt;br&gt;&lt;/div&gt;&lt;div&gt;WAHH61090713&lt;/div&gt;" style="rounded=0;whiteSpace=wrap;html=1;fillColor=#f8cecc;strokeColor=#b85450;" parent="1" vertex="1">
          <mxGeometry x="2820.5" y="-639.7941176470588" width="120" height="60" as="geometry"/>
        </mxCell>
        <mxCell id="zm0U7tuLNW1Q2RoZGp8c-192" style="edgeStyle=orthogonalEdgeStyle;rounded=0;orthogonalLoop=1;jettySize=auto;html=1;exitX=1;exitY=0.5;exitDx=0;exitDy=0;strokeColor=#000000;strokeWidth=3;" parent="1" source="zm0U7tuLNW1Q2RoZGp8c-309" target="zm0U7tuLNW1Q2RoZGp8c-191" edge="1">
          <mxGeometry relative="1" as="geometry"/>
        </mxCell>
        <mxCell id="zm0U7tuLNW1Q2RoZGp8c-310" style="edgeStyle=orthogonalEdgeStyle;rounded=0;orthogonalLoop=1;jettySize=auto;html=1;exitX=1;exitY=0.5;exitDx=0;exitDy=0;entryX=0;entryY=0.5;entryDx=0;entryDy=0;strokeColor=#000000;strokeWidth=3;" parent="1" source="zm0U7tuLNW1Q2RoZGp8c-189" target="zm0U7tuLNW1Q2RoZGp8c-309" edge="1">
          <mxGeometry relative="1" as="geometry"/>
        </mxCell>
        <mxCell id="zm0U7tuLNW1Q2RoZGp8c-361" style="edgeStyle=orthogonalEdgeStyle;rounded=0;orthogonalLoop=1;jettySize=auto;html=1;exitX=1;exitY=0.25;exitDx=0;exitDy=0;entryX=0;entryY=0.25;entryDx=0;entryDy=0;strokeColor=#000000;strokeWidth=3;" parent="1" source="zm0U7tuLNW1Q2RoZGp8c-189" target="zm0U7tuLNW1Q2RoZGp8c-191" edge="1">
          <mxGeometry relative="1" as="geometry">
            <Array as="points">
              <mxPoint x="3150" y="-624"/>
              <mxPoint x="3150" y="-679"/>
              <mxPoint x="3390" y="-679"/>
              <mxPoint x="3390" y="-626"/>
            </Array>
          </mxGeometry>
        </mxCell>
        <mxCell id="zm0U7tuLNW1Q2RoZGp8c-189" value="005575&lt;div&gt;Mixer_Powder_fill_Ready&lt;/div&gt;" style="rounded=0;whiteSpace=wrap;html=1;fillColor=#f8cecc;strokeColor=#b85450;" parent="1" vertex="1">
          <mxGeometry x="2984" y="-639.7058823529412" width="147" height="60" as="geometry"/>
        </mxCell>
        <mxCell id="zm0U7tuLNW1Q2RoZGp8c-204" style="edgeStyle=orthogonalEdgeStyle;rounded=0;orthogonalLoop=1;jettySize=auto;html=1;entryX=0.5;entryY=0;entryDx=0;entryDy=0;strokeColor=#000000;strokeWidth=3;" parent="1" source="zm0U7tuLNW1Q2RoZGp8c-191" target="zm0U7tuLNW1Q2RoZGp8c-202" edge="1">
          <mxGeometry relative="1" as="geometry">
            <Array as="points">
              <mxPoint x="3494" y="-469"/>
              <mxPoint x="2718" y="-469"/>
            </Array>
          </mxGeometry>
        </mxCell>
        <mxCell id="zm0U7tuLNW1Q2RoZGp8c-191" value="&lt;div&gt;005573&lt;/div&gt;&lt;div&gt;Request_Powder_Mixer&lt;/div&gt;" style="rounded=1;whiteSpace=wrap;html=1;fillColor=#d5e8d4;strokeColor=#82b366;" parent="1" vertex="1">
          <mxGeometry x="3418.5" y="-640.7058823529412" width="150" height="62" as="geometry"/>
        </mxCell>
        <mxCell id="zm0U7tuLNW1Q2RoZGp8c-195" style="edgeStyle=orthogonalEdgeStyle;rounded=0;orthogonalLoop=1;jettySize=auto;html=1;entryX=0;entryY=0.5;entryDx=0;entryDy=0;strokeColor=#000000;strokeWidth=3;" parent="1" source="zm0U7tuLNW1Q2RoZGp8c-193" target="zm0U7tuLNW1Q2RoZGp8c-187" edge="1">
          <mxGeometry relative="1" as="geometry"/>
        </mxCell>
        <mxCell id="zm0U7tuLNW1Q2RoZGp8c-193" value="&lt;div&gt;002347&lt;br&gt;&lt;/div&gt;&lt;div&gt;WCLo61090713&lt;/div&gt;" style="rounded=0;whiteSpace=wrap;html=1;fillColor=#d5e8d4;strokeColor=#82b366;" parent="1" vertex="1">
          <mxGeometry x="2648.5" y="-634.7941176470588" width="120" height="60" as="geometry"/>
        </mxCell>
        <mxCell id="zm0U7tuLNW1Q2RoZGp8c-200" style="edgeStyle=orthogonalEdgeStyle;rounded=0;orthogonalLoop=1;jettySize=auto;html=1;entryX=0;entryY=0.75;entryDx=0;entryDy=0;strokeColor=#000000;strokeWidth=3;" parent="1" source="zm0U7tuLNW1Q2RoZGp8c-198" target="zm0U7tuLNW1Q2RoZGp8c-187" edge="1">
          <mxGeometry relative="1" as="geometry"/>
        </mxCell>
        <mxCell id="zm0U7tuLNW1Q2RoZGp8c-198" value="Request_Powder_Mixer" style="rounded=0;whiteSpace=wrap;html=1;fillColor=#d5e8d4;strokeColor=#82b366;" parent="1" vertex="1">
          <mxGeometry x="2650.5" y="-546.7941176470588" width="120" height="60" as="geometry"/>
        </mxCell>
        <mxCell id="zm0U7tuLNW1Q2RoZGp8c-201" value="Auto-Start" style="rounded=0;whiteSpace=wrap;html=1;fillColor=#d5e8d4;strokeColor=#82b366;" parent="1" vertex="1">
          <mxGeometry x="2445" y="-419.7941176470588" width="120" height="60" as="geometry"/>
        </mxCell>
        <mxCell id="zm0U7tuLNW1Q2RoZGp8c-206" style="edgeStyle=orthogonalEdgeStyle;rounded=0;orthogonalLoop=1;jettySize=auto;html=1;entryX=0;entryY=0.5;entryDx=0;entryDy=0;strokeColor=#000000;strokeWidth=3;" parent="1" source="zm0U7tuLNW1Q2RoZGp8c-202" target="zm0U7tuLNW1Q2RoZGp8c-205" edge="1">
          <mxGeometry relative="1" as="geometry"/>
        </mxCell>
        <mxCell id="zm0U7tuLNW1Q2RoZGp8c-212" style="edgeStyle=orthogonalEdgeStyle;rounded=0;orthogonalLoop=1;jettySize=auto;html=1;exitX=1;exitY=0.75;exitDx=0;exitDy=0;entryX=0;entryY=0.5;entryDx=0;entryDy=0;strokeColor=#000000;strokeWidth=3;" parent="1" source="zm0U7tuLNW1Q2RoZGp8c-202" target="zm0U7tuLNW1Q2RoZGp8c-211" edge="1">
          <mxGeometry relative="1" as="geometry"/>
        </mxCell>
        <mxCell id="zm0U7tuLNW1Q2RoZGp8c-202" value="&lt;div&gt;05573&lt;br&gt;&lt;/div&gt;&lt;div&gt;Request_Powder_Mixer&lt;/div&gt;" style="rounded=0;whiteSpace=wrap;html=1;fillColor=#d5e8d4;strokeColor=#82b366;" parent="1" vertex="1">
          <mxGeometry x="2653.5" y="-430" width="130" height="60" as="geometry"/>
        </mxCell>
        <mxCell id="zm0U7tuLNW1Q2RoZGp8c-208" style="edgeStyle=orthogonalEdgeStyle;rounded=0;orthogonalLoop=1;jettySize=auto;html=1;strokeColor=#000000;strokeWidth=3;" parent="1" source="zm0U7tuLNW1Q2RoZGp8c-205" target="zm0U7tuLNW1Q2RoZGp8c-207" edge="1">
          <mxGeometry relative="1" as="geometry"/>
        </mxCell>
        <mxCell id="zm0U7tuLNW1Q2RoZGp8c-205" value="&lt;div&gt;007117&lt;/div&gt;&lt;div&gt;PB1_150200_Ackn_&lt;/div&gt;&lt;div&gt;Push button Operator Acknowledge slurry dump&lt;br&gt;&lt;/div&gt;" style="rounded=0;whiteSpace=wrap;html=1;fillColor=#d5e8d4;strokeColor=#82b366;" parent="1" vertex="1">
          <mxGeometry x="2840" y="-437" width="120" height="74" as="geometry"/>
        </mxCell>
        <mxCell id="zm0U7tuLNW1Q2RoZGp8c-210" value="" style="edgeStyle=orthogonalEdgeStyle;rounded=0;orthogonalLoop=1;jettySize=auto;html=1;strokeColor=#000000;strokeWidth=3;" parent="1" source="-DMYC8TSmq7vtVu4Xtf_-5" target="zm0U7tuLNW1Q2RoZGp8c-209" edge="1">
          <mxGeometry relative="1" as="geometry"/>
        </mxCell>
        <mxCell id="zm0U7tuLNW1Q2RoZGp8c-207" value="&lt;div&gt;002332&lt;/div&gt;&lt;div&gt;WCHi61090702_Hight_Control&lt;/div&gt;&lt;div&gt;Weight Hopper slurry dump&lt;br&gt;&lt;/div&gt;" style="rounded=0;whiteSpace=wrap;html=1;fillColor=#d5e8d4;strokeColor=#82b366;" parent="1" vertex="1">
          <mxGeometry x="3005" y="-423" width="167" height="47" as="geometry"/>
        </mxCell>
        <mxCell id="zm0U7tuLNW1Q2RoZGp8c-219" style="edgeStyle=orthogonalEdgeStyle;rounded=0;orthogonalLoop=1;jettySize=auto;html=1;strokeColor=#000000;strokeWidth=3;exitX=0.5;exitY=1;exitDx=0;exitDy=0;" parent="1" source="zm0U7tuLNW1Q2RoZGp8c-209" target="zm0U7tuLNW1Q2RoZGp8c-217" edge="1">
          <mxGeometry relative="1" as="geometry">
            <Array as="points">
              <mxPoint x="3493" y="-251"/>
              <mxPoint x="2724" y="-251"/>
            </Array>
          </mxGeometry>
        </mxCell>
        <mxCell id="zm0U7tuLNW1Q2RoZGp8c-209" value="&lt;div&gt;005574&lt;br&gt;&lt;/div&gt;&lt;div&gt;Start_Filling_Mixer&lt;/div&gt;" style="rounded=1;whiteSpace=wrap;html=1;fillColor=#d5e8d4;strokeColor=#82b366;" parent="1" vertex="1">
          <mxGeometry x="3417" y="-421.7058823529412" width="150" height="62" as="geometry"/>
        </mxCell>
        <mxCell id="zm0U7tuLNW1Q2RoZGp8c-214" value="" style="edgeStyle=orthogonalEdgeStyle;rounded=0;orthogonalLoop=1;jettySize=auto;html=1;strokeColor=#000000;strokeWidth=3;" parent="1" source="zm0U7tuLNW1Q2RoZGp8c-211" target="zm0U7tuLNW1Q2RoZGp8c-213" edge="1">
          <mxGeometry relative="1" as="geometry"/>
        </mxCell>
        <mxCell id="zm0U7tuLNW1Q2RoZGp8c-211" value="&lt;div&gt;005574&lt;br&gt;&lt;/div&gt;&lt;div&gt;Start_Filling_Mixer&lt;/div&gt;" style="rounded=0;whiteSpace=wrap;html=1;fillColor=#d5e8d4;strokeColor=#82b366;" parent="1" vertex="1">
          <mxGeometry x="2844" y="-330" width="112" height="60" as="geometry"/>
        </mxCell>
        <mxCell id="zm0U7tuLNW1Q2RoZGp8c-215" style="edgeStyle=orthogonalEdgeStyle;rounded=0;orthogonalLoop=1;jettySize=auto;html=1;entryX=0;entryY=0.75;entryDx=0;entryDy=0;strokeColor=#000000;strokeWidth=3;" parent="1" source="zm0U7tuLNW1Q2RoZGp8c-213" target="-DMYC8TSmq7vtVu4Xtf_-5" edge="1">
          <mxGeometry relative="1" as="geometry"/>
        </mxCell>
        <mxCell id="zm0U7tuLNW1Q2RoZGp8c-213" value="&lt;div&gt;005575&lt;br&gt;&lt;/div&gt;&lt;div&gt;Mixer_Powder_fill_Ready&lt;/div&gt;" style="rounded=0;whiteSpace=wrap;html=1;fillColor=#f8cecc;strokeColor=#b85450;" parent="1" vertex="1">
          <mxGeometry x="3000" y="-330.2058823529412" width="147" height="60" as="geometry"/>
        </mxCell>
        <mxCell id="zm0U7tuLNW1Q2RoZGp8c-218" style="edgeStyle=orthogonalEdgeStyle;rounded=0;orthogonalLoop=1;jettySize=auto;html=1;strokeColor=#000000;strokeWidth=3;" parent="1" source="zm0U7tuLNW1Q2RoZGp8c-216" target="zm0U7tuLNW1Q2RoZGp8c-217" edge="1">
          <mxGeometry relative="1" as="geometry"/>
        </mxCell>
        <mxCell id="zm0U7tuLNW1Q2RoZGp8c-216" value="&lt;div&gt;007636&lt;/div&gt;&lt;div&gt;Request to enable slurry system&lt;br&gt;&lt;/div&gt;" style="rounded=0;whiteSpace=wrap;html=1;fillColor=#d5e8d4;strokeColor=#82b366;" parent="1" vertex="1">
          <mxGeometry x="2480" y="-199.79411764705878" width="120" height="60" as="geometry"/>
        </mxCell>
        <mxCell id="zm0U7tuLNW1Q2RoZGp8c-221" value="" style="edgeStyle=orthogonalEdgeStyle;rounded=0;orthogonalLoop=1;jettySize=auto;html=1;strokeColor=#000000;strokeWidth=3;" parent="1" source="zm0U7tuLNW1Q2RoZGp8c-217" target="zm0U7tuLNW1Q2RoZGp8c-220" edge="1">
          <mxGeometry relative="1" as="geometry"/>
        </mxCell>
        <mxCell id="zm0U7tuLNW1Q2RoZGp8c-217" value="Start_Filling_Mixer" style="rounded=0;whiteSpace=wrap;html=1;fillColor=#d5e8d4;strokeColor=#82b366;" parent="1" vertex="1">
          <mxGeometry x="2658.5" y="-200" width="130" height="60" as="geometry"/>
        </mxCell>
        <mxCell id="zm0U7tuLNW1Q2RoZGp8c-223" style="edgeStyle=orthogonalEdgeStyle;rounded=0;orthogonalLoop=1;jettySize=auto;html=1;strokeColor=#000000;strokeWidth=3;" parent="1" source="zm0U7tuLNW1Q2RoZGp8c-220" target="zm0U7tuLNW1Q2RoZGp8c-222" edge="1">
          <mxGeometry relative="1" as="geometry"/>
        </mxCell>
        <mxCell id="zm0U7tuLNW1Q2RoZGp8c-227" style="edgeStyle=orthogonalEdgeStyle;rounded=0;orthogonalLoop=1;jettySize=auto;html=1;entryX=0;entryY=0.5;entryDx=0;entryDy=0;strokeColor=#000000;strokeWidth=3;exitX=1;exitY=0.75;exitDx=0;exitDy=0;" parent="1" source="zm0U7tuLNW1Q2RoZGp8c-220" target="zm0U7tuLNW1Q2RoZGp8c-225" edge="1">
          <mxGeometry relative="1" as="geometry"/>
        </mxCell>
        <mxCell id="zm0U7tuLNW1Q2RoZGp8c-220" value="05575&lt;br&gt;&lt;div&gt;Mixer_Powder_fill_Ready&lt;/div&gt;" style="rounded=0;whiteSpace=wrap;html=1;fillColor=#f8cecc;strokeColor=#b85450;" parent="1" vertex="1">
          <mxGeometry x="2833.5" y="-200.20588235294122" width="147" height="60" as="geometry"/>
        </mxCell>
        <mxCell id="zm0U7tuLNW1Q2RoZGp8c-226" style="edgeStyle=orthogonalEdgeStyle;rounded=0;orthogonalLoop=1;jettySize=auto;html=1;strokeColor=#000000;strokeWidth=3;entryX=0.5;entryY=0;entryDx=0;entryDy=0;" parent="1" source="zm0U7tuLNW1Q2RoZGp8c-222" target="zm0U7tuLNW1Q2RoZGp8c-225" edge="1">
          <mxGeometry relative="1" as="geometry">
            <Array as="points">
              <mxPoint x="3114" y="-111"/>
              <mxPoint x="3098" y="-111"/>
            </Array>
          </mxGeometry>
        </mxCell>
        <mxCell id="zm0U7tuLNW1Q2RoZGp8c-222" value="&lt;div&gt;&lt;br&gt;  VPOp61090717&lt;br&gt;  001350&lt;br&gt;&lt;/div&gt;&lt;div&gt;&lt;br&gt;&lt;/div&gt;" style="rounded=1;whiteSpace=wrap;html=1;fillColor=#d5e8d4;strokeColor=#82b366;" parent="1" vertex="1">
          <mxGeometry x="3039.5" y="-203.20588235294122" width="150" height="62" as="geometry"/>
        </mxCell>
        <mxCell id="zm0U7tuLNW1Q2RoZGp8c-230" style="edgeStyle=orthogonalEdgeStyle;rounded=0;orthogonalLoop=1;jettySize=auto;html=1;entryX=0.5;entryY=0;entryDx=0;entryDy=0;strokeColor=#000000;strokeWidth=3;" parent="1" source="zm0U7tuLNW1Q2RoZGp8c-224" target="zm0U7tuLNW1Q2RoZGp8c-229" edge="1">
          <mxGeometry relative="1" as="geometry"/>
        </mxCell>
        <mxCell id="zm0U7tuLNW1Q2RoZGp8c-224" value="MPSt61090703" style="rounded=1;whiteSpace=wrap;html=1;fillColor=#d5e8d4;strokeColor=#82b366;" parent="1" vertex="1">
          <mxGeometry x="3228" y="-84.20588235294122" width="150" height="62" as="geometry"/>
        </mxCell>
        <mxCell id="zm0U7tuLNW1Q2RoZGp8c-228" value="" style="edgeStyle=orthogonalEdgeStyle;rounded=0;orthogonalLoop=1;jettySize=auto;html=1;strokeColor=#000000;strokeWidth=3;" parent="1" source="zm0U7tuLNW1Q2RoZGp8c-225" target="zm0U7tuLNW1Q2RoZGp8c-224" edge="1">
          <mxGeometry relative="1" as="geometry"/>
        </mxCell>
        <mxCell id="zm0U7tuLNW1Q2RoZGp8c-225" value="&lt;div&gt;000150&lt;br&gt;&lt;/div&gt;&lt;div&gt;VCOp61090717&lt;/div&gt;" style="rounded=0;whiteSpace=wrap;html=1;fillColor=#d5e8d4;strokeColor=#82b366;" parent="1" vertex="1">
          <mxGeometry x="3033.5" y="-83" width="130" height="60" as="geometry"/>
        </mxCell>
        <mxCell id="zm0U7tuLNW1Q2RoZGp8c-235" style="edgeStyle=orthogonalEdgeStyle;rounded=0;orthogonalLoop=1;jettySize=auto;html=1;exitX=1;exitY=0.25;exitDx=0;exitDy=0;entryX=0;entryY=0.5;entryDx=0;entryDy=0;strokeColor=#000000;strokeWidth=3;" parent="1" source="zm0U7tuLNW1Q2RoZGp8c-229" target="zm0U7tuLNW1Q2RoZGp8c-234" edge="1">
          <mxGeometry relative="1" as="geometry"/>
        </mxCell>
        <mxCell id="zm0U7tuLNW1Q2RoZGp8c-238" style="edgeStyle=orthogonalEdgeStyle;rounded=0;orthogonalLoop=1;jettySize=auto;html=1;exitX=1;exitY=0.75;exitDx=0;exitDy=0;entryX=0;entryY=0.5;entryDx=0;entryDy=0;strokeColor=#000000;strokeWidth=3;" parent="1" source="zm0U7tuLNW1Q2RoZGp8c-229" target="zm0U7tuLNW1Q2RoZGp8c-232" edge="1">
          <mxGeometry relative="1" as="geometry"/>
        </mxCell>
        <mxCell id="zm0U7tuLNW1Q2RoZGp8c-229" value="000081&lt;br&gt;&lt;div&gt;MCSt61090703&lt;/div&gt;" style="rounded=0;whiteSpace=wrap;html=1;fillColor=#d5e8d4;strokeColor=#82b366;" parent="1" vertex="1">
          <mxGeometry x="3240" y="28" width="130" height="60" as="geometry"/>
        </mxCell>
        <mxCell id="zm0U7tuLNW1Q2RoZGp8c-232" value="MPSt61090701" style="rounded=1;whiteSpace=wrap;html=1;fillColor=#d5e8d4;strokeColor=#82b366;" parent="1" vertex="1">
          <mxGeometry x="3438" y="48.79411764705878" width="150" height="62" as="geometry"/>
        </mxCell>
        <mxCell id="zm0U7tuLNW1Q2RoZGp8c-234" value="&lt;div&gt;VPOp61090790&lt;/div&gt;&lt;div&gt;&lt;br&gt;&lt;/div&gt;&lt;div&gt;000153&lt;br&gt;&lt;/div&gt;" style="rounded=1;whiteSpace=wrap;html=1;fillColor=#d5e8d4;strokeColor=#82b366;" parent="1" vertex="1">
          <mxGeometry x="3438" y="-21.205882352941217" width="150" height="62" as="geometry"/>
        </mxCell>
        <mxCell id="zm0U7tuLNW1Q2RoZGp8c-236" value="Таймера c 410105" style="text;html=1;resizable=0;points=[];autosize=1;align=left;verticalAlign=top;spacingTop=-4;" parent="1" vertex="1">
          <mxGeometry x="3552" y="-371" width="110" height="20" as="geometry"/>
        </mxCell>
        <mxCell id="zm0U7tuLNW1Q2RoZGp8c-237" value="&lt;div&gt;400009&lt;/div&gt;&lt;div&gt;408007&lt;/div&gt;&lt;div&gt;&lt;br&gt;&lt;/div&gt;" style="text;html=1;resizable=0;points=[];autosize=1;align=left;verticalAlign=top;spacingTop=-4;" parent="1" vertex="1">
          <mxGeometry x="3538" y="-774" width="50" height="40" as="geometry"/>
        </mxCell>
        <mxCell id="zm0U7tuLNW1Q2RoZGp8c-244" value="" style="edgeStyle=orthogonalEdgeStyle;rounded=0;orthogonalLoop=1;jettySize=auto;html=1;strokeColor=#000000;strokeWidth=3;" parent="1" source="zm0U7tuLNW1Q2RoZGp8c-239" target="zm0U7tuLNW1Q2RoZGp8c-240" edge="1">
          <mxGeometry relative="1" as="geometry"/>
        </mxCell>
        <mxCell id="zm0U7tuLNW1Q2RoZGp8c-239" value="005573&lt;br&gt;&lt;div&gt;Request_Powder_Mixer&lt;/div&gt;" style="rounded=0;whiteSpace=wrap;html=1;fillColor=#d5e8d4;strokeColor=#82b366;" parent="1" vertex="1">
          <mxGeometry x="2654" y="155.5" width="130" height="60" as="geometry"/>
        </mxCell>
        <mxCell id="zm0U7tuLNW1Q2RoZGp8c-246" value="" style="edgeStyle=orthogonalEdgeStyle;rounded=0;orthogonalLoop=1;jettySize=auto;html=1;strokeColor=#000000;strokeWidth=3;" parent="1" source="zm0U7tuLNW1Q2RoZGp8c-240" target="zm0U7tuLNW1Q2RoZGp8c-245" edge="1">
          <mxGeometry relative="1" as="geometry"/>
        </mxCell>
        <mxCell id="zm0U7tuLNW1Q2RoZGp8c-311" style="edgeStyle=orthogonalEdgeStyle;rounded=0;orthogonalLoop=1;jettySize=auto;html=1;exitX=1;exitY=0.25;exitDx=0;exitDy=0;entryX=0;entryY=0.25;entryDx=0;entryDy=0;strokeColor=#000000;strokeWidth=3;" parent="1" source="zm0U7tuLNW1Q2RoZGp8c-240" target="zm0U7tuLNW1Q2RoZGp8c-363" edge="1">
          <mxGeometry relative="1" as="geometry">
            <Array as="points">
              <mxPoint x="2980" y="171"/>
              <mxPoint x="2980" y="129"/>
              <mxPoint x="3350" y="129"/>
              <mxPoint x="3350" y="161"/>
            </Array>
          </mxGeometry>
        </mxCell>
        <mxCell id="zm0U7tuLNW1Q2RoZGp8c-240" value="005574&lt;br&gt;&lt;div&gt;Start_Filling_Mixer&lt;/div&gt;" style="rounded=0;whiteSpace=wrap;html=1;fillColor=#d5e8d4;strokeColor=#82b366;" parent="1" vertex="1">
          <mxGeometry x="2832.5" y="155.5" width="130" height="60" as="geometry"/>
        </mxCell>
        <mxCell id="zm0U7tuLNW1Q2RoZGp8c-241" value="Auto-Start" style="rounded=0;whiteSpace=wrap;html=1;fillColor=#d5e8d4;strokeColor=#82b366;" parent="1" vertex="1">
          <mxGeometry x="1871.5" y="-38.79411764705878" width="120" height="60" as="geometry"/>
        </mxCell>
        <mxCell id="zm0U7tuLNW1Q2RoZGp8c-243" value="" style="edgeStyle=orthogonalEdgeStyle;rounded=0;orthogonalLoop=1;jettySize=auto;html=1;strokeColor=#000000;strokeWidth=3;" parent="1" source="zm0U7tuLNW1Q2RoZGp8c-242" target="zm0U7tuLNW1Q2RoZGp8c-239" edge="1">
          <mxGeometry relative="1" as="geometry"/>
        </mxCell>
        <mxCell id="zm0U7tuLNW1Q2RoZGp8c-315" style="edgeStyle=orthogonalEdgeStyle;rounded=0;orthogonalLoop=1;jettySize=auto;html=1;exitX=1;exitY=0.75;exitDx=0;exitDy=0;entryX=0;entryY=0.5;entryDx=0;entryDy=0;strokeColor=#000000;strokeWidth=3;" parent="1" source="zm0U7tuLNW1Q2RoZGp8c-242" target="zm0U7tuLNW1Q2RoZGp8c-314" edge="1">
          <mxGeometry relative="1" as="geometry">
            <Array as="points">
              <mxPoint x="2630" y="202"/>
              <mxPoint x="2630" y="269"/>
            </Array>
          </mxGeometry>
        </mxCell>
        <mxCell id="zm0U7tuLNW1Q2RoZGp8c-242" value="&lt;div&gt;007636&lt;/div&gt;&lt;div&gt;Request to enable slurry system&lt;br&gt;&lt;/div&gt;" style="rounded=0;whiteSpace=wrap;html=1;fillColor=#d5e8d4;strokeColor=#82b366;" parent="1" vertex="1">
          <mxGeometry x="2484" y="157.20588235294122" width="120" height="60" as="geometry"/>
        </mxCell>
        <mxCell id="zm0U7tuLNW1Q2RoZGp8c-248" value="" style="edgeStyle=orthogonalEdgeStyle;rounded=0;orthogonalLoop=1;jettySize=auto;html=1;strokeColor=#000000;strokeWidth=3;" parent="1" source="zm0U7tuLNW1Q2RoZGp8c-245" target="zm0U7tuLNW1Q2RoZGp8c-247" edge="1">
          <mxGeometry relative="1" as="geometry"/>
        </mxCell>
        <mxCell id="zm0U7tuLNW1Q2RoZGp8c-245" value="002331&lt;br&gt;&lt;div&gt;WCLo61090702&lt;/div&gt;&lt;div&gt;hoper&lt;br&gt;&lt;/div&gt;" style="rounded=0;whiteSpace=wrap;html=1;fillColor=#d5e8d4;strokeColor=#82b366;" parent="1" vertex="1">
          <mxGeometry x="3017" y="155.5" width="130" height="60" as="geometry"/>
        </mxCell>
        <mxCell id="zm0U7tuLNW1Q2RoZGp8c-250" value="" style="edgeStyle=orthogonalEdgeStyle;rounded=0;orthogonalLoop=1;jettySize=auto;html=1;strokeColor=#000000;strokeWidth=3;" parent="1" source="zm0U7tuLNW1Q2RoZGp8c-247" target="zm0U7tuLNW1Q2RoZGp8c-249" edge="1">
          <mxGeometry relative="1" as="geometry"/>
        </mxCell>
        <mxCell id="zm0U7tuLNW1Q2RoZGp8c-247" value="&lt;div&gt;002346&lt;br&gt;&lt;/div&gt;&lt;div&gt;WCHi61090713&lt;/div&gt;&lt;div&gt;mixer&lt;br&gt;&lt;/div&gt;" style="rounded=0;whiteSpace=wrap;html=1;fillColor=#d5e8d4;strokeColor=#82b366;" parent="1" vertex="1">
          <mxGeometry x="3201.5" y="155.5" width="130" height="60" as="geometry"/>
        </mxCell>
        <mxCell id="zm0U7tuLNW1Q2RoZGp8c-254" value="" style="edgeStyle=orthogonalEdgeStyle;rounded=0;orthogonalLoop=1;jettySize=auto;html=1;strokeColor=#000000;strokeWidth=3;" parent="1" source="zm0U7tuLNW1Q2RoZGp8c-249" target="zm0U7tuLNW1Q2RoZGp8c-253" edge="1">
          <mxGeometry relative="1" as="geometry"/>
        </mxCell>
        <mxCell id="zm0U7tuLNW1Q2RoZGp8c-249" value="&lt;div&gt;TON&lt;/div&gt;&lt;div&gt;Time to Discharge&lt;br&gt;&lt;/div&gt;&lt;div&gt;&lt;div&gt;410105&lt;/div&gt;&lt;/div&gt;&lt;div&gt;T1.0&lt;br&gt;&lt;/div&gt;&lt;div&gt;410106&lt;/div&gt;" style="rounded=0;whiteSpace=wrap;html=1;fillColor=#fff2cc;strokeColor=#d6b656;" parent="1" vertex="1">
          <mxGeometry x="3380" y="155.5" width="130" height="60" as="geometry"/>
        </mxCell>
        <mxCell id="zm0U7tuLNW1Q2RoZGp8c-253" value="&lt;div&gt;005575&lt;br&gt;&lt;/div&gt;&lt;div&gt;Mixer_Powder_fill_Ready&lt;/div&gt;" style="rounded=1;whiteSpace=wrap;html=1;fillColor=#d5e8d4;strokeColor=#82b366;" parent="1" vertex="1">
          <mxGeometry x="3558.5" y="154.29411764705878" width="150" height="62" as="geometry"/>
        </mxCell>
        <mxCell id="zm0U7tuLNW1Q2RoZGp8c-346" style="edgeStyle=orthogonalEdgeStyle;rounded=0;orthogonalLoop=1;jettySize=auto;html=1;exitX=1;exitY=0.5;exitDx=0;exitDy=0;strokeColor=#000000;strokeWidth=3;" parent="1" source="zm0U7tuLNW1Q2RoZGp8c-255" target="zm0U7tuLNW1Q2RoZGp8c-261" edge="1">
          <mxGeometry relative="1" as="geometry"/>
        </mxCell>
        <mxCell id="zm0U7tuLNW1Q2RoZGp8c-255" value="005575&lt;br&gt;&lt;div&gt;Mixer_Powder_fill_Ready&lt;/div&gt;" style="rounded=0;whiteSpace=wrap;html=1;fillColor=#d5e8d4;strokeColor=#82b366;" parent="1" vertex="1">
          <mxGeometry x="2708" y="319" width="130" height="60" as="geometry"/>
        </mxCell>
        <mxCell id="zm0U7tuLNW1Q2RoZGp8c-273" value="" style="edgeStyle=orthogonalEdgeStyle;rounded=0;orthogonalLoop=1;jettySize=auto;html=1;strokeColor=#000000;strokeWidth=3;" parent="1" source="zm0U7tuLNW1Q2RoZGp8c-257" target="zm0U7tuLNW1Q2RoZGp8c-272" edge="1">
          <mxGeometry relative="1" as="geometry"/>
        </mxCell>
        <mxCell id="zm0U7tuLNW1Q2RoZGp8c-257" value="005576&lt;br&gt;&lt;div&gt;Mixer_Ready&lt;/div&gt;" style="rounded=1;whiteSpace=wrap;html=1;fillColor=#d5e8d4;strokeColor=#82b366;" parent="1" vertex="1">
          <mxGeometry x="3683.5" y="517.7941176470588" width="150" height="62" as="geometry"/>
        </mxCell>
        <mxCell id="zm0U7tuLNW1Q2RoZGp8c-272" value="&lt;div&gt;SEND TO C11BASE&lt;/div&gt;&lt;div&gt;&lt;br&gt;&lt;/div&gt;007700" style="rounded=1;whiteSpace=wrap;html=1;fillColor=#d5e8d4;strokeColor=#82b366;" parent="1" vertex="1">
          <mxGeometry x="3913.5" y="517.7941176470588" width="150" height="62" as="geometry"/>
        </mxCell>
        <mxCell id="zm0U7tuLNW1Q2RoZGp8c-345" style="edgeStyle=orthogonalEdgeStyle;rounded=0;orthogonalLoop=1;jettySize=auto;html=1;exitX=1;exitY=0.5;exitDx=0;exitDy=0;strokeColor=#000000;strokeWidth=3;" parent="1" source="zm0U7tuLNW1Q2RoZGp8c-261" target="zm0U7tuLNW1Q2RoZGp8c-292" edge="1">
          <mxGeometry relative="1" as="geometry"/>
        </mxCell>
        <mxCell id="zm0U7tuLNW1Q2RoZGp8c-261" value="&lt;div&gt;TON&lt;/div&gt;&lt;div&gt;Mixing time&lt;/div&gt;&lt;div&gt;410108&lt;/div&gt;&lt;div&gt;T1.0&lt;br&gt;&lt;/div&gt;&lt;div&gt;410109&lt;/div&gt;&lt;div&gt;5мин&lt;br&gt;&lt;/div&gt;" style="rounded=0;whiteSpace=wrap;html=1;fillColor=#fff2cc;strokeColor=#d6b656;" parent="1" vertex="1">
          <mxGeometry x="3121.5" y="319" width="130" height="60" as="geometry"/>
        </mxCell>
        <mxCell id="zm0U7tuLNW1Q2RoZGp8c-269" style="edgeStyle=orthogonalEdgeStyle;rounded=0;orthogonalLoop=1;jettySize=auto;html=1;entryX=0;entryY=0.75;entryDx=0;entryDy=0;strokeColor=#000000;strokeWidth=3;" parent="1" source="zm0U7tuLNW1Q2RoZGp8c-266" target="zm0U7tuLNW1Q2RoZGp8c-257" edge="1">
          <mxGeometry relative="1" as="geometry"/>
        </mxCell>
        <mxCell id="zm0U7tuLNW1Q2RoZGp8c-266" value="005573&lt;div&gt;Request_Powder_Mixer&lt;/div&gt;" style="rounded=0;whiteSpace=wrap;html=1;fillColor=#f8cecc;strokeColor=#b85450;" parent="1" vertex="1">
          <mxGeometry x="3399" y="599.7941176470588" width="147" height="60" as="geometry"/>
        </mxCell>
        <mxCell id="zm0U7tuLNW1Q2RoZGp8c-268" value="" style="edgeStyle=orthogonalEdgeStyle;rounded=0;orthogonalLoop=1;jettySize=auto;html=1;strokeColor=#b85450;strokeWidth=3;fillColor=#f8cecc;" parent="1" source="zm0U7tuLNW1Q2RoZGp8c-267" target="zm0U7tuLNW1Q2RoZGp8c-266" edge="1">
          <mxGeometry relative="1" as="geometry"/>
        </mxCell>
        <mxCell id="zm0U7tuLNW1Q2RoZGp8c-267" value="005576&lt;div&gt;Mixer_Ready&lt;/div&gt;" style="rounded=0;whiteSpace=wrap;html=1;fillColor=#d5e8d4;strokeColor=#82b366;" parent="1" vertex="1">
          <mxGeometry x="3150.5" y="599.7941176470588" width="147" height="60" as="geometry"/>
        </mxCell>
        <mxCell id="zm0U7tuLNW1Q2RoZGp8c-271" value="Timer SP" style="text;html=1;resizable=0;points=[];autosize=1;align=left;verticalAlign=top;spacingTop=-4;" parent="1" vertex="1">
          <mxGeometry x="3780" y="46" width="60" height="20" as="geometry"/>
        </mxCell>
        <mxCell id="zm0U7tuLNW1Q2RoZGp8c-276" value="&lt;div&gt;010066&lt;/div&gt;&lt;div&gt;MCSt61090721&lt;/div&gt;&lt;div&gt;Start, Manual dump&lt;br&gt;&lt;/div&gt;&lt;div&gt;Rotary valve&lt;br&gt;&lt;/div&gt;" style="rounded=0;whiteSpace=wrap;html=1;fillColor=#fff2cc;strokeColor=#d6b656;" parent="1" vertex="1">
          <mxGeometry x="4210" y="1842.764705882353" width="120" height="60" as="geometry"/>
        </mxCell>
        <mxCell id="zm0U7tuLNW1Q2RoZGp8c-306" style="edgeStyle=orthogonalEdgeStyle;rounded=0;orthogonalLoop=1;jettySize=auto;html=1;strokeColor=#000000;strokeWidth=3;" parent="1" source="zm0U7tuLNW1Q2RoZGp8c-277" target="zm0U7tuLNW1Q2RoZGp8c-305" edge="1">
          <mxGeometry relative="1" as="geometry"/>
        </mxCell>
        <mxCell id="zm0U7tuLNW1Q2RoZGp8c-277" value="&lt;div&gt;MPSt61090712&lt;/div&gt;&lt;div&gt;010372&lt;br&gt;&lt;/div&gt;" style="rounded=1;whiteSpace=wrap;html=1;fillColor=#fff2cc;strokeColor=#d6b656;" parent="1" vertex="1">
          <mxGeometry x="4015.0294117647063" y="1557" width="150" height="62" as="geometry"/>
        </mxCell>
        <mxCell id="zm0U7tuLNW1Q2RoZGp8c-283" style="edgeStyle=orthogonalEdgeStyle;rounded=0;orthogonalLoop=1;jettySize=auto;html=1;strokeColor=#000000;strokeWidth=3;entryX=0;entryY=0.5;entryDx=0;entryDy=0;" parent="1" source="zm0U7tuLNW1Q2RoZGp8c-278" target="zm0U7tuLNW1Q2RoZGp8c-277" edge="1">
          <mxGeometry relative="1" as="geometry">
            <mxPoint x="3810" y="1592.3333333333335" as="targetPoint"/>
          </mxGeometry>
        </mxCell>
        <mxCell id="zm0U7tuLNW1Q2RoZGp8c-278" value="&lt;div&gt;010066&lt;/div&gt;&lt;div&gt;MCSt61090721&lt;/div&gt;&lt;div&gt;Start, Manual dump&lt;br&gt;&lt;/div&gt;&lt;div&gt;Rotary valve&lt;br&gt;&lt;/div&gt;" style="rounded=0;whiteSpace=wrap;html=1;fillColor=#d5e8d4;strokeColor=#82b366;" parent="1" vertex="1">
          <mxGeometry x="3788" y="1557.0294117647059" width="120" height="60" as="geometry"/>
        </mxCell>
        <mxCell id="zm0U7tuLNW1Q2RoZGp8c-284" value="&lt;div&gt;Request powder&amp;nbsp; from C11Base&lt;/div&gt;&lt;div&gt;Blower is Run&lt;br&gt;&lt;/div&gt;&lt;div&gt;007636&lt;br&gt;&lt;/div&gt;" style="rounded=0;whiteSpace=wrap;html=1;fillColor=#fff2cc;strokeColor=#d6b656;" parent="1" vertex="1">
          <mxGeometry x="3453" y="1559" width="120" height="60" as="geometry"/>
        </mxCell>
        <mxCell id="zm0U7tuLNW1Q2RoZGp8c-288" value="005576&lt;br&gt;&lt;div&gt;Mixer_Ready&lt;/div&gt;" style="rounded=0;whiteSpace=wrap;html=1;fillColor=#d5e8d4;strokeColor=#82b366;" parent="1" vertex="1">
          <mxGeometry x="3617.5" y="1758" width="147" height="60" as="geometry"/>
        </mxCell>
        <mxCell id="zm0U7tuLNW1Q2RoZGp8c-290" value="WCLo61090713" style="rounded=0;whiteSpace=wrap;html=1;fillColor=#f8cecc;strokeColor=#b85450;" parent="1" vertex="1">
          <mxGeometry x="3558.5" y="1647.9117647058824" width="120" height="60" as="geometry"/>
        </mxCell>
        <mxCell id="_xtPATZDOHzCYZEzJrmS-8" style="edgeStyle=orthogonalEdgeStyle;rounded=0;orthogonalLoop=1;jettySize=auto;html=1;strokeColor=#b85450;fillColor=#f8cecc;" edge="1" parent="1" source="zm0U7tuLNW1Q2RoZGp8c-292">
          <mxGeometry relative="1" as="geometry">
            <mxPoint x="3609.999999999999" y="520" as="targetPoint"/>
          </mxGeometry>
        </mxCell>
        <mxCell id="zm0U7tuLNW1Q2RoZGp8c-292" value="&lt;div&gt;001349&lt;br&gt;&lt;/div&gt;&lt;div&gt;VPOp61090714&lt;/div&gt;&lt;div&gt;Auto condition, Mixer slurry outlet valve&lt;br&gt;&lt;/div&gt;" style="rounded=1;whiteSpace=wrap;html=1;fillColor=#fff2cc;strokeColor=#d6b656;" parent="1" vertex="1">
          <mxGeometry x="3395" y="316.7450980392159" width="150" height="62" as="geometry"/>
        </mxCell>
        <mxCell id="zm0U7tuLNW1Q2RoZGp8c-297" value="" style="edgeStyle=orthogonalEdgeStyle;rounded=0;orthogonalLoop=1;jettySize=auto;html=1;strokeColor=#000000;strokeWidth=3;" parent="1" source="zm0U7tuLNW1Q2RoZGp8c-296" target="zm0U7tuLNW1Q2RoZGp8c-276" edge="1">
          <mxGeometry relative="1" as="geometry"/>
        </mxCell>
        <mxCell id="zm0U7tuLNW1Q2RoZGp8c-296" value="&lt;div&gt;014401&lt;/div&gt;&lt;div&gt;HLSA61090720&lt;/div&gt;&lt;div&gt;Hi level alarm, Manual Dump, High level&lt;br&gt;&lt;/div&gt;" style="rounded=0;whiteSpace=wrap;html=1;fillColor=#f8cecc;strokeColor=#b85450;" parent="1" vertex="1">
          <mxGeometry x="4030" y="1843.5" width="120" height="60" as="geometry"/>
        </mxCell>
        <mxCell id="zm0U7tuLNW1Q2RoZGp8c-302" style="edgeStyle=orthogonalEdgeStyle;rounded=0;orthogonalLoop=1;jettySize=auto;html=1;entryX=0;entryY=0.25;entryDx=0;entryDy=0;strokeColor=#000000;strokeWidth=3;" parent="1" source="zm0U7tuLNW1Q2RoZGp8c-301" target="zm0U7tuLNW1Q2RoZGp8c-277" edge="1">
          <mxGeometry relative="1" as="geometry"/>
        </mxCell>
        <mxCell id="zm0U7tuLNW1Q2RoZGp8c-301" value="&lt;div&gt;005574&lt;br&gt;&lt;/div&gt;&lt;div&gt;Start_Filling_Mixer&lt;/div&gt;" style="rounded=0;whiteSpace=wrap;html=1;fillColor=#d5e8d4;strokeColor=#82b366;" parent="1" vertex="1">
          <mxGeometry x="3788.5" y="1797" width="130" height="60" as="geometry"/>
        </mxCell>
        <mxCell id="zm0U7tuLNW1Q2RoZGp8c-304" style="edgeStyle=orthogonalEdgeStyle;rounded=0;orthogonalLoop=1;jettySize=auto;html=1;entryX=0;entryY=0.5;entryDx=0;entryDy=0;strokeColor=#000000;strokeWidth=3;" parent="1" source="zm0U7tuLNW1Q2RoZGp8c-303" target="zm0U7tuLNW1Q2RoZGp8c-277" edge="1">
          <mxGeometry relative="1" as="geometry"/>
        </mxCell>
        <mxCell id="zm0U7tuLNW1Q2RoZGp8c-303" value="&lt;div&gt;005575&lt;br&gt;&lt;/div&gt;&lt;div&gt;Mixer_Powder_fill_Ready&lt;/div&gt;" style="rounded=0;whiteSpace=wrap;html=1;fillColor=#d5e8d4;strokeColor=#82b366;" parent="1" vertex="1">
          <mxGeometry x="3788.285714285714" y="1699" width="130" height="60" as="geometry"/>
        </mxCell>
        <mxCell id="zm0U7tuLNW1Q2RoZGp8c-305" value="&lt;div&gt;VPOp61090715&lt;/div&gt;&lt;div&gt;001351&lt;br&gt;&lt;/div&gt;" style="rounded=1;whiteSpace=wrap;html=1;fillColor=#fff2cc;strokeColor=#d6b656;" parent="1" vertex="1">
          <mxGeometry x="4015.0294117647063" y="1663" width="150" height="62" as="geometry"/>
        </mxCell>
        <mxCell id="zm0U7tuLNW1Q2RoZGp8c-307" value="&lt;div&gt;VPOp61090714&lt;/div&gt;" style="rounded=0;whiteSpace=wrap;html=1;fillColor=#fff2cc;strokeColor=#d6b656;" parent="1" vertex="1">
          <mxGeometry x="3924" y="663.2647058823529" width="120" height="60" as="geometry"/>
        </mxCell>
        <mxCell id="zm0U7tuLNW1Q2RoZGp8c-309" value="&lt;div&gt;Request powder&amp;nbsp; from C11Base&lt;/div&gt;&lt;div&gt;Blower is Run&lt;br&gt;&lt;/div&gt;&lt;div&gt;007637&lt;br&gt;&lt;/div&gt;" style="rounded=0;whiteSpace=wrap;html=1;fillColor=#f8cecc;strokeColor=#b85450;" parent="1" vertex="1">
          <mxGeometry x="3211" y="-640.5" width="120" height="60" as="geometry"/>
        </mxCell>
        <mxCell id="zm0U7tuLNW1Q2RoZGp8c-313" value="&lt;div&gt;KTP700BASIC&lt;br&gt;&lt;/div&gt;&lt;div&gt;siemens 6AV2 123-2GB03-0AX0&lt;/div&gt;&lt;div&gt;V-L6AF576&lt;/div&gt;&lt;div&gt;E0-DC-A0-81-AE-18&lt;/div&gt;&lt;div&gt;&lt;br&gt;&lt;/div&gt;" style="text;html=1;resizable=0;points=[];autosize=1;align=left;verticalAlign=top;spacingTop=-4;" parent="1" vertex="1">
          <mxGeometry x="3438" y="-925" width="180" height="70" as="geometry"/>
        </mxCell>
        <mxCell id="zm0U7tuLNW1Q2RoZGp8c-316" style="edgeStyle=orthogonalEdgeStyle;rounded=0;orthogonalLoop=1;jettySize=auto;html=1;entryX=0;entryY=0.75;entryDx=0;entryDy=0;strokeColor=#000000;strokeWidth=3;exitX=1;exitY=0.5;exitDx=0;exitDy=0;" parent="1" source="zm0U7tuLNW1Q2RoZGp8c-319" target="zm0U7tuLNW1Q2RoZGp8c-253" edge="1">
          <mxGeometry relative="1" as="geometry">
            <Array as="points">
              <mxPoint x="3530" y="269"/>
              <mxPoint x="3530" y="201"/>
            </Array>
          </mxGeometry>
        </mxCell>
        <mxCell id="zm0U7tuLNW1Q2RoZGp8c-320" style="edgeStyle=orthogonalEdgeStyle;rounded=0;orthogonalLoop=1;jettySize=auto;html=1;strokeColor=#000000;strokeWidth=3;" parent="1" source="zm0U7tuLNW1Q2RoZGp8c-314" target="zm0U7tuLNW1Q2RoZGp8c-319" edge="1">
          <mxGeometry relative="1" as="geometry"/>
        </mxCell>
        <mxCell id="zm0U7tuLNW1Q2RoZGp8c-314" value="005575&lt;br&gt;&lt;div&gt;Mixer_Powder_fill_Ready&lt;/div&gt;" style="rounded=0;whiteSpace=wrap;html=1;fillColor=#d5e8d4;strokeColor=#82b366;" parent="1" vertex="1">
          <mxGeometry x="2838.5" y="239" width="130" height="60" as="geometry"/>
        </mxCell>
        <mxCell id="zm0U7tuLNW1Q2RoZGp8c-319" value="005576&lt;div&gt;Mixer_Ready&lt;/div&gt;" style="rounded=0;whiteSpace=wrap;html=1;fillColor=#f8cecc;strokeColor=#b85450;" parent="1" vertex="1">
          <mxGeometry x="3043.5" y="238.79411764705878" width="147" height="60" as="geometry"/>
        </mxCell>
        <mxCell id="zm0U7tuLNW1Q2RoZGp8c-323" style="edgeStyle=orthogonalEdgeStyle;rounded=0;orthogonalLoop=1;jettySize=auto;html=1;entryX=0;entryY=0.5;entryDx=0;entryDy=0;strokeColor=#000000;strokeWidth=3;" parent="1" source="zm0U7tuLNW1Q2RoZGp8c-322" target="zm0U7tuLNW1Q2RoZGp8c-296" edge="1">
          <mxGeometry relative="1" as="geometry"/>
        </mxCell>
        <mxCell id="zm0U7tuLNW1Q2RoZGp8c-322" value="&lt;div&gt;Request powder&amp;nbsp; from C11Base&lt;/div&gt;&lt;div&gt;Blower is Run&lt;br&gt;&lt;/div&gt;&lt;div&gt;007637&lt;/div&gt;" style="rounded=0;whiteSpace=wrap;html=1;fillColor=#d5e8d4;strokeColor=#82b366;" parent="1" vertex="1">
          <mxGeometry x="3809.785714285714" y="1962.9117647058824" width="120" height="60" as="geometry"/>
        </mxCell>
        <mxCell id="zm0U7tuLNW1Q2RoZGp8c-329" style="edgeStyle=orthogonalEdgeStyle;rounded=0;orthogonalLoop=1;jettySize=auto;html=1;exitX=1;exitY=0.5;exitDx=0;exitDy=0;entryX=0;entryY=0.5;entryDx=0;entryDy=0;strokeColor=#000000;strokeWidth=3;" parent="1" source="zm0U7tuLNW1Q2RoZGp8c-328" target="zm0U7tuLNW1Q2RoZGp8c-277" edge="1">
          <mxGeometry relative="1" as="geometry"/>
        </mxCell>
        <mxCell id="zm0U7tuLNW1Q2RoZGp8c-328" value="&lt;br&gt;  VCOp61090717&lt;br&gt;  000150" style="rounded=0;whiteSpace=wrap;html=1;fillColor=#d5e8d4;strokeColor=#82b366;" parent="1" vertex="1">
          <mxGeometry x="3788" y="1473.5294117647059" width="120" height="60" as="geometry"/>
        </mxCell>
        <mxCell id="zm0U7tuLNW1Q2RoZGp8c-339" value="" style="edgeStyle=orthogonalEdgeStyle;rounded=0;orthogonalLoop=1;jettySize=auto;html=1;strokeColor=#000000;strokeWidth=3;" parent="1" source="zm0U7tuLNW1Q2RoZGp8c-335" target="zm0U7tuLNW1Q2RoZGp8c-338" edge="1">
          <mxGeometry relative="1" as="geometry"/>
        </mxCell>
        <mxCell id="zm0U7tuLNW1Q2RoZGp8c-335" value="&lt;div&gt;016933&lt;/div&gt;HLS61090720" style="rounded=0;whiteSpace=wrap;html=1;fillColor=#d5e8d4;strokeColor=#82b366;" parent="1" vertex="1">
          <mxGeometry x="3797" y="277.57142857142856" width="147" height="60" as="geometry"/>
        </mxCell>
        <mxCell id="zm0U7tuLNW1Q2RoZGp8c-342" style="edgeStyle=orthogonalEdgeStyle;rounded=0;orthogonalLoop=1;jettySize=auto;html=1;exitX=1;exitY=0.5;exitDx=0;exitDy=0;strokeColor=#000000;strokeWidth=3;" parent="1" source="zm0U7tuLNW1Q2RoZGp8c-338" target="zm0U7tuLNW1Q2RoZGp8c-341" edge="1">
          <mxGeometry relative="1" as="geometry"/>
        </mxCell>
        <mxCell id="zm0U7tuLNW1Q2RoZGp8c-338" value="&lt;div&gt;TON&lt;/div&gt;&lt;div&gt;&lt;div&gt;#000005&lt;/div&gt;&lt;/div&gt;&lt;div&gt;T1.0&lt;br&gt;&lt;/div&gt;&lt;div&gt;410110&lt;/div&gt;" style="rounded=0;whiteSpace=wrap;html=1;fillColor=#fff2cc;strokeColor=#d6b656;" parent="1" vertex="1">
          <mxGeometry x="3990" y="277.5" width="130" height="60" as="geometry"/>
        </mxCell>
        <mxCell id="zm0U7tuLNW1Q2RoZGp8c-341" value="&lt;div&gt;05577&lt;/div&gt;&lt;div&gt;HLS61090720_Ready&lt;/div&gt;&lt;div&gt;Морковка видит продукт&lt;/div&gt;&lt;div&gt;таймер&lt;br&gt;&lt;/div&gt;" style="rounded=1;whiteSpace=wrap;html=1;fillColor=#d5e8d4;strokeColor=#82b366;" parent="1" vertex="1">
          <mxGeometry x="4154" y="275.2941176470588" width="150" height="62" as="geometry"/>
        </mxCell>
        <mxCell id="zm0U7tuLNW1Q2RoZGp8c-351" value="" style="edgeStyle=orthogonalEdgeStyle;rounded=0;orthogonalLoop=1;jettySize=auto;html=1;strokeColor=#000000;strokeWidth=3;" parent="1" source="zm0U7tuLNW1Q2RoZGp8c-347" target="zm0U7tuLNW1Q2RoZGp8c-348" edge="1">
          <mxGeometry relative="1" as="geometry"/>
        </mxCell>
        <mxCell id="zm0U7tuLNW1Q2RoZGp8c-347" value="&lt;div&gt;05577&lt;/div&gt;&lt;div&gt;HLS61090720_Ready&lt;/div&gt;&lt;div&gt;Морковка видит продукт&lt;/div&gt;&lt;div&gt;таймер&lt;br&gt;&lt;/div&gt;" style="rounded=0;whiteSpace=wrap;html=1;fillColor=#d5e8d4;strokeColor=#82b366;" parent="1" vertex="1">
          <mxGeometry x="3248" y="487.57142857142856" width="147" height="60" as="geometry"/>
        </mxCell>
        <mxCell id="zm0U7tuLNW1Q2RoZGp8c-352" style="edgeStyle=orthogonalEdgeStyle;rounded=0;orthogonalLoop=1;jettySize=auto;html=1;entryX=0;entryY=0.5;entryDx=0;entryDy=0;strokeColor=#000000;strokeWidth=3;" parent="1" source="zm0U7tuLNW1Q2RoZGp8c-348" target="zm0U7tuLNW1Q2RoZGp8c-257" edge="1">
          <mxGeometry relative="1" as="geometry"/>
        </mxCell>
        <mxCell id="zm0U7tuLNW1Q2RoZGp8c-348" value="&lt;div&gt;006900&lt;br&gt;&lt;/div&gt;&lt;div&gt;VFOp61090714&lt;/div&gt;&lt;div&gt;DI Open, Mixer slurry outlet valve&lt;br&gt;&lt;/div&gt;" style="rounded=0;whiteSpace=wrap;html=1;fillColor=#d5e8d4;strokeColor=#82b366;" parent="1" vertex="1">
          <mxGeometry x="3436.5" y="487.57142857142856" width="147" height="60" as="geometry"/>
        </mxCell>
        <mxCell id="zm0U7tuLNW1Q2RoZGp8c-350" style="edgeStyle=orthogonalEdgeStyle;rounded=0;orthogonalLoop=1;jettySize=auto;html=1;entryX=0;entryY=0.75;entryDx=0;entryDy=0;strokeColor=#000000;strokeWidth=3;" parent="1" source="zm0U7tuLNW1Q2RoZGp8c-349" target="zm0U7tuLNW1Q2RoZGp8c-292" edge="1">
          <mxGeometry relative="1" as="geometry"/>
        </mxCell>
        <mxCell id="zm0U7tuLNW1Q2RoZGp8c-349" value="005576&lt;br&gt;&lt;div&gt;Mixer_Ready&lt;/div&gt;" style="rounded=1;whiteSpace=wrap;html=1;fillColor=#d5e8d4;strokeColor=#82b366;" parent="1" vertex="1">
          <mxGeometry x="3005.5" y="405.7941176470588" width="150" height="62" as="geometry"/>
        </mxCell>
        <mxCell id="zm0U7tuLNW1Q2RoZGp8c-359" style="edgeStyle=orthogonalEdgeStyle;rounded=0;orthogonalLoop=1;jettySize=auto;html=1;exitX=1;exitY=0.5;exitDx=0;exitDy=0;strokeColor=#000000;strokeWidth=3;" parent="1" source="zm0U7tuLNW1Q2RoZGp8c-356" target="zm0U7tuLNW1Q2RoZGp8c-358" edge="1">
          <mxGeometry relative="1" as="geometry"/>
        </mxCell>
        <mxCell id="zm0U7tuLNW1Q2RoZGp8c-356" value="&lt;div&gt;007636&lt;/div&gt;&lt;div&gt;Request to enable slurry system&lt;br&gt;&lt;/div&gt;" style="rounded=0;whiteSpace=wrap;html=1;fillColor=#d5e8d4;strokeColor=#82b366;" parent="1" vertex="1">
          <mxGeometry x="2861.5" y="485.5758823529412" width="120" height="60" as="geometry"/>
        </mxCell>
        <mxCell id="zm0U7tuLNW1Q2RoZGp8c-360" style="edgeStyle=orthogonalEdgeStyle;rounded=0;orthogonalLoop=1;jettySize=auto;html=1;strokeColor=#000000;strokeWidth=3;" parent="1" source="zm0U7tuLNW1Q2RoZGp8c-358" target="zm0U7tuLNW1Q2RoZGp8c-347" edge="1">
          <mxGeometry relative="1" as="geometry"/>
        </mxCell>
        <mxCell id="zm0U7tuLNW1Q2RoZGp8c-358" value="005576&lt;div&gt;Mixer_Ready&lt;/div&gt;" style="rounded=0;whiteSpace=wrap;html=1;fillColor=#f8cecc;strokeColor=#b85450;" parent="1" vertex="1">
          <mxGeometry x="3055" y="485" width="106" height="60" as="geometry"/>
        </mxCell>
        <mxCell id="zm0U7tuLNW1Q2RoZGp8c-363" value="&lt;div&gt;007118&lt;/div&gt;&lt;div&gt;PB2_150200_Start&lt;/div&gt;&lt;div&gt;Push button Start slurry dump&lt;br&gt;&lt;/div&gt;" style="rounded=0;whiteSpace=wrap;html=1;fillColor=#d5e8d4;strokeColor=#82b366;" parent="1" vertex="1">
          <mxGeometry x="3385" y="143" width="120" height="74" as="geometry"/>
        </mxCell>
        <mxCell id="zm0U7tuLNW1Q2RoZGp8c-364" value="&lt;div&gt;007117&lt;/div&gt;&lt;div&gt;PB1_150200_Ackn_&lt;/div&gt;&lt;div&gt;Push button Operator Acknowledge slurry dump&lt;br&gt;&lt;/div&gt;" style="rounded=0;whiteSpace=wrap;html=1;fillColor=#d5e8d4;strokeColor=#82b366;" parent="1" vertex="1">
          <mxGeometry x="2843.5" y="-432" width="120" height="74" as="geometry"/>
        </mxCell>
        <mxCell id="-DMYC8TSmq7vtVu4Xtf_-3" style="edgeStyle=orthogonalEdgeStyle;rounded=0;orthogonalLoop=1;jettySize=auto;html=1;entryX=0;entryY=0.5;entryDx=0;entryDy=0;" parent="1" source="-DMYC8TSmq7vtVu4Xtf_-2" target="zm0U7tuLNW1Q2RoZGp8c-255" edge="1">
          <mxGeometry relative="1" as="geometry"/>
        </mxCell>
        <mxCell id="-DMYC8TSmq7vtVu4Xtf_-4" style="edgeStyle=orthogonalEdgeStyle;rounded=0;orthogonalLoop=1;jettySize=auto;html=1;" parent="1" source="-DMYC8TSmq7vtVu4Xtf_-2" target="zm0U7tuLNW1Q2RoZGp8c-349" edge="1">
          <mxGeometry relative="1" as="geometry">
            <Array as="points">
              <mxPoint x="2570" y="429"/>
            </Array>
          </mxGeometry>
        </mxCell>
        <mxCell id="-DMYC8TSmq7vtVu4Xtf_-2" value="&lt;div&gt;007636&lt;/div&gt;&lt;div&gt;Request to enable slurry system&lt;br&gt;&lt;/div&gt;" style="rounded=0;whiteSpace=wrap;html=1;fillColor=#d5e8d4;strokeColor=#82b366;" parent="1" vertex="1">
          <mxGeometry x="2510" y="323.2058823529412" width="120" height="60" as="geometry"/>
        </mxCell>
        <mxCell id="-DMYC8TSmq7vtVu4Xtf_-5" value="&lt;div&gt;007119&lt;/div&gt;&lt;div&gt;PB_150200_Stop&lt;/div&gt;&lt;div&gt;Push Btn Stop slurry powder dump&lt;br&gt;&lt;/div&gt;" style="rounded=0;whiteSpace=wrap;html=1;fillColor=#d5e8d4;strokeColor=#82b366;" parent="1" vertex="1">
          <mxGeometry x="3211" y="-413.5" width="167" height="47" as="geometry"/>
        </mxCell>
        <mxCell id="-DMYC8TSmq7vtVu4Xtf_-6" value="" style="edgeStyle=orthogonalEdgeStyle;rounded=0;orthogonalLoop=1;jettySize=auto;html=1;strokeColor=#000000;strokeWidth=3;" parent="1" source="zm0U7tuLNW1Q2RoZGp8c-207" target="-DMYC8TSmq7vtVu4Xtf_-5" edge="1">
          <mxGeometry relative="1" as="geometry">
            <mxPoint x="3172" y="-399.1428571428571" as="sourcePoint"/>
            <mxPoint x="3399" y="-394.85714285714266" as="targetPoint"/>
          </mxGeometry>
        </mxCell>
        <mxCell id="-DMYC8TSmq7vtVu4Xtf_-11" style="edgeStyle=orthogonalEdgeStyle;rounded=0;orthogonalLoop=1;jettySize=auto;html=1;exitX=1;exitY=0.5;exitDx=0;exitDy=0;" parent="1" source="-DMYC8TSmq7vtVu4Xtf_-7" target="zm0U7tuLNW1Q2RoZGp8c-193" edge="1">
          <mxGeometry relative="1" as="geometry"/>
        </mxCell>
        <mxCell id="-DMYC8TSmq7vtVu4Xtf_-7" value="&lt;div&gt;010066&lt;/div&gt;&lt;div&gt;MCSt61090721&lt;/div&gt;&lt;div&gt;Start, Manual dump,&lt;/div&gt;&lt;div&gt;Rotary valve&lt;br&gt;&lt;/div&gt;" style="rounded=0;whiteSpace=wrap;html=1;fillColor=#d5e8d4;strokeColor=#82b366;" parent="1" vertex="1">
          <mxGeometry x="2510" y="-634.7941176470588" width="120" height="60" as="geometry"/>
        </mxCell>
        <mxCell id="-DMYC8TSmq7vtVu4Xtf_-10" style="edgeStyle=orthogonalEdgeStyle;rounded=0;orthogonalLoop=1;jettySize=auto;html=1;exitX=1;exitY=0.5;exitDx=0;exitDy=0;" parent="1" source="-DMYC8TSmq7vtVu4Xtf_-8" target="-DMYC8TSmq7vtVu4Xtf_-7" edge="1">
          <mxGeometry relative="1" as="geometry"/>
        </mxCell>
        <mxCell id="-DMYC8TSmq7vtVu4Xtf_-8" value="&lt;div&gt;05577&lt;/div&gt;&lt;div&gt;HLS61090720_Ready&lt;/div&gt;&lt;div&gt;Морковка видит продукт&lt;/div&gt;&lt;div&gt;таймер&lt;br&gt;&lt;/div&gt;" style="rounded=0;whiteSpace=wrap;html=1;fillColor=#d5e8d4;strokeColor=#82b366;" parent="1" vertex="1">
          <mxGeometry x="2370" y="-639.7941176470588" width="120" height="60" as="geometry"/>
        </mxCell>
        <mxCell id="Zq_oQPXFPzm4FTkXhQ_C-1" value="&lt;div&gt;SEND TO C11BASE&lt;/div&gt;&lt;div&gt;&lt;br&gt;&lt;/div&gt;007701" style="rounded=1;whiteSpace=wrap;html=1;fillColor=#d5e8d4;strokeColor=#82b366;" parent="1" vertex="1">
          <mxGeometry x="3340" y="870" width="150" height="62" as="geometry"/>
        </mxCell>
        <mxCell id="_xtPATZDOHzCYZEzJrmS-2" value="" style="endArrow=classic;html=1;entryX=1;entryY=0;entryDx=0;entryDy=0;" edge="1" parent="1" target="zm0U7tuLNW1Q2RoZGp8c-193">
          <mxGeometry width="50" height="50" relative="1" as="geometry">
            <mxPoint x="2960" y="-750" as="sourcePoint"/>
            <mxPoint x="3010" y="-800" as="targetPoint"/>
          </mxGeometry>
        </mxCell>
        <mxCell id="_xtPATZDOHzCYZEzJrmS-3" value="&lt;div&gt;В онлайне не показывает &lt;br&gt;&lt;/div&gt;&lt;div&gt;этот бит&lt;br&gt;&lt;/div&gt;&lt;div&gt;&lt;br&gt;&lt;/div&gt;" style="text;html=1;align=center;verticalAlign=middle;resizable=0;points=[];autosize=1;" vertex="1" parent="1">
          <mxGeometry x="2945" y="-779" width="150" height="50" as="geometry"/>
        </mxCell>
        <mxCell id="_xtPATZDOHzCYZEzJrmS-5" value="" style="endArrow=classic;html=1;entryX=1;entryY=0;entryDx=0;entryDy=0;" edge="1" parent="1">
          <mxGeometry width="50" height="50" relative="1" as="geometry">
            <mxPoint x="3131" y="-750" as="sourcePoint"/>
            <mxPoint x="2939.5" y="-634.7941176470588" as="targetPoint"/>
          </mxGeometry>
        </mxCell>
        <mxCell id="_xtPATZDOHzCYZEzJrmS-6" value="&lt;div&gt;Смотрит на какйото флоуметр&lt;/div&gt;&lt;div&gt;на странице Seg19 #123&lt;br&gt;&lt;/div&gt;&lt;div&gt;В катушке 000837 Заменить регистр 400626 на 402026&lt;/div&gt;&lt;div&gt;&lt;br&gt;&lt;/div&gt;&lt;div&gt;&lt;br&gt;&lt;/div&gt;&lt;div&gt;&lt;br&gt;&lt;/div&gt;" style="text;html=1;align=center;verticalAlign=middle;resizable=0;points=[];autosize=1;" vertex="1" parent="1">
          <mxGeometry x="3078.5" y="-855" width="310" height="90" as="geometry"/>
        </mxCell>
        <mxCell id="_xtPATZDOHzCYZEzJrmS-9" value="Добавить в условие" style="text;html=1;align=center;verticalAlign=middle;resizable=0;points=[];autosize=1;" vertex="1" parent="1">
          <mxGeometry x="3573" y="420" width="130" height="20" as="geometry"/>
        </mxCell>
        <mxCell id="_xtPATZDOHzCYZEzJrmS-10" value="seg19.#112" style="text;html=1;align=center;verticalAlign=middle;resizable=0;points=[];autosize=1;" vertex="1" parent="1">
          <mxGeometry x="3550" y="325" width="80" height="20" as="geometry"/>
        </mxCell>
        <mxCell id="_xtPATZDOHzCYZEzJrmS-11" value="400616" style="text;html=1;align=center;verticalAlign=middle;resizable=0;points=[];autosize=1;" vertex="1" parent="1">
          <mxGeometry x="2950" y="-1020" width="50" height="20" as="geometry"/>
        </mxCell>
        <mxCell id="_xtPATZDOHzCYZEzJrmS-12" value="Скада уровень миксера 402026" style="text;html=1;align=center;verticalAlign=middle;resizable=0;points=[];autosize=1;" vertex="1" parent="1">
          <mxGeometry x="2678" y="-1023" width="190" height="20" as="geometry"/>
        </mxCell>
        <mxCell id="_xtPATZDOHzCYZEzJrmS-14" value="&lt;div&gt;402026&lt;/div&gt;&lt;div&gt;&lt;br&gt;&lt;/div&gt;" style="text;html=1;align=center;verticalAlign=middle;resizable=0;points=[];autosize=1;" vertex="1" parent="1">
          <mxGeometry x="3010" y="-1109" width="50" height="30" as="geometry"/>
        </mxCell>
      </root>
    </mxGraphModel>
  </diagram>
</mxfile>
